{
.formatVersion = 3;
axes = (
{
name = Weight;
tag = wght;
}
);
classes = (
{

glyphs = (
{
glyphname = exclam;
layers = (
{
layerId = "C8F50A54-17AA-4C4A-B1FA-B4132557993D";
shapes = (
{
closed = 1;
nodes = (
(246,734,l),
(271,709,l),
(214,283,l),
(95,265,l),
(74,285,l),
(56,698,l),
(74,722,l)
);
},
{
closed = 1;
nodes = (
(205,207,o),
(242,169,o),
(242,104,cs),
(242,33,o),
(200,-10,o),
(132,-10,cs),
(65,-10,o),
(29,27,o),
(29,94,cs),
(29,163,o),
(73,207,o),
(141,207,cs)
);
}
);
width = 299;
},
{
layerId = "2113D558-1B9A-4CE5-8522-23A5DC5AE0BB";
shapes = (
{
closed = 1;
nodes = (
(186,722,l),
(197,710,l),
(170,240,l),
(116,234,l),
(106,245,l),
(105,707,l),
(114,717,l)
);
},
{
closed = 1;
nodes = (
(163,102,o),
(181,82,o),
(181,50,cs),
(181,17,o),
(161,-5,o),
(128,-5,cs),
(96,-5,o),
(76,15,o),
(76,47,cs),
(76,80,o),
(98,102,o),
(131,102,cs)
);
}
);
width = 281;
},
{
layerId = "C039661A-009C-447A-BEE4-4577736CA1DB";
shapes = (
{
closed = 1;
nodes = (
(152,714,l),
(155,711,l),
(146,216,l),
(129,216,l),
(124,222,l),
(133,711,l),
(137,714,l)
);
},
{
closed = 1;
nodes = (
(138,41,o),
(147,32,o),
(147,20,cs),
(147,7,o),
(138,-2,o),
(126,-2,cs),
(113,-2,o),
(104,7,o),
(104,20,cs),
(104,32,o),
(113,41,o),
(126,41,cs)
);
}
);
width = 270;
}
);
unicode = 33;
},
{
glyphname = quotedbl;
layers = (
{
layerId = "C8F50A54-17AA-4C4A-B1FA-B4132557993D";
shapes = (
{
closed = 1;
nodes = (
(223,705,l),
(234,692,l),
(181,406,l),
(85,391,l),
(69,403,l),
(58,696,l)
);
},
{
closed = 1;
nodes = (
(434,705,l),
(444,692,l),
(392,406,l),
(296,391,l),
(280,403,l),
(269,696,l)
);
}
);
width = 484;
},
{
layerId = "2113D558-1B9A-4CE5-8522-23A5DC5AE0BB";
shapes = (
{
closed = 1;
nodes = (
(133,698,l),
(140,690,l),
(112,486,l),
(66,479,l),
(58,487,l),
(62,692,l)
);
},
{
closed = 1;
nodes = (
(260,698,l),
(266,690,l),
(239,486,l),
(192,479,l),
(185,487,l),
(189,692,l)
);
}
);
width = 312;
},
{
layerId = "C039661A-009C-447A-BEE4-4577736CA1DB";
shapes = (
{
closed = 1;
nodes = (
(83,693,l),
(86,689,l),
(73,532,l),
(55,530,l),
(51,534,l),
(64,691,l)
);
},
{
closed = 1;
nodes = (
(189,693,l),
(192,689,l),
(179,532,l),
(161,530,l),
(157,534,l),
(170,691,l)
);
}
);
width = 242;
}
);
leftKerningGroup = tilde2;
rightKerningGroup = tilde;
unicode = 34;
},
{
glyphname = numbersign;
layers = (
{
layerId = "C8F50A54-17AA-4C4A-B1FA-B4132557993D";
shapes = (
{
closed = 1;
nodes = (
(535,625,l),
(548,610,l),
(456,34,l),
(335,34,l),
(325,47,l),
(417,625,l)
);
},
{
closed = 1;
nodes = (
(574,280,l),
(586,266,l),
(578,161,l),
(34,161,l),
(22,174,l),
(31,280,l)
);
},
{
closed = 1;
nodes = (
(302,625,l),
(316,610,l),
(224,34,l),
(103,34,l),
(93,47,l),
(185,625,l)
);
},
{
closed = 1;
nodes = (
(607,497,l),
(619,484,l),
(610,378,l),
(67,378,l),
(55,391,l),
(63,497,l)
);
}
);
width = 641;
},
{
layerId = "2113D558-1B9A-4CE5-8522-23A5DC5AE0BB";
shapes = (
{
closed = 1;
nodes = (
(456,627,l),
(463,618,l),
(334,35,l),
(280,35,l),
(274,43,l),
(403,627,l)
);
},
{
closed = 1;
nodes = (
(500,272,l),
(507,265,l),
(501,215,l),
(28,215,l),
(22,222,l),
(26,272,l)
);
},
{
closed = 1;
nodes = (
(276,627,l),
(283,618,l),
(154,35,l),
(99,35,l),
(94,43,l),
(223,627,l)
);
},
{
closed = 1;
nodes = (
(538,454,l),
(545,448,l),
(539,397,l),
(67,397,l),
(60,404,l),
(64,454,l)
);
}
);
width = 567;
},
{
layerId = "C039661A-009C-447A-BEE4-4577736CA1DB";
shapes = (
{
closed = 1;
nodes = (
(413,628,l),
(415,622,l),
(266,35,l),
(249,35,l),
(246,39,l),
(395,628,l)
);
},
{
closed = 1;
nodes = (
(458,268,l),
(461,264,l),
(459,246,l),
(25,246,l),
(22,249,l),
(24,268,l)
);
},
{
closed = 1;
nodes = (
(262,628,l),
(264,622,l),
(116,35,l),
(98,35,l),
(95,39,l),
(245,628,l)
);
},
{
closed = 1;
nodes = (
(499,430,l),
(502,427,l),
(500,408,l),
(67,408,l),
(63,412,l),
(66,430,l)
);
}
);
width = 524;
}
);
unicode = 35;
},
{
glyphname = dollar;
layers = (
{
anchors = (
{
name = m.tilde;
position = "{300, 560}";
},
{
name = b.uni0324_4;
position = "{260, 0}";
}
);
layerId = "C8F50A54-17AA-4C4A-B1FA-B4132557993D";
shapes = (
{
closed = 1;
nodes = (
(359,471,l),
(334,90,l),
(212,90,l),
(238,471,l)
);
},
{
closed = 1;
nodes = (
(334,90,l),
(319,-153,l),
(213,-153,l),
(199,-138,l),
(212,90,l)
);
},
{
closed = 1;
nodes = (
(355,705,l),
(372,690,l),
(359,471,l),
(238,471,l),
(251,705,l)
);
},
{
closed = 1;
nodes = (
(384,568,o),
(444,555,o),
(495,539,c),
(467,384,l),
(441,378,l),
(386,411,o),
(326,430,o),
(295,430,cs),
(286,430,o),
(278,429,o),
(272,428,c),
(259,424,o),
(252,416,o),
(252,407,cs),
(252,397,o),
(258,388,o),
(271,381,c),
(295,366,o),
(336,356,o),
(380,338,cs),
(401,329,o),
(422,318,o),
(441,305,cs),
(479,280,o),
(507,241,o),
(507,181,cs),
(507,150,o),
(498,119,o),
(481,90,cs),
(446,30,o),
(375,-12,o),
(252,-12,cs),
(199,-12,o),
(124,-4,o),
(51,20,c),
(77,181,l),
(96,193,l),
(125,172,o),
(157,154,o),
(191,141,c),
(224,127,o),
(252,120,o),
(275,120,cs),
(285,120,o),
(294,121,o),
(301,124,c),
(316,128,o),
(323,137,o),
(323,146,cs),
(323,157,o),
(317,166,o),
(305,173,cs),
(280,187,o),
(239,199,o),
(196,216,cs),
(174,224,o),
(153,235,o),
(134,249,cs),
(95,276,o),
(68,315,o),
(68,375,cs),
(68,411,o),
(78,444,o),
(98,473,cs),
(137,532,o),
(213,568,o),
(321,568,cs)
);
}
);
width = 568;
},
{
anchors = (
{
name = m.tilde;
position = "{324, 560}";
},
{
name = b.uni0324_4;
position = "{284, 0}";
}
);
layerId = "2113D558-1B9A-4CE5-8522-23A5DC5AE0BB";
shapes = (
{
closed = 1;
nodes = (
(338,508,l),
(299,35,l),
(244,35,l),
(283,508,l)
);
},
{
closed = 1;
nodes = (
(299,35,l),
(285,-142,l),
(240,-142,l),
(231,-133,l),
(244,35,l)
);
},
{
closed = 1;
nodes = (
(343,701,l),
(353,692,l),
(337,508,l),
(283,508,l),
(297,701,l)
);
},
{
closed = 1;
nodes = (
(352,548,o),
(401,541,o),
(446,522,c),
(433,447,l),
(420,443,l),
(380,475,o),
(343,488,o),
(302,488,cs),
(278,488,o),
(258,484,o),
(242,476,cs),
(209,459,o),
(191,432,o),
(191,405,cs),
(191,387,o),
(198,372,o),
(211,360,cs),
(237,336,o),
(282,318,o),
(327,299,cs),
(350,290,o),
(372,279,o),
(393,267,cs),
(435,242,o),
(463,206,o),
(463,153,cs),
(463,125,o),
(455,99,o),
(440,75,cs),
(408,27,o),
(348,-5,o),
(263,-5,cs),
(214,-5,o),
(153,6,o),
(101,31,c),
(110,111,l),
(121,116,l),
(142,95,o),
(167,80,o),
(196,70,c),
(224,59,o),
(250,54,o),
(273,54,cs),
(296,54,o),
(317,58,o),
(334,66,cs),
(368,82,o),
(388,111,o),
(388,140,cs),
(388,159,o),
(381,174,o),
(368,187,c),
(341,211,o),
(298,230,o),
(252,249,cs),
(229,258,o),
(207,269,o),
(186,282,cs),
(145,306,o),
(116,342,o),
(116,395,cs),
(116,424,o),
(124,450,o),
(140,473,cs),
(172,520,o),
(231,548,o),
(311,548,cs)
);
}
);
width = 568;
},
{
anchors = (
{
name = m.tilde;
position = "{315, 551}";
},
{
name = b.uni0324_4;
position = "{287, 0}";
}
);
layerId = "C039661A-009C-447A-BEE4-4577736CA1DB";
shapes = (
{
closed = 1;
nodes = (
(326,526,l),
(281,8,l),
(260,8,l),
(303,526,l)
);
},
{
closed = 1;
nodes = (
(281,8,l),
(268,-135,l),
(252,-135,l),
(248,-131,l),
(260,8,l)
);
},
{
closed = 1;
nodes = (
(336,699,l),
(340,693,l),
(326,526,l),
(303,526,l),
(319,699,l)
);
},
{
closed = 1;
nodes = (
(334,538,o),
(374,534,o),
(417,514,c),
(412,495,l),
(406,494,l),
(370,511,o),
(332,518,o),
(303,518,cs),
(273,518,o),
(248,512,o),
(227,501,c),
(186,477,o),
(165,439,o),
(165,403,cs),
(165,382,o),
(172,364,o),
(185,350,cs),
(211,321,o),
(253,301,o),
(300,281,cs),
(323,271,o),
(345,260,o),
(366,248,c),
(406,223,o),
(435,190,o),
(435,138,cs),
(435,113,o),
(428,89,o),
(414,68,cs),
(386,25,o),
(334,-3,o),
(267,-3,cs),
(222,-3,o),
(169,9,o),
(130,36,c),
(131,57,l),
(136,58,l),
(155,44,o),
(177,34,o),
(201,27,cs),
(225,20,o),
(247,17,o),
(267,17,cs),
(298,17,o),
(324,23,o),
(346,35,cs),
(390,58,o),
(414,97,o),
(414,137,cs),
(414,159,o),
(407,178,o),
(394,193,cs),
(367,224,o),
(325,245,o),
(278,265,cs),
(255,275,o),
(233,286,o),
(213,298,cs),
(172,322,o),
(143,354,o),
(143,405,cs),
(143,430,o),
(150,452,o),
(163,472,cs),
(190,512,o),
(241,538,o),
(305,538,cs)
);
}
);
width = 568;
}
);
unicode = 36;
},
{
glyphname = percent;
layers = (
{
layerId = "C8F50A54-17AA-4C4A-B1FA-B4132557993D";
shapes = (
{
closed = 1;
nodes = (
(327,715,o),
(388,647,o),
(388,520,cs),
(388,383,o),
(319,307,o),
(195,307,cs),
(84,307,o),
(22,375,o),
(22,500,cs),
(22,639,o),
(92,715,o),
(216,715,cs)
);
},
{
closed = 1;
nodes = (
(163,584,o),
(147,563,o),
(147,510,cs),
(147,453,o),
(163,427,o),
(204,427,cs),
(248,427,o),
(263,451,o),
(263,503,cs),
(263,562,o),
(247,584,o),
(203,584,cs)
);
},
{
closed = 1;
nodes = (
(674,758,l),
(757,707,l),
(768,680,l),
(263,-103,l),
(174,-48,l),
(167,-29,l)
);
},
{
closed = 1;
nodes = (
(887,401,o),
(948,332,o),
(948,205,cs),
(948,69,o),
(879,-8,o),
(756,-8,cs),
(645,-8,o),
(582,61,o),
(582,186,cs),
(582,323,o),
(653,401,o),
(776,401,cs)
);
},
{
closed = 1;
nodes = (
(723,270,o),
(708,250,o),
(708,195,cs),
(708,139,o),
(723,112,o),
(764,112,cs),
(808,112,o),
(823,137,o),
(823,189,cs),
(823,248,o),
(807,270,o),
(763,270,cs)
);
}
);
width = 971;
},
{
layerId = "2113D558-1B9A-4CE5-8522-23A5DC5AE0BB";
shapes = (
{
closed = 1;
nodes = (
(310,705,o),
(365,638,o),
(365,518,cs),
(365,387,o),
(307,318,o),
(199,318,cs),
(98,318,o),
(43,386,o),
(43,507,cs),
(43,636,o),
(102,705,o),
(210,705,cs)
);
},
{
closed = 1;
nodes = (
(140,638,o),
(108,596,o),
(108,513,cs),
(108,425,o),
(140,382,o),
(204,382,cs),
(268,382,o),
(300,425,o),
(300,508,cs),
(300,595,o),
(267,638,o),
(203,638,cs)
);
},
{
closed = 1;
nodes = (
(665,741,l),
(705,717,l),
(712,702,l),
(199,-99,l),
(157,-75,l),
(152,-62,l)
);
},
{
closed = 1;
nodes = (
(805,382,o),
(859,315,o),
(859,194,cs),
(859,65,o),
(801,-5,o),
(693,-5,cs),
(593,-5,o),
(537,63,o),
(537,183,cs),
(537,314,o),
(597,382,o),
(704,382,cs)
);
},
{
closed = 1;
nodes = (
(635,314,o),
(603,273,o),
(603,190,cs),
(603,101,o),
(635,59,o),
(699,59,cs),
(763,59,o),
(795,101,o),
(795,185,cs),
(795,272,o),
(762,314,o),
(698,314,cs)
);
}
);
width = 903;
},
{
layerId = "C039661A-009C-447A-BEE4-4577736CA1DB";
shapes = (
{
closed = 1;
nodes = (
(300,697,o),
(353,631,o),
(353,511,cs),
(353,390,o),
(300,323,o),
(203,323,cs),
(107,323,o),
(55,389,o),
(55,509,cs),
(55,630,o),
(108,697,o),
(205,697,cs)
);
},
{
closed = 1;
nodes = (
(120,676,o),
(74,618,o),
(74,511,cs),
(74,402,o),
(121,344,o),
(205,344,cs),
(286,344,o),
(333,402,o),
(333,509,cs),
(333,618,o),
(287,676,o),
(203,676,cs)
);
},
{
closed = 1;
nodes = (
(669,731,l),
(680,725,l),
(684,716,l),
(154,-98,l),
(144,-94,l),
(140,-84,l)
);
},
{
closed = 1;
nodes = (
(758,370,o),
(810,304,o),
(810,185,cs),
(810,64,o),
(758,-3,o),
(661,-3,cs),
(565,-3,o),
(512,63,o),
(512,182,cs),
(512,303,o),
(566,370,o),
(663,370,cs)
);
},
{
closed = 1;
nodes = (
(577,349,o),
(532,290,o),
(532,185,cs),
(532,76,o),
(579,17,o),
(663,17,cs),
(744,17,o),
(791,77,o),
(791,182,cs),
(791,291,o),
(745,349,o),
(661,349,cs)
);
}
);
width = 865;
}
);
unicode = 37;
},
{
glyphname = ampersand;
layers = (
{
layerId = "C8F50A54-17AA-4C4A-B1FA-B4132557993D";
shapes = (
{
closed = 1;
nodes = (
(398,715,o),
(464,705,o),
(519,689,c),
(471,533,l),
(446,533,l),
(403,557,o),
(363,569,o),
(325,569,cs),
(286,569,o),
(266,553,o),
(266,520,cs),
(266,496,o),
(276,482,o),
(317,443,c),
(770,31,l),
(770,17,l),
(738,-19,o),
(700,-51,o),
(656,-78,c),
(643,-78,l),
(188,337,ls),
(116,404,o),
(81,463,o),
(81,532,cs),
(81,643,o),
(170,715,o),
(333,715,cs)
);
},
{
closed = 1;
nodes = (
(658,361,l),
(653,349,l),
(656,328,o),
(655,304,o),
(655,287,cs),
(655,228,o),
(641,175,o),
(613,130,cs),
(557,39,o),
(451,-13,o),
(306,-13,cs),
(247,-13,o),
(197,-5,o),
(155,12,cs),
(70,45,o),
(23,109,o),
(23,193,cs),
(23,280,o),
(69,332,o),
(145,367,c),
(150,434,l),
(237,302,l),
(216,281,o),
(205,256,o),
(205,228,cs),
(205,207,o),
(210,190,o),
(219,175,cs),
(238,146,o),
(274,132,o),
(327,132,cs),
(388,132,o),
(435,149,o),
(468,183,cs),
(501,217,o),
(518,261,o),
(518,314,cs),
(518,331,o),
(518,349,o),
(514,361,c),
(459,361,l),
(450,373,l),
(463,510,l),
(783,510,l),
(795,496,l),
(782,361,l)
);
}
);
width = 797;
},
{
layerId = "2113D558-1B9A-4CE5-8522-23A5DC5AE0BB";
shapes = (
{
closed = 1;
nodes = (
(383,707,o),
(441,695,o),
(496,668,c),
(474,600,l),
(461,600,l),
(416,627,o),
(370,640,o),
(321,640,cs),
(237,640,o),
(193,598,o),
(193,529,cs),
(193,485,o),
(211,450,o),
(263,406,c),
(714,4,l),
(714,-2,l),
(699,-18,o),
(682,-32,o),
(662,-44,c),
(655,-43,l),
(207,358,l),
(140,415,o),
(112,469,o),
(112,534,cs),
(112,641,o),
(187,707,o),
(323,707,cs)
);
},
{
closed = 1;
nodes = (
(575,390,l),
(573,382,l),
(589,341,o),
(596,300,o),
(596,257,cs),
(596,204,o),
(585,158,o),
(563,119,cs),
(518,39,o),
(432,-8,o),
(312,-8,cs),
(263,-8,o),
(220,0,o),
(183,15,cs),
(108,46,o),
(63,104,o),
(63,185,cs),
(63,266,o),
(109,329,o),
(189,369,c),
(190,403,l),
(236,339,l),
(179,308,o),
(143,260,o),
(143,199,cs),
(143,170,o),
(151,145,o),
(166,124,cs),
(196,82,o),
(252,59,o),
(321,59,cs),
(389,59,o),
(441,78,o),
(478,117,cs),
(515,155,o),
(533,205,o),
(533,266,cs),
(533,313,o),
(524,351,o),
(503,390,c),
(428,390,l),
(423,396,l),
(430,456,l),
(743,456,l),
(749,449,l),
(741,390,l)
);
}
);
width = 760;
},
{
layerId = "C039661A-009C-447A-BEE4-4577736CA1DB";
shapes = (
{
closed = 1;
nodes = (
(375,702,o),
(429,688,o),
(484,657,c),
(477,637,l),
(470,637,l),
(425,666,o),
(375,680,o),
(320,680,cs),
(209,680,o),
(153,625,o),
(153,534,cs),
(153,477,o),
(175,432,o),
(234,384,c),
(683,-10,l),
(683,-13,l),
(678,-17,o),
(671,-21,o),
(666,-24,c),
(663,-23,l),
(219,369,ls),
(158,421,o),
(131,472,o),
(131,535,cs),
(131,639,o),
(197,702,o),
(318,702,cs)
);
},
{
closed = 1;
nodes = (
(529,405,l),
(529,401,l),
(552,346,o),
(563,299,o),
(563,239,cs),
(563,191,o),
(554,149,o),
(535,112,cs),
(497,39,o),
(421,-4,o),
(317,-4,cs),
(273,-4,o),
(234,3,o),
(199,18,cs),
(129,46,o),
(86,103,o),
(86,180,cs),
(86,260,o),
(130,325,o),
(213,370,c),
(213,385,l),
(236,359,l),
(159,323,o),
(108,262,o),
(108,182,cs),
(108,148,o),
(117,119,o),
(136,94,cs),
(172,45,o),
(238,17,o),
(318,17,cs),
(389,17,o),
(445,38,o),
(484,79,cs),
(523,120,o),
(542,173,o),
(542,239,cs),
(542,302,o),
(527,354,o),
(498,405,c),
(412,405,l),
(407,410,l),
(412,427,l),
(720,427,l),
(723,423,l),
(719,405,l)
);
}
);
width = 738;
}
);
unicode = 38;
},
{
glyphname = quotesingle;
layers = (
{
layerId = "C8F50A54-17AA-4C4A-B1FA-B4132557993D";
shapes = (
{
closed = 1;
nodes = (
(223,705,l),
(234,692,l),
(181,406,l),
(85,391,l),
(69,403,l),
(58,696,l)
);
}
);
width = 273;
},
{
layerId = "2113D558-1B9A-4CE5-8522-23A5DC5AE0BB";
shapes = (
{
closed = 1;
nodes = (
(133,698,l),
(140,690,l),
(112,486,l),
(66,479,l),
(58,487,l),
(62,692,l)
);
}
);
width = 186;
},
{
layerId = "C039661A-009C-447A-BEE4-4577736CA1DB";
shapes = (
{
closed = 1;
nodes = (
(83,693,l),
(86,689,l),
(73,532,l),
(55,530,l),
(51,534,l),
(64,691,l)
);
}
);
width = 137;
}
);
leftKerningGroup = tilde2;
rightKerningGroup = tilde;
unicode = 39;
},
{
glyphname = parenleft;
layers = (
{
layerId = "C8F50A54-17AA-4C4A-B1FA-B4132557993D";
shapes = (
{
closed = 1;
nodes = (
(252,720,l),
(328,657,l),
(328,641,l),
(306,617,o),
(288,588,o),
(274,554,cs),
(245,485,o),
(232,395,o),
(232,274,cs),
(232,219,o),
(235,171,o),
(242,128,cs),
(255,42,o),
(284,-23,o),
(328,-71,c),
(328,-87,l),
(252,-150,l),
(234,-150,l),
(195,-121,o),
(162,-86,o),
(137,-47,cs),
(85,33,o),
(61,137,o),
(61,273,cs),
(61,346,o),
(67,410,o),
(80,466,cs),
(104,578,o),
(155,661,o),
(234,720,c)
);
}
);
width = 330;
},
{
layerId = "2113D558-1B9A-4CE5-8522-23A5DC5AE0BB";
shapes = (
{
closed = 1;
nodes = (
(276,723,l),
(310,692,l),
(310,684,l),
(275,656,o),
(247,624,o),
(226,587,c),
(182,514,o),
(165,417,o),
(164,281,c),
(165,214,o),
(170,157,o),
(179,108,cs),
(198,11,o),
(241,-58,o),
(310,-115,c),
(310,-123,l),
(276,-154,l),
(268,-154,l),
(225,-123,o),
(191,-87,o),
(165,-48,cs),
(113,31,o),
(91,135,o),
(88,280,c),
(89,355,o),
(96,419,o),
(108,474,cs),
(132,583,o),
(183,662,o),
(268,723,c)
);
}
);
width = 316;
},
{
layerId = "C039661A-009C-447A-BEE4-4577736CA1DB";
shapes = (
{
closed = 1;
nodes = (
(290,724,l),
(300,712,l),
(300,708,l),
(258,678,o),
(224,644,o),
(199,606,cs),
(148,530,o),
(127,429,o),
(126,284,c),
(127,211,o),
(133,149,o),
(144,97,cs),
(167,-7,o),
(216,-79,o),
(300,-140,c),
(300,-144,l),
(290,-156,l),
(286,-156,l),
(243,-124,o),
(208,-88,o),
(181,-49,cs),
(128,30,o),
(105,133,o),
(104,284,c),
(105,359,o),
(111,424,o),
(123,478,cs),
(147,585,o),
(199,661,o),
(286,724,c)
);
}
);
width = 307;
}
);
unicode = 40;
},
{
glyphname = asterisk;
layers = (
{
layerId = "C8F50A54-17AA-4C4A-B1FA-B4132557993D";
shapes = (
{
closed = 1;
nodes = (
(149,582,l),
(199,556,l),
(201,544,l),
(131,435,l),
(99,443,o),
(66,461,o),
(34,480,c),
(35,494,l)
);
},
{
closed = 1;
nodes = (
(45,741,l),
(164,661,l),
(154,605,l),
(142,600,l),
(17,632,l),
(16,665,o),
(21,702,o),
(32,738,c)
);
},
{
closed = 1;
nodes = (
(260,583,l),
(273,582,l),
(355,480,l),
(336,453,o),
(308,429,o),
(280,404,c),
(269,408,l),
(219,545,l)
);
},
{
closed = 1;
nodes = (
(282,809,l),
(242,670,l),
(187,664,l),
(177,673,l),
(170,802,l),
(201,813,o),
(237,819,o),
(276,820,c)
);
},
{
closed = 1;
nodes = (
(380,708,l),
(399,681,o),
(416,649,o),
(429,613,c),
(422,604,l),
(277,600,l),
(252,650,l),
(258,662,l)
);
}
);
width = 430;
},
{
layerId = "2113D558-1B9A-4CE5-8522-23A5DC5AE0BB";
shapes = (
{
closed = 1;
nodes = (
(155,586,l),
(189,569,l),
(189,558,l),
(127,456,l),
(104,464,o),
(84,476,o),
(63,488,c),
(63,496,l)
);
},
{
closed = 1;
nodes = (
(56,717,l),
(163,651,l),
(157,613,l),
(149,608,l),
(38,645,l),
(38,666,o),
(41,694,o),
(48,715,c)
);
},
{
closed = 1;
nodes = (
(237,587,l),
(248,586,l),
(316,487,l),
(304,467,o),
(287,452,o),
(268,437,c),
(259,438,l),
(210,562,l)
);
},
{
closed = 1;
nodes = (
(249,795,l),
(223,664,l),
(185,660,l),
(178,667,l),
(176,792,l),
(197,799,o),
(220,803,o),
(245,803,c)
);
},
{
closed = 1;
nodes = (
(348,693,l),
(360,674,o),
(373,654,o),
(380,630,c),
(375,625,l),
(253,608,l),
(236,643,l),
(240,653,l)
);
}
);
width = 410;
},
{
layerId = "C039661A-009C-447A-BEE4-4577736CA1DB";
shapes = (
{
closed = 1;
nodes = (
(170,593,l),
(183,585,l),
(182,579,l),
(109,486,l),
(102,489,o),
(95,493,o),
(88,497,c),
(87,500,l)
);
},
{
closed = 1;
nodes = (
(51,687,l),
(165,637,l),
(162,621,l),
(156,620,l),
(45,662,l),
(45,670,o),
(47,678,o),
(48,685,c)
);
},
{
closed = 1;
nodes = (
(225,594,l),
(230,592,l),
(296,494,l),
(291,486,o),
(285,480,o),
(280,477,c),
(276,477,l),
(213,584,l)
);
},
{
closed = 1;
nodes = (
(217,779,l),
(205,655,l),
(190,653,l),
(187,658,l),
(192,778,l),
(200,780,o),
(208,781,o),
(215,781,c)
);
},
{
closed = 1;
nodes = (
(346,673,l),
(353,666,o),
(356,659,o),
(357,652,c),
(356,650,l),
(235,622,l),
(229,637,l),
(233,641,l)
);
}
);
width = 397;
}
);
leftKerningGroup = tilde2;
rightKerningGroup = tilde;
unicode = 42;
},
{
glyphname = plus;
layers = (
{
layerId = "C8F50A54-17AA-4C4A-B1FA-B4132557993D";
shapes = (
{
closed = 1;
nodes = (
(320,525,l),
(334,512,l),
(334,349,l),
(496,349,l),
(509,335,l),
(499,207,l),
(334,207,l),
(334,41,l),
(206,32,l),
(192,45,l),
(192,207,l),
(29,207,l),
(16,222,l),
(26,349,l),
(192,349,l),
(192,515,l)
);
}
);
width = 524;
},
{
layerId = "2113D558-1B9A-4CE5-8522-23A5DC5AE0BB";
shapes = (
{
closed = 1;
nodes = (
(287,519,l),
(295,511,l),
(295,321,l),
(484,321,l),
(491,314,l),
(486,257,l),
(295,257,l),
(295,64,l),
(237,60,l),
(229,67,l),
(229,257,l),
(39,257,l),
(33,263,l),
(38,321,l),
(229,321,l),
(229,513,l)
);
}
);
width = 524;
},
{
layerId = "C039661A-009C-447A-BEE4-4577736CA1DB";
shapes = (
{
closed = 1;
nodes = (
(270,514,l),
(273,511,l),
(273,306,l),
(478,306,l),
(482,302,l),
(479,284,l),
(273,284,l),
(273,78,l),
(254,75,l),
(251,79,l),
(251,284,l),
(46,284,l),
(43,287,l),
(45,306,l),
(251,306,l),
(251,512,l)
);
}
);
width = 524;
}
);
unicode = 43;
},
{
glyphname = comma;
layers = (
{
layerId = "C8F50A54-17AA-4C4A-B1FA-B4132557993D";
shapes = (
{
closed = 1;
nodes = (
(212,167,o),
(229,129,o),
(229,84,cs),
(229,0,o),
(176,-76,o),
(63,-155,c),
(-3,-97,l),
(-6,-82,l),
(35,-46,o),
(56,-6,o),
(56,37,cs),
(56,68,o),
(44,95,o),
(20,119,c),
(21,137,l),
(70,164,o),
(121,185,o),
(177,200,c)
);
}
);
width = 250;
},
{
layerId = "2113D558-1B9A-4CE5-8522-23A5DC5AE0BB";
shapes = (
{
closed = 1;
nodes = (
(172,80,o),
(187,55,o),
(187,25,cs),
(187,-24,o),
(152,-74,o),
(81,-126,c),
(49,-97,l),
(49,-90,l),
(89,-57,o),
(109,-25,o),
(109,8,cs),
(109,27,o),
(98,45,o),
(75,61,c),
(75,70,l),
(96,83,o),
(117,95,o),
(141,100,c)
);
}
);
width = 250;
},
{
layerId = "C039661A-009C-447A-BEE4-4577736CA1DB";
shapes = (
{
closed = 1;
nodes = (
(148,32,o),
(162,15,o),
(162,-8,cs),
(162,-36,o),
(137,-73,o),
(90,-109,c),
(79,-97,l),
(80,-94,l),
(119,-65,o),
(139,-36,o),
(139,-9,cs),
(139,6,o),
(128,18,o),
(106,28,c),
(106,33,l),
(109,37,o),
(115,42,o),
(120,45,c)
);
}
);
width = 250;
}
);
leftKerningGroup = comma2;
rightKerningGroup = comma;
unicode = 44;
},
{
glyphname = hyphen;
layers = (
{
anchors = (
{
name = top;
position = "{177, 291}";
}
);
layerId = "C8F50A54-17AA-4C4A-B1FA-B4132557993D";
shapes = (
{
closed = 1;
nodes = (
(29,370,l),
(20,242,l),
(33,228,l),
(331,228,l),
(341,356,l),
(328,370,l)
);
}
);
width = 361;
},
{
anchors = (
{
name = top;
position = "{185, 681}";
}
);
background = {
shapes = (
{
closed = 1;
nodes = (
(298,299,l),
(298,299,o),
(279,295,o),
(233,290,cs),
(59,270,l),
(53,218,l),
(60,210,l),
(300,236,l),
(305,290,l)
);
}
);
};
layerId = "2113D558-1B9A-4CE5-8522-23A5DC5AE0BB";
shapes = (
{
closed = 1;
nodes = (
(29,332,l),
(24,275,l),
(31,268,l),
(340,268,l),
(345,325,l),
(338,332,l)
);
}
);
width = 369;
},
{
anchors = (
{
name = top;
position = "{189, 656}";
}
);
layerId = "C039661A-009C-447A-BEE4-4577736CA1DB";
shapes = (
{
closed = 1;
nodes = (
(31,311,l),
(29,293,l),
(32,289,l),
(347,289,l),
(349,308,l),
(346,311,l)
);
}
);
width = 378;
}
);
leftKerningGroup = bullet2;
rightKerningGroup = bullet;
unicode = 45;
},
{
glyphname = period;
layers = (
{
layerId = "C8F50A54-17AA-4C4A-B1FA-B4132557993D";
shapes = (
{
closed = 1;
nodes = (
(204,207,o),
(231,179,o),
(231,104,cs),
(231,33,o),
(189,-10,o),
(121,-10,cs),
(54,-10,o),
(18,27,o),
(18,94,cs),
(18,163,o),
(62,207,o),
(130,207,cs)
);
}
);
width = 250;
},
{
layerId = "2113D558-1B9A-4CE5-8522-23A5DC5AE0BB";
shapes = (
{
closed = 1;
nodes = (
(159,102,o),
(177,82,o),
(177,50,cs),
(177,17,o),
(158,-5,o),
(123,-5,cs),
(91,-5,o),
(72,15,o),
(72,47,cs),
(72,80,o),
(94,102,o),
(127,102,cs)
);
}
);
width = 250;
},
{
layerId = "C039661A-009C-447A-BEE4-4577736CA1DB";
shapes = (
{
closed = 1;
nodes = (
(137,41,o),
(146,32,o),
(146,20,cs),
(146,7,o),
(137,-2,o),
(125,-2,cs),
(112,-2,o),
(103,7,o),
(103,20,cs),
(103,32,o),
(112,41,o),
(125,41,cs)
);
}
);
width = 250;
}
);
leftKerningGroup = comma2;
rightKerningGroup = comma;
unicode = 46;
},
{
glyphname = slash;
layers = (
{
layerId = "C8F50A54-17AA-4C4A-B1FA-B4132557993D";
shapes = (
{
closed = 1;
nodes = (
(340,746,l),
(356,728,l),
(129,-129,l),
(-19,-129,l),
(-31,-112,l),
(197,746,l)
);
}
);
width = 306;
},
{
layerId = "2113D558-1B9A-4CE5-8522-23A5DC5AE0BB";
shapes = (
{
closed = 1;
nodes = (
(309,740,l),
(317,731,l),
(93,-123,l),
(28,-123,l),
(22,-115,l),
(246,740,l)
);
}
);
width = 313;
},
{
layerId = "C039661A-009C-447A-BEE4-4577736CA1DB";
shapes = (
{
closed = 1;
nodes = (
(292,737,l),
(295,732,l),
(72,-120,l),
(55,-120,l),
(51,-116,l),
(274,737,l)
);
}
);
width = 318;
}
);
unicode = 47;
},
{
glyphname = zero;
layers = (
{
layerId = "C8F50A54-17AA-4C4A-B1FA-B4132557993D";
shapes = (
{
closed = 1;
nodes = (
(463,720,o),
(553,595,o),
(553,368,cs),
(553,123,o),
(453,-14,o),
(271,-14,cs),
(109,-14,o),
(17,111,o),
(17,337,cs),
(17,583,o),
(120,720,o),
(302,720,cs)
);
},
{
closed = 1;
nodes = (
(221,498,o),
(200,457,o),
(200,352,cs),
(200,242,o),
(221,192,o),
(284,192,cs),
(348,192,o),
(372,237,o),
(372,341,cs),
(372,453,o),
(346,498,o),
(284,498,cs)
);
}
);
width = 568;
},
{
layerId = "2113D558-1B9A-4CE5-8522-23A5DC5AE0BB";
shapes = (
{
closed = 1;
nodes = (
(438,705,o),
(521,580,o),
(521,355,cs),
(521,122,o),
(434,-9,o),
(278,-9,cs),
(129,-9,o),
(47,117,o),
(47,342,cs),
(47,575,o),
(134,705,o),
(290,705,cs)
);
},
{
closed = 1;
nodes = (
(181,611,o),
(126,521,o),
(126,350,cs),
(126,175,o),
(180,81,o),
(284,81,cs),
(388,81,o),
(441,172,o),
(441,343,cs),
(441,520,o),
(386,611,o),
(282,611,cs)
);
}
);
width = 568;
},
{
layerId = "C039661A-009C-447A-BEE4-4577736CA1DB";
shapes = (
{
closed = 1;
nodes = (
(426,697,o),
(502,574,o),
(502,348,cs),
(502,121,o),
(424,-4,o),
(281,-4,cs),
(141,-4,o),
(62,120,o),
(62,346,cs),
(62,572,o),
(141,697,o),
(283,697,cs)
);
},
{
closed = 1;
nodes = (
(157,673,o),
(85,556,o),
(85,348,cs),
(85,137,o),
(156,19,o),
(283,19,cs),
(410,19,o),
(479,135,o),
(479,346,cs),
(479,556,o),
(408,673,o),
(281,673,cs)
);
}
);
width = 568;
}
);
unicode = 48;
},
{
glyphname = one;
layers = (
{
layerId = "C8F50A54-17AA-4C4A-B1FA-B4132557993D";
shapes = (
{
closed = 1;
nodes = (
(419,706,l),
(454,706,l),
(454,0,l),
(221,0,l),
(221,437,l),
(58,413,l),
(44,424,l),
(44,614,l)
);
}
);
width = 568;
},
{
layerId = "2113D558-1B9A-4CE5-8522-23A5DC5AE0BB";
shapes = (
{
closed = 1;
nodes = (
(380,700,l),
(395,700,l),
(395,0,l),
(297,0,l),
(297,583,l),
(96,539,l),
(87,546,l),
(87,625,l)
);
}
);
width = 568;
},
{
layerId = "C039661A-009C-447A-BEE4-4577736CA1DB";
shapes = (
{
closed = 1;
nodes = (
(364,696,l),
(370,696,l),
(370,0,l),
(346,0,l),
(346,663,l),
(125,609,l),
(118,613,l),
(118,632,l)
);
}
);
width = 568;
}
);
unicode = 49;
},
{
glyphname = two;
layers = (
{
layerId = "C8F50A54-17AA-4C4A-B1FA-B4132557993D";
shapes = (
{
closed = 1;
nodes = (
(334,719,o),
(370,712,o),
(403,699,c),
(468,671,o),
(509,617,o),
(509,537,cs),
(509,501,o),
(500,464,o),
(482,424,cs),
(464,382,o),
(433,332,o),
(387,272,c),
(330,191,l),
(333,185,l),
(539,185,l),
(551,169,l),
(524,0,l),
(38,0,l),
(27,7,l),
(27,148,l),
(172,315,ls),
(202,350,o),
(227,380,o),
(246,407,cs),
(265,434,o),
(274,457,o),
(274,476,cs),
(274,501,o),
(261,519,o),
(233,519,cs),
(194,519,o),
(134,492,o),
(87,445,c),
(62,445,l),
(22,627,l),
(116,685,o),
(205,719,o),
(293,719,cs)
);
}
);
width = 568;
},
{
layerId = "2113D558-1B9A-4CE5-8522-23A5DC5AE0BB";
shapes = (
{
closed = 1;
nodes = (
(321,707,o),
(351,701,o),
(378,688,cs),
(430,663,o),
(463,615,o),
(463,552,cs),
(463,513,o),
(451,472,o),
(426,428,cs),
(401,384,o),
(363,329,o),
(314,262,cs),
(184,86,l),
(186,81,l),
(534,81,l),
(540,72,l),
(528,0,l),
(60,0,l),
(54,4,l),
(54,67,l),
(229,289,l),
(270,344,o),
(302,390,o),
(327,427,cs),
(351,464,o),
(363,498,o),
(363,529,cs),
(363,581,o),
(329,620,o),
(264,620,cs),
(205,620,o),
(141,585,o),
(90,522,c),
(78,522,l),
(61,600,l),
(125,667,o),
(203,707,o),
(287,707,cs)
);
}
);
width = 568;
},
{
layerId = "C039661A-009C-447A-BEE4-4577736CA1DB";
shapes = (
{
closed = 1;
nodes = (
(312,699,o),
(339,693,o),
(362,681,cs),
(409,656,o),
(434,615,o),
(434,560,cs),
(434,520,o),
(421,477,o),
(393,430,cs),
(364,384,o),
(324,326,o),
(273,257,cs),
(101,27,l),
(103,24,l),
(530,24,l),
(533,18,l),
(529,0,l),
(70,0,l),
(68,2,l),
(68,22,l),
(257,275,ls),
(306,340,o),
(344,395,o),
(371,438,cs),
(398,481,o),
(411,521,o),
(411,558,cs),
(411,622,o),
(367,675,o),
(280,675,cs),
(210,675,o),
(143,634,o),
(91,566,c),
(86,566,l),
(82,585,l),
(130,655,o),
(202,699,o),
(282,699,cs)
);
}
);
width = 568;
}
);
unicode = 50;
},
{
glyphname = three;
layers = (
{
layerId = "C8F50A54-17AA-4C4A-B1FA-B4132557993D";
shapes = (
{
closed = 1;
nodes = (
(346,720,o),
(406,704,o),
(452,671,cs),
(497,637,o),
(520,594,o),
(520,541,cs),
(520,515,o),
(513,488,o),
(498,458,cs),
(483,427,o),
(454,400,o),
(411,377,c),
(411,369,l),
(495,344,o),
(533,291,o),
(533,208,cs),
(533,163,o),
(519,125,o),
(491,92,cs),
(434,26,o),
(330,-13,o),
(193,-13,cs),
(145,-13,o),
(92,-7,o),
(47,0,c),
(32,173,l),
(48,188,l),
(105,171,o),
(150,164,o),
(198,164,cs),
(234,164,o),
(261,168,o),
(279,177,cs),
(298,187,o),
(307,200,o),
(307,217,cs),
(307,244,o),
(288,256,o),
(244,256,cs),
(141,256,l),
(130,270,l),
(133,432,l),
(189,434,ls),
(206,435,o),
(222,437,o),
(236,442,c),
(264,450,o),
(280,467,o),
(280,492,cs),
(280,517,o),
(261,529,o),
(221,529,cs),
(177,529,o),
(134,514,o),
(82,493,c),
(57,493,l),
(22,656,l),
(98,696,o),
(189,720,o),
(272,720,cs)
);
}
);
width = 568;
},
{
layerId = "2113D558-1B9A-4CE5-8522-23A5DC5AE0BB";
shapes = (
{
closed = 1;
nodes = (
(318,711,o),
(365,697,o),
(400,669,cs),
(435,640,o),
(452,603,o),
(452,558,cs),
(452,526,o),
(442,494,o),
(422,462,cs),
(402,429,o),
(370,402,o),
(327,381,c),
(327,376,l),
(426,355,o),
(478,300,o),
(478,220,cs),
(478,175,o),
(466,136,o),
(442,102,cs),
(394,33,o),
(308,-8,o),
(195,-8,cs),
(155,-8,o),
(109,-2,o),
(72,3,c),
(66,91,l),
(73,98,l),
(114,81,o),
(157,72,o),
(200,72,cs),
(255,72,o),
(299,84,o),
(332,108,cs),
(365,132,o),
(381,165,o),
(381,207,cs),
(381,279,o),
(327,323,o),
(224,326,c),
(151,326,l),
(144,334,l),
(147,404,l),
(200,405,l),
(223,405,o),
(245,411,o),
(268,422,cs),
(313,445,o),
(349,485,o),
(349,536,cs),
(349,593,o),
(306,627,o),
(243,627,cs),
(188,627,o),
(142,604,o),
(89,557,c),
(78,557,l),
(62,637,l),
(129,688,o),
(192,711,o),
(261,711,cs)
);
}
);
width = 568;
},
{
layerId = "C039661A-009C-447A-BEE4-4577736CA1DB";
shapes = (
{
closed = 1;
nodes = (
(297,700,o),
(338,687,o),
(369,662,cs),
(400,636,o),
(416,602,o),
(416,560,cs),
(416,524,o),
(403,490,o),
(378,457,cs),
(353,425,o),
(319,400,o),
(278,382,c),
(278,378,l),
(390,355,o),
(454,293,o),
(454,201,cs),
(454,161,o),
(443,126,o),
(422,95,cs),
(377,34,o),
(296,-2,o),
(190,-2,cs),
(158,-2,o),
(113,0,o),
(79,8,c),
(74,27,l),
(79,31,l),
(113,24,o),
(158,22,o),
(190,22,cs),
(262,22,o),
(321,38,o),
(365,71,cs),
(409,103,o),
(430,146,o),
(430,201,cs),
(430,299,o),
(351,358,o),
(209,363,c),
(149,363,l),
(144,367,l),
(146,386,l),
(202,386,ls),
(229,386,o),
(257,393,o),
(285,408,cs),
(343,436,o),
(391,492,o),
(391,557,cs),
(391,628,o),
(334,675,o),
(248,675,cs),
(191,675,o),
(135,650,o),
(81,601,c),
(75,601,l),
(70,622,l),
(130,675,o),
(185,700,o),
(248,700,cs)
);
}
);
width = 568;
}
);
unicode = 51;
},
{
glyphname = four;
layers = (
{
layerId = "C8F50A54-17AA-4C4A-B1FA-B4132557993D";
shapes = (
{
closed = 1;
nodes = (
(481,706,l),
(486,15,l),
(475,0,l),
(291,0,l),
(279,14,l),
(287,449,l),
(273,449,l),
(201,316,l),
(549,316,l),
(562,294,l),
(551,136,l),
(16,136,l),
(2,156,l),
(2,299,l),
(262,706,l)
);
}
);
width = 568;
},
{
layerId = "2113D558-1B9A-4CE5-8522-23A5DC5AE0BB";
shapes = (
{
closed = 1;
nodes = (
(412,700,l),
(412,9,l),
(405,0,l),
(334,0,l),
(328,6,l),
(328,578,l),
(320,578,l),
(119,276,l),
(516,276,l),
(524,267,l),
(518,196,l),
(37,196,l),
(30,206,l),
(30,270,l),
(320,700,l)
);
}
);
width = 568;
},
{
layerId = "C039661A-009C-447A-BEE4-4577736CA1DB";
shapes = (
{
closed = 1;
nodes = (
(374,696,l),
(374,3,l),
(372,0,l),
(352,0,l),
(350,3,l),
(350,648,l),
(346,648,l),
(74,255,l),
(499,255,l),
(501,248,l),
(499,231,l),
(49,231,l),
(45,235,l),
(45,255,l),
(350,696,l)
);
}
);
width = 568;
}
);
unicode = 52;
},
{
glyphname = five;
layers = (
{
layerId = "C8F50A54-17AA-4C4A-B1FA-B4132557993D";
shapes = (
{
closed = 1;
nodes = (
(518,710,l),
(531,696,l),
(509,540,l),
(494,524,l),
(256,524,l),
(254,457,l),
(329,441,ls),
(465,413,o),
(526,353,o),
(526,245,cs),
(526,193,o),
(512,147,o),
(485,108,cs),
(430,30,o),
(326,-14,o),
(192,-14,cs),
(143,-14,o),
(79,-6,o),
(31,2,c),
(17,171,l),
(34,187,l),
(88,170,o),
(139,164,o),
(192,164,cs),
(227,164,o),
(255,169,o),
(274,179,cs),
(293,188,o),
(303,202,o),
(303,221,cs),
(303,253,o),
(278,268,o),
(223,275,c),
(90,298,l),
(76,315,l),
(75,686,l),
(97,710,l)
);
}
);
width = 568;
},
{
layerId = "2113D558-1B9A-4CE5-8522-23A5DC5AE0BB";
shapes = (
{
closed = 1;
nodes = (
(489,702,l),
(495,696,l),
(486,628,l),
(478,620,l),
(194,620,l),
(187,439,l),
(270,421,ls),
(422,390,o),
(491,329,o),
(491,230,cs),
(491,181,o),
(478,139,o),
(453,104,cs),
(402,33,o),
(307,-9,o),
(183,-9,cs),
(147,-9,o),
(102,-2,o),
(65,3,c),
(56,77,l),
(65,85,l),
(106,76,o),
(147,70,o),
(183,70,cs),
(248,70,o),
(299,84,o),
(338,111,cs),
(376,138,o),
(395,175,o),
(395,221,cs),
(395,285,o),
(343,323,o),
(226,347,c),
(117,367,l),
(108,377,l),
(114,688,l),
(129,702,l)
);
}
);
width = 568;
},
{
layerId = "C039661A-009C-447A-BEE4-4577736CA1DB";
shapes = (
{
closed = 1;
nodes = (
(472,697,l),
(475,695,l),
(473,673,l),
(467,671,l),
(158,672,l),
(151,428,l),
(237,410,ls),
(399,377,o),
(469,318,o),
(469,220,cs),
(469,175,o),
(457,135,o),
(433,101,cs),
(385,34,o),
(295,-4,o),
(177,-4,cs),
(152,-4,o),
(116,-2,o),
(82,3,c),
(78,24,l),
(81,27,l),
(117,22,o),
(153,19,o),
(178,19,cs),
(258,19,o),
(324,38,o),
(374,75,cs),
(423,111,o),
(447,160,o),
(447,221,cs),
(447,303,o),
(377,354,o),
(230,386,cs),
(132,406,l),
(127,413,l),
(134,687,l),
(146,697,l)
);
}
);
width = 568;
}
);
unicode = 53;
},
{
glyphname = six;
layers = (
{
layerId = "C8F50A54-17AA-4C4A-B1FA-B4132557993D";
shapes = (
{
closed = 1;
nodes = (
(357,706,l),
(345,706,l),
(135,600,o),
(13,452,o),
(13,265,c),
(13,93,o),
(114,-14,o),
(282,-14,c),
(471,-14,o),
(555,116,o),
(555,235,c),
(555,345,o),
(485,453,o),
(350,453,cs),
(327,453,o),
(300,448,o),
(276,441,c),
(235,476,l),
(206,272,l),
(235,284,o),
(259,290,o),
(279,290,cs),
(324,290,o),
(343,264,o),
(343,212,c),
(343,162,o),
(325,136,o),
(288,136,c),
(230,136,o),
(226,185,o),
(226,269,c),
(226,448,o),
(282,488,o),
(507,581,c),
(507,604,l)
);
}
);
width = 568;
},
{
layerId = "2113D558-1B9A-4CE5-8522-23A5DC5AE0BB";
shapes = (
{
closed = 1;
nodes = (
(411,700,l),
(401,700,l),
(179,611,o),
(56,452,o),
(56,251,c),
(56,87,o),
(128,-9,o),
(278,-9,cs),
(426,-9,o),
(511,86,o),
(511,215,c),
(511,334,o),
(441,416,o),
(322,416,cs),
(264,416,o),
(214,397,o),
(171,366,c),
(152,387,l),
(137,272,l),
(184,317,o),
(237,342,o),
(293,342,cs),
(375,342,o),
(421,291,o),
(421,200,c),
(421,108,o),
(369,60,o),
(286,60,cs),
(189,60,o),
(147,125,o),
(147,252,c),
(147,445,o),
(246,559,o),
(491,644,c),
(491,655,l)
);
}
);
width = 568;
},
{
layerId = "C039661A-009C-447A-BEE4-4577736CA1DB";
shapes = (
{
closed = 1;
nodes = (
(442,696,l),
(429,696,l),
(202,616,o),
(80,454,o),
(80,245,cs),
(80,85,o),
(152,-4,o),
(279,-4,cs),
(414,-4,o),
(488,71,o),
(488,207,cs),
(488,329,o),
(419,396,o),
(303,396,cs),
(230,396,o),
(167,369,o),
(113,325,c),
(106,331,l),
(99,287,l),
(157,339,o),
(227,372,o),
(302,372,cs),
(404,372,o),
(464,314,o),
(464,207,cs),
(464,86,o),
(399,19,o),
(279,19,cs),
(166,19,o),
(103,100,o),
(103,245,cs),
(103,445,o),
(222,601,o),
(450,681,c),
(450,686,l)
);
}
);
width = 568;
}
);
unicode = 54;
},
{
glyphname = seven;
layers = (
{
layerId = "C8F50A54-17AA-4C4A-B1FA-B4132557993D";
shapes = (
{
closed = 1;
nodes = (
(34,706,l),
(535,705,l),
(535,538,l),
(288,0,l),
(81,0,l),
(67,37,l),
(307,511,l),
(30,511,l),
(19,529,l)
);
}
);
width = 568;
},
{
layerId = "2113D558-1B9A-4CE5-8522-23A5DC5AE0BB";
shapes = (
{
closed = 1;
nodes = (
(52,700,l),
(512,700,l),
(514,626,l),
(214,0,l),
(120,0,l),
(113,15,l),
(415,615,l),
(52,615,l),
(45,626,l)
);
}
);
width = 568;
},
{
layerId = "C039661A-009C-447A-BEE4-4577736CA1DB";
shapes = (
{
closed = 1;
nodes = (
(63,697,l),
(499,697,l),
(500,675,l),
(173,0,l),
(146,0,l),
(145,4,l),
(474,672,l),
(65,672,l),
(60,677,l)
);
}
);
width = 568;
}
);
unicode = 55;
},
{
glyphname = eight;
layers = (
{
layerId = "C8F50A54-17AA-4C4A-B1FA-B4132557993D";
shapes = (
{
closed = 1;
nodes = (
(445,720,o),
(526,648,o),
(526,537,cs),
(526,516,o),
(523,497,o),
(517,478,cs),
(505,441,o),
(480,410,o),
(440,381,c),
(440,372,l),
(459,361,o),
(477,349,o),
(492,335,cs),
(523,306,o),
(542,265,o),
(542,210,cs),
(542,139,o),
(516,85,o),
(467,45,cs),
(417,6,o),
(350,-14,o),
(267,-14,cs),
(187,-14,o),
(126,4,o),
(87,39,cs),
(46,75,o),
(26,118,o),
(26,169,cs),
(26,196,o),
(30,219,o),
(39,238,c),
(55,277,o),
(90,305,o),
(141,328,c),
(141,338,l),
(123,349,o),
(107,361,o),
(92,376,cs),
(62,405,o),
(43,448,o),
(43,505,cs),
(43,572,o),
(68,624,o),
(115,663,cs),
(162,701,o),
(225,720,o),
(305,720,cs)
);
},
{
closed = 1;
nodes = (
(256,266,o),
(246,260,o),
(239,254,cs),
(224,242,o),
(220,227,o),
(220,204,cs),
(220,185,o),
(226,168,o),
(237,157,cs),
(248,146,o),
(265,140,o),
(287,140,cs),
(335,140,o),
(352,166,o),
(352,192,cs),
(352,205,o),
(348,216,o),
(341,225,cs),
(326,243,o),
(301,258,o),
(269,271,c)
);
},
{
closed = 1;
nodes = (
(268,562,o),
(254,558,o),
(246,549,cs),
(238,540,o),
(234,527,o),
(234,513,cs),
(234,500,o),
(237,489,o),
(244,480,cs),
(257,461,o),
(282,447,o),
(311,434,c),
(319,442,o),
(326,450,o),
(331,458,cs),
(341,474,o),
(343,491,o),
(343,508,cs),
(343,541,o),
(324,562,o),
(287,562,cs)
);
}
);
width = 568;
},
{
layerId = "2113D558-1B9A-4CE5-8522-23A5DC5AE0BB";
shapes = (
{
closed = 1;
nodes = (
(411,707,o),
(482,644,o),
(482,540,cs),
(482,511,o),
(477,486,o),
(466,465,cs),
(445,422,o),
(404,393,o),
(355,372,c),
(355,365,l),
(381,354,o),
(405,342,o),
(428,328,cs),
(473,299,o),
(504,259,o),
(504,190,cs),
(504,130,o),
(483,82,o),
(440,46,cs),
(397,9,o),
(341,-9,o),
(270,-9,cs),
(202,-9,o),
(149,8,o),
(112,42,c),
(74,75,o),
(55,118,o),
(55,171,cs),
(55,204,o),
(62,231,o),
(76,254,cs),
(103,299,o),
(152,330,o),
(205,350,c),
(205,355,l),
(183,366,o),
(163,379,o),
(144,394,cs),
(107,422,o),
(82,463,o),
(82,523,cs),
(82,581,o),
(102,626,o),
(141,659,cs),
(180,691,o),
(231,707,o),
(294,707,cs)
);
},
{
closed = 1;
nodes = (
(251,314,o),
(230,304,o),
(210,293,cs),
(170,270,o),
(142,237,o),
(142,182,cs),
(142,147,o),
(154,118,o),
(179,96,cs),
(203,74,o),
(236,63,o),
(278,63,cs),
(369,63,o),
(418,114,o),
(418,183,cs),
(418,210,o),
(411,231,o),
(397,248,cs),
(369,280,o),
(323,301,o),
(272,322,c)
);
},
{
closed = 1;
nodes = (
(251,634,o),
(222,624,o),
(200,605,cs),
(178,585,o),
(167,558,o),
(167,525,cs),
(167,502,o),
(173,482,o),
(184,466,cs),
(206,434,o),
(247,415,o),
(288,398,c),
(307,407,o),
(326,416,o),
(343,427,cs),
(378,448,o),
(400,481,o),
(400,530,cs),
(400,597,o),
(357,634,o),
(288,634,cs)
);
}
);
width = 568;
},
{
layerId = "C039661A-009C-447A-BEE4-4577736CA1DB";
shapes = (
{
closed = 1;
nodes = (
(393,699,o),
(456,640,o),
(456,542,cs),
(456,508,o),
(449,480,o),
(436,458,cs),
(409,414,o),
(360,385,o),
(308,364,c),
(308,361,l),
(336,350,o),
(363,338,o),
(390,324,cs),
(442,295,o),
(482,254,o),
(482,179,cs),
(482,123,o),
(463,79,o),
(425,46,cs),
(386,13,o),
(335,-4,o),
(271,-4,cs),
(211,-4,o),
(163,12,o),
(126,44,cs),
(89,76,o),
(72,118,o),
(72,171,cs),
(72,207,o),
(81,238,o),
(98,262,cs),
(133,312,o),
(188,343,o),
(243,362,c),
(243,365,l),
(219,376,o),
(196,389,o),
(175,403,cs),
(132,429,o),
(104,471,o),
(104,532,cs),
(104,585,o),
(122,626,o),
(157,655,cs),
(192,684,o),
(236,699,o),
(288,699,cs)
);
},
{
closed = 1;
nodes = (
(247,342,o),
(219,330,o),
(192,315,c),
(136,286,o),
(94,242,o),
(94,170,cs),
(94,125,o),
(110,88,o),
(143,61,cs),
(175,33,o),
(218,19,o),
(271,19,cs),
(387,19,o),
(459,82,o),
(459,177,cs),
(459,213,o),
(450,242,o),
(431,262,cs),
(395,304,o),
(336,328,o),
(273,351,c)
);
},
{
closed = 1;
nodes = (
(242,675,o),
(204,662,o),
(174,637,cs),
(143,611,o),
(128,577,o),
(128,532,cs),
(128,502,o),
(135,477,o),
(149,458,cs),
(177,419,o),
(224,396,o),
(275,375,c),
(301,384,o),
(326,395,o),
(351,408,c),
(399,434,o),
(433,475,o),
(433,543,cs),
(433,626,o),
(380,675,o),
(288,675,cs)
);
}
);
width = 568;
}
);
unicode = 56;
},
{
glyphname = nine;
layers = (
{
layerId = "C8F50A54-17AA-4C4A-B1FA-B4132557993D";
shapes = (
{
closed = 1;
nodes = (
(211,0,l),
(223,0,l),
(433,106,o),
(555,254,o),
(555,441,c),
(555,613,o),
(454,720,o),
(286,720,c),
(97,720,o),
(13,590,o),
(13,471,c),
(13,361,o),
(83,253,o),
(218,253,cs),
(241,253,o),
(268,258,o),
(292,265,c),
(333,230,l),
(362,434,l),
(333,422,o),
(309,416,o),
(289,416,cs),
(244,416,o),
(225,442,o),
(225,494,c),
(225,544,o),
(243,570,o),
(280,570,c),
(338,570,o),
(342,521,o),
(342,437,c),
(342,258,o),
(286,218,o),
(61,125,c),
(61,102,l)
);
}
);
width = 568;
},
{
layerId = "2113D558-1B9A-4CE5-8522-23A5DC5AE0BB";
shapes = (
{
closed = 1;
nodes = (
(156,0,l),
(166,0,l),
(388,89,o),
(511,248,o),
(511,449,c),
(511,613,o),
(439,709,o),
(289,709,cs),
(141,709,o),
(56,614,o),
(56,485,c),
(56,366,o),
(126,284,o),
(245,284,cs),
(303,284,o),
(353,303,o),
(396,334,c),
(415,313,l),
(430,428,l),
(383,383,o),
(330,358,o),
(274,358,cs),
(192,358,o),
(146,409,o),
(146,500,c),
(146,592,o),
(198,640,o),
(281,640,cs),
(378,640,o),
(420,575,o),
(420,448,c),
(420,255,o),
(321,141,o),
(76,56,c),
(76,45,l)
);
}
);
width = 568;
},
{
layerId = "C039661A-009C-447A-BEE4-4577736CA1DB";
shapes = (
{
closed = 1;
nodes = (
(126,0,l),
(139,0,l),
(366,80,o),
(488,242,o),
(488,451,cs),
(488,611,o),
(416,700,o),
(289,700,cs),
(154,700,o),
(80,625,o),
(80,489,cs),
(80,367,o),
(149,300,o),
(265,300,cs),
(338,300,o),
(401,327,o),
(455,371,c),
(462,365,l),
(469,409,l),
(411,357,o),
(341,324,o),
(266,324,cs),
(164,324,o),
(104,382,o),
(104,489,cs),
(104,610,o),
(169,677,o),
(289,677,cs),
(402,677,o),
(465,596,o),
(465,451,cs),
(465,251,o),
(346,95,o),
(118,15,c),
(118,10,l)
);
}
);
width = 568;
}
);
unicode = 57;
},
{
glyphname = greater;
layers = (
{
layerId = "C8F50A54-17AA-4C4A-B1FA-B4132557993D";
shapes = (
{
closed = 1;
nodes = (
(79,524,l),
(477,382,l),
(490,364,l),
(490,193,l),
(90,47,l),
(72,61,l),
(44,179,l),
(345,278,l),
(345,288,l),
(43,389,l),
(35,403,l)
);
}
);
width = 524;
},
{
layerId = "2113D558-1B9A-4CE5-8522-23A5DC5AE0BB";
shapes = (
{
closed = 1;
nodes = (
(62,507,l),
(477,336,l),
(485,327,l),
(485,250,l),
(68,85,l),
(58,92,l),
(44,145,l),
(414,287,l),
(414,294,l),
(46,444,l),
(41,453,l)
);
}
);
width = 524;
},
{
layerId = "C039661A-009C-447A-BEE4-4577736CA1DB";
shapes = (
{
closed = 1;
nodes = (
(52,497,l),
(477,310,l),
(480,306,l),
(480,282,l),
(55,107,l),
(50,109,l),
(44,126,l),
(452,293,l),
(452,297,l),
(48,476,l),
(45,482,l)
);
}
);
width = 524;
}
);
unicode = 62;
},
{
glyphname = question;
layers = (
{
layerId = "C8F50A54-17AA-4C4A-B1FA-B4132557993D";
shapes = (
{
closed = 1;
nodes = (
(117.644,206.967,o),
(75.162,163.395,o),
(75.162,93.68,cs),
(75.162,27.233,o),
(111.109,-9.804,o),
(177.556,-9.804,cs),
(246.182,-9.804,o),
(287.575,33.768,o),
(287.575,103.484,cs),
(287.575,168.842,o),
(250.539,206.967,o),
(186.27,206.967,cs)
);
},
{
closed = 1;
nodes = (
(103.484,261.432,l),
(251.628,283.218,l),
(247.271,332.237,ls),
(245.093,355.112,o),
(261.432,373.63,o),
(282.129,384.523,cs),
(310.451,399.773,ls),
(380.166,437.899,o),
(418.291,493.453,o),
(418.291,555.543,cs),
(418.291,665.562,o),
(299.558,728.742,o),
(90.412,737.456,c),
(71.894,727.652,l),
(33.768,610.008,l),
(49.019,590.401,l),
(93.68,587.133,o),
(224.396,587.133,o),
(225.485,522.864,cs),
(225.485,493.453,o),
(209.146,472.756,o),
(173.199,459.685,cs),
(147.056,449.881,ls),
(94.769,430.274,o),
(75.162,396.505,o),
(81.698,339.862,cs),
(89.323,274.504,l)
);
}
);
width = 382;
},
{
layerId = "2113D558-1B9A-4CE5-8522-23A5DC5AE0BB";
shapes = (
{
closed = 1;
nodes = (
(128,101,o),
(107,80,o),
(107,47,cs),
(107,15,o),
(126,-5,o),
(158,-5,cs),
(191,-5,o),
(211,17,o),
(211,50,cs),
(211,82,o),
(193,101,o),
(161,101,cs)
);
},
{
closed = 1;
nodes = (
(125,230,l),
(191,237,l),
(187,296,ls),
(185,332,o),
(203,350,o),
(235,370,cs),
(276,396,ls),
(335,433,o),
(368,493,o),
(368,549,cs),
(368,649,o),
(269,710,o),
(93,721,c),
(82,716,l),
(64,663,l),
(71,655,l),
(145,650,o),
(284,634,o),
(284,535,cs),
(284,499,o),
(262,468,o),
(218,442,cs),
(174,416,ls),
(132,391,o),
(110,353,o),
(113,309,cs),
(118,237,l)
);
}
);
width = 362;
},
{
layerId = "C039661A-009C-447A-BEE4-4577736CA1DB";
shapes = (
{
closed = 1;
nodes = (
(134,41,o),
(125,32,o),
(125,20,cs),
(125,7,o),
(134,-2,o),
(147,-2,cs),
(160,-2,o),
(169,7,o),
(169,20,cs),
(169,32,o),
(160,41,o),
(147,41,cs)
);
},
{
closed = 1;
nodes = (
(137,211,l),
(156,212,l),
(153,270,ls),
(151,313,o),
(176,349,o),
(233,388,cs),
(256,404,ls),
(311,441,o),
(340,490,o),
(340,545,cs),
(340,638,o),
(254,700,o),
(95,712,c),
(88,709,l),
(82,694,l),
(84,691,l),
(174,686,o),
(320,659,o),
(318,542,cs),
(317,495,o),
(292,454,o),
(243,421,cs),
(221,406,ls),
(150,357,o),
(128,322,o),
(131,267,cs),
(134,216,l)
);
}
);
width = 351;
}
);
unicode = 63;
},
{
glyphname = at;
layers = (
{
layerId = "C8F50A54-17AA-4C4A-B1FA-B4132557993D";
shapes = (
{
closed = 1;
nodes = (
(616,720,o),
(686,706,o),
(746,677,cs),
(865,619,o),
(935,510,o),
(935,357,cs),
(935,243,o),
(895,155,o),
(816,94,cs),
(736,33,o),
(623,2,o),
(476,2,c),
(626,141,l),
(661,141,o),
(691,150,o),
(717,169,cs),
(769,206,o),
(798,272,o),
(798,351,cs),
(798,402,o),
(786,445,o),
(763,482,c),
(715,554,o),
(627,595,o),
(510,590,cs),
(439,587,o),
(378,569,o),
(325,537,cs),
(220,472,o),
(159,359,o),
(159,223,cs),
(159,148,o),
(176,84,o),
(211,32,cs),
(280,-73,o),
(408,-130,o),
(572,-130,c),
(580,-149,l),
(525,-246,l),
(424,-246,o),
(335,-229,o),
(260,-195,cs),
(108,-126,o),
(21,8,o),
(21,200,cs),
(21,345,o),
(72,474,o),
(162,569,cs),
(252,664,o),
(380,720,o),
(536,720,cs)
);
},
{
closed = 1;
nodes = (
(700,505,l),
(712,496,l),
(660,46,l),
(476,2,l),
(532,470,l)
);
},
{
closed = 1;
nodes = (
(487,498,l),
(675,466,l),
(575,332,l),
(452,364,l),
(435,364,o),
(422,353,o),
(414,334,cs),
(406,314,o),
(403,284,o),
(403,245,cs),
(403,226,o),
(404,210,o),
(406,198,cs),
(409,174,o),
(416,164,o),
(425,164,cs),
(433,164,o),
(442,171,o),
(452,186,cs),
(472,214,o),
(500,273,o),
(535,365,c),
(495,115,l),
(475,115,l),
(454,72,o),
(430,32,o),
(399,-5,c),
(375,-5,l),
(318,9,o),
(280,31,o),
(261,61,cs),
(242,90,o),
(233,126,o),
(233,168,cs),
(233,231,o),
(252,297,o),
(292,358,cs),
(332,418,o),
(395,469,o),
(480,498,c)
);
}
);
width = 946;
},
{
layerId = "2113D558-1B9A-4CE5-8522-23A5DC5AE0BB";
shapes = (
{
closed = 1;
nodes = (
(576,673,o),
(642,659,o),
(697,630,cs),
(807,573,o),
(870,467,o),
(870,328,cs),
(870,225,o),
(838,145,o),
(773,88,cs),
(708,31,o),
(616,0,o),
(496,-4,c),
(553,61,l),
(606,63,o),
(652,75,o),
(690,97,cs),
(766,140,o),
(807,219,o),
(807,324,cs),
(807,383,o),
(794,434,o),
(769,477,cs),
(718,564,o),
(622,615,o),
(491,612,cs),
(414,611,o),
(346,593,o),
(288,560,cs),
(171,492,o),
(103,369,o),
(103,216,cs),
(103,137,o),
(120,69,o),
(155,13,cs),
(223,-100,o),
(353,-162,o),
(521,-162,c),
(524,-171,l),
(496,-217,l),
(405,-216,o),
(325,-198,o),
(256,-165,cs),
(119,-97,o),
(38,31,o),
(38,204,cs),
(38,341,o),
(84,457,o),
(165,541,cs),
(246,625,o),
(361,673,o),
(501,673,cs)
);
},
{
closed = 1;
nodes = (
(632,509,l),
(643,503,l),
(584,16,l),
(496,-4,l),
(557,472,l)
);
},
{
closed = 1;
nodes = (
(508,509,l),
(614,468,l),
(581,401,l),
(485,438,l),
(433,438,o),
(391,411,o),
(363,365,cs),
(335,319,o),
(320,257,o),
(320,189,cs),
(320,162,o),
(322,142,o),
(326,127,cs),
(333,98,o),
(344,87,o),
(353,87,cs),
(361,87,o),
(376,98,o),
(397,121,cs),
(439,166,o),
(498,258,o),
(555,393,c),
(538,214,l),
(515,214,l),
(466,130,o),
(408,51,o),
(344,-9,c),
(328,-9,l),
(300,7,o),
(279,29,o),
(264,58,cs),
(249,86,o),
(241,122,o),
(241,166,cs),
(241,241,o),
(263,318,o),
(307,383,cs),
(350,447,o),
(415,494,o),
(502,509,c)
);
}
);
width = 903;
},
{
layerId = "C039661A-009C-447A-BEE4-4577736CA1DB";
shapes = (
{
closed = 1;
nodes = (
(554,646,o),
(616,632,o),
(669,604,cs),
(773,547,o),
(833,443,o),
(833,310,cs),
(833,213,o),
(805,138,o),
(749,85,cs),
(692,32,o),
(611,2,o),
(506,-4,c),
(511,15,l),
(576,19,o),
(630,33,o),
(675,57,cs),
(763,104,o),
(811,189,o),
(811,310,cs),
(811,373,o),
(798,428,o),
(772,475,cs),
(719,570,o),
(618,625,o),
(482,625,cs),
(399,625,o),
(327,608,o),
(266,573,cs),
(142,503,o),
(70,375,o),
(70,212,cs),
(70,131,o),
(88,61,o),
(123,2,cs),
(193,-115,o),
(323,-180,o),
(491,-180,c),
(492,-185,l),
(478,-202,l),
(393,-200,o),
(319,-182,o),
(254,-148,cs),
(124,-80,o),
(48,44,o),
(48,207,cs),
(48,339,o),
(91,448,o),
(168,526,cs),
(244,604,o),
(351,646,o),
(482,646,cs)
);
},
{
closed = 1;
nodes = (
(587,501,l),
(593,498,l),
(533,0,l),
(506,-4,l),
(567,489,l)
);
},
{
closed = 1;
nodes = (
(502,499,l),
(583,492,l),
(579,471,l),
(500,477,l),
(429,476,o),
(371,438,o),
(332,377,cs),
(292,316,o),
(272,237,o),
(272,154,cs),
(272,122,o),
(275,97,o),
(280,78,cs),
(291,40,o),
(307,26,o),
(316,26,cs),
(321,26,o),
(336,40,o),
(362,69,cs),
(414,125,o),
(492,235,o),
(565,388,c),
(545,296,l),
(539,296,l),
(475,173,o),
(396,65,o),
(319,-4,c),
(307,-4,l),
(288,10,o),
(273,28,o),
(264,51,cs),
(255,74,o),
(250,107,o),
(250,150,cs),
(250,241,o),
(273,325,o),
(315,389,cs),
(357,453,o),
(418,494,o),
(498,499,c)
);
}
);
width = 879;
}
);
leftKerningGroup = C2;
rightKerningGroup = D;
unicode = 64;
},
{
glyphname = A;
layers = (
{
anchors = (
{
name = m.tilde;
position = "{344, 707}";
},
{
name = b.uni0324_4;
position = "{343, 0}";
},
{
name = m.uni0328_5;
position = "{674, 0}";
}
);
layerId = "C8F50A54-17AA-4C4A-B1FA-B4132557993D";
shapes = (
{
closed = 1;
nodes = (
(480,707,l),
(674,0,l),
(452,0,l),
(351,511,l),
(337,511,l),
(216,0,l),
(2,0,l),
(216,707,l)
);
},
{
closed = 1;
nodes = (
(450,281,l),
(450,120,l),
(204,120,l),
(204,281,l)
);
}
);
width = 685;
},
{
anchors = (
{
name = m.tilde;
position = "{344, 707}";
},
{
name = b.uni0324_4;
position = "{343, 0}";
},
{
name = m.uni0328_5;
position = "{674, 0}";
}
);
layerId = "2113D558-1B9A-4CE5-8522-23A5DC5AE0BB";
shapes = (
{
closed = 1;
nodes = (
(379,700,l),
(610,0,l),
(522,0,l),
(325,605,l),
(318,605,l),
(101,0,l),
(14,0,l),
(270,700,l)
);
},
{
closed = 1;
nodes = (
(486,263,l),
(486,189,l),
(141,189,l),
(141,263,l)
);
}
);
width = 633;
},
{
anchors = (
{
name = m.tilde;
position = "{329, 702}";
},
{
name = b.uni0324_4;
position = "{329, 0}";
},
{
name = m.uni0328_5;
position = "{638, 0}";
}
);
layerId = "C039661A-009C-447A-BEE4-4577736CA1DB";
shapes = (
{
closed = 1;
nodes = (
(320,696,l),
(574,0,l),
(549,0,l),
(310,658,l),
(306,658,l),
(47,0,l),
(21,0,l),
(298,696,l)
);
},
{
closed = 1;
nodes = (
(472,254,l),
(478,233,l),
(126,233,l),
(131,254,l)
);
}
);
width = 605;
}
);
leftKerningGroup = A2;
rightKerningGroup = A;
unicode = 65;
},
{
glyphname = B;
layers = (
{
layerId = "C8F50A54-17AA-4C4A-B1FA-B4132557993D";
shapes = (
{
closed = 1;
nodes = (
(381,708,ls),
(538,708,o),
(637,646,o),
(637,526,cs),
(637,455,o),
(598,397,o),
(529,364,c),
(621,337,o),
(660,285,o),
(660,204,cs),
(660,55,o),
(535,-8,o),
(300,-8,cs),
(282,-8,o),
(260,-8,o),
(233,-7,cs),
(179,-5,o),
(118,-3,o),
(66,0,c),
(197,152,l),
(211,149,o),
(227,146,o),
(246,144,cs),
(283,140,o),
(322,137,o),
(342,137,cs),
(402,137,o),
(438,164,o),
(438,213,cs),
(438,246,o),
(419,265,o),
(376,280,c),
(141,280,l),
(141,415,l),
(355,415,l),
(395,428,o),
(414,451,o),
(414,495,cs),
(414,520,o),
(405,538,o),
(388,548,c),
(370,557,o),
(336,562,o),
(287,562,cs),
(258,562,o),
(237,561,o),
(186,558,c),
(66,707,l)
);
},
{
closed = 1;
nodes = (
(281,707,l),
(281,0,l),
(66,0,l),
(66,707,l)
);
}
);
width = 687;
},
{
layerId = "2113D558-1B9A-4CE5-8522-23A5DC5AE0BB";
shapes = (
{
closed = 1;
nodes = (
(300,701,ls),
(429,701,o),
(507,643,o),
(507,531,cs),
(507,451,o),
(469,394,o),
(402,365,c),
(501,346,o),
(549,288,o),
(549,195,cs),
(549,63,o),
(452,-4,o),
(259,-4,cs),
(251,-4,o),
(237,-4,o),
(218,-4,cs),
(178,-3,o),
(131,-1,o),
(100,0,c),
(154,81,l),
(165,80,o),
(178,78,o),
(193,77,cs),
(222,74,o),
(253,73,o),
(273,73,cs),
(389,73,o),
(454,118,o),
(454,201,cs),
(454,270,o),
(410,309,o),
(323,320,c),
(135,320,l),
(135,393,l),
(310,393,l),
(375,409,o),
(411,448,o),
(411,520,cs),
(411,557,o),
(401,583,o),
(381,600,cs),
(361,617,o),
(328,625,o),
(281,625,cs),
(242,625,o),
(194,625,o),
(149,624,c),
(100,700,l)
);
},
{
closed = 1;
nodes = (
(195,700,l),
(195,0,l),
(99,0,l),
(99,700,l)
);
}
);
width = 591;
},
{
layerId = "C039661A-009C-447A-BEE4-4577736CA1DB";
shapes = (
{
closed = 1;
nodes = (
(254,698,ls),
(370,698,o),
(434,640,o),
(434,536,cs),
(434,448,o),
(394,390,o),
(329,365,c),
(426,350,o),
(488,296,o),
(488,192,cs),
(488,68,o),
(399,-3,o),
(239,-3,cs),
(228,-3,o),
(216,-3,o),
(202,-3,c),
(174,-2,o),
(145,-1,o),
(120,0,c),
(128,23,l),
(139,22,o),
(150,22,o),
(162,21,cs),
(185,20,o),
(211,19,o),
(235,19,cs),
(383,19,o),
(466,83,o),
(466,192,cs),
(466,287,o),
(405,341,o),
(294,349,c),
(131,349,l),
(131,371,l),
(284,371,l),
(365,387,o),
(411,448,o),
(411,536,cs),
(411,579,o),
(398,613,o),
(371,638,cs),
(344,663,o),
(307,675,o),
(262,675,cs),
(218,675,o),
(172,675,o),
(127,675,c),
(120,696,l)
);
},
{
closed = 1;
nodes = (
(142,696,l),
(142,0,l),
(120,0,l),
(120,696,l)
);
}
);
width = 537;
}
);
leftKerningGroup = B2;
rightKerningGroup = B;
unicode = 66;
},
{
glyphname = C;
layers = (
{
anchors = (
{
name = m.tilde;
position = "{346, 707}";
},
{
name = b.uni0324_4;
position = "{348, 0}";
}
);
layerId = "C8F50A54-17AA-4C4A-B1FA-B4132557993D";
shapes = (
{
closed = 1;
nodes = (
(451,719,o),
(509,708,o),
(561,689,c),
(524,515,l),
(510,507,l),
(473,527,o),
(417,541,o),
(376,541,cs),
(288,541,o),
(250,493,o),
(250,372,cs),
(250,231,o),
(294,169,o),
(390,169,cs),
(429,169,o),
(485,177,o),
(524,192,c),
(542,181,l),
(524,9,l),
(473,-7,o),
(420,-12,o),
(372,-12,cs),
(135,-12,o),
(19,115,o),
(19,347,cs),
(19,464,o),
(51,556,o),
(115,621,cs),
(178,686,o),
(268,719,o),
(384,719,cs)
);
}
);
width = 561;
},
{
anchors = (
{
name = m.tilde;
position = "{346, 707}";
},
{
name = b.uni0324_4;
position = "{348, 0}";
}
);
layerId = "2113D558-1B9A-4CE5-8522-23A5DC5AE0BB";
shapes = (
{
closed = 1;
nodes = (
(426,707,o),
(492,688,o),
(544,655,c),
(525,569,l),
(515,567,l),
(471,604,o),
(416,628,o),
(348,628,cs),
(215,628,o),
(138,534,o),
(138,353,cs),
(138,168,o),
(215,72,o),
(346,72,cs),
(411,72,o),
(476,97,o),
(527,138,c),
(538,132,l),
(531,43,l),
(470,11,o),
(410,-8,o),
(339,-8,cs),
(150,-8,o),
(40,119,o),
(40,344,cs),
(40,461,o),
(67,550,o),
(122,613,cs),
(177,676,o),
(254,707,o),
(353,707,cs)
);
}
);
width = 568;
},
{
anchors = (
{
name = m.tilde;
position = "{345, 702}";
},
{
name = b.uni0324_4;
position = "{342, 0}";
}
);
layerId = "C039661A-009C-447A-BEE4-4577736CA1DB";
shapes = (
{
closed = 1;
nodes = (
(410,700,o),
(481,677,o),
(534,636,c),
(526,617,l),
(519,617,l),
(470,656,o),
(407,678,o),
(342,678,cs),
(169,678,o),
(74,560,o),
(74,345,cs),
(74,134,o),
(165,16,o),
(329,16,cs),
(398,16,o),
(470,43,o),
(529,90,c),
(536,87,l),
(534,68,l),
(473,21,o),
(398,-5,o),
(330,-5,cs),
(150,-5,o),
(52,121,o),
(52,346,cs),
(52,460,o),
(77,548,o),
(127,609,cs),
(177,670,o),
(249,700,o),
(342,700,cs)
);
}
);
width = 571;
}
);
leftKerningGroup = C2;
rightKerningGroup = C;
unicode = 67;
},
{
glyphname = D;
layers = (
{
anchors = (
{
name = m.tilde;
position = "{364, 707}";
},
{
name = b.uni049C_2;
position = "{364, 354}";
},
{
name = b.uni0324_4;
position = "{364, 0}";
}
);
layerId = "C8F50A54-17AA-4C4A-B1FA-B4132557993D";
shapes = (
{
closed = 1;
nodes = (
(384,711,ls),
(593,711,o),
(708,595,o),
(708,382,cs),
(708,130,o),
(573,-10,o),
(332,-10,cs),
(297,-10,o),
(252,-10,o),
(204,-7,cs),
(156,-4,o),
(107,-3,o),
(66,0,c),
(254,166,l),
(273,163,o),
(295,159,o),
(317,157,cs),
(339,155,o),
(360,153,o),
(373,153,cs),
(406,153,o),
(431,166,o),
(450,192,cs),
(469,217,o),
(478,263,o),
(478,329,cs),
(478,408,o),
(470,464,o),
(453,495,cs),
(436,526,o),
(407,541,o),
(366,541,cs),
(353,541,o),
(337,539,o),
(319,539,c),
(301,538,o),
(281,537,o),
(262,534,c),
(66,707,l)
);
},
{
closed = 1;
nodes = (
(288,707,l),
(288,0,l),
(66,0,l),
(66,707,l)
);
}
);
width = 726;
},
{
anchors = (
{
name = m.tilde;
position = "{364, 707}";
},
{
name = b.uni049C_2;
position = "{364, 354}";
},
{
name = b.uni0324_4;
position = "{364, 0}";
}
);
layerId = "2113D558-1B9A-4CE5-8522-23A5DC5AE0BB";
shapes = (
{
closed = 1;
nodes = (
(356,704,ls),
(556,704,o),
(666,587,o),
(666,375,cs),
(666,128,o),
(546,-7,o),
(330,-7,cs),
(307,-7,o),
(269,-5,o),
(223,-4,cs),
(177,-3,o),
(131,-1,o),
(100,0,c),
(166,81,l),
(189,78,o),
(227,76,o),
(263,74,cs),
(299,72,o),
(332,71,o),
(345,71,cs),
(416,71,o),
(472,94,o),
(511,141,cs),
(550,188,o),
(570,259,o),
(570,355,cs),
(570,448,o),
(552,516,o),
(515,561,cs),
(478,605,o),
(422,627,o),
(349,627,cs),
(337,627,o),
(303,626,o),
(267,625,cs),
(230,624,o),
(195,622,o),
(179,621,c),
(100,700,l)
);
},
{
closed = 1;
nodes = (
(195,700,l),
(194,0,l),
(99,0,l),
(99,700,l)
);
}
);
width = 707;
},
{
anchors = (
{
name = m.tilde;
position = "{358, 702}";
},
{
name = b.uni049C_2;
position = "{358, 352}";
},
{
name = b.uni0324_4;
position = "{358, 0}";
}
);
layerId = "C039661A-009C-447A-BEE4-4577736CA1DB";
shapes = (
{
closed = 1;
nodes = (
(340,701,l),
(535,701,o),
(643,583,o),
(643,370,cs),
(643,129,o),
(530,-5,o),
(329,-5,cs),
(316,-5,o),
(276,-4,o),
(232,-3,cs),
(188,-2,o),
(145,-1,o),
(120,0,c),
(132,22,l),
(151,21,o),
(191,21,o),
(234,19,cs),
(277,17,o),
(316,16,o),
(329,16,cs),
(423,16,o),
(495,47,o),
(546,108,cs),
(596,169,o),
(621,257,o),
(621,370,cs),
(621,470,o),
(597,547,o),
(549,600,cs),
(500,653,o),
(431,679,o),
(340,679,cs),
(327,679,o),
(285,678,o),
(238,677,cs),
(190,676,o),
(147,674,o),
(132,674,c),
(120,696,l)
);
},
{
closed = 1;
nodes = (
(142,696,l),
(142,0,l),
(120,0,l),
(120,696,l)
);
}
);
width = 696;
}
);
leftKerningGroup = B2;
rightKerningGroup = D;
unicode = 68;
},
{
glyphname = E;
layers = (
{
anchors = (
{
name = m.tilde;
position = "{319, 707}";
},
{
name = b.uni0324_4;
position = "{337, 0}";
},
{
name = m.uni0328_5;
position = "{541, 11}";
}
);
layerId = "C8F50A54-17AA-4C4A-B1FA-B4132557993D";
shapes = (
{
closed = 1;
nodes = (
(288,707,l),
(288,0,l),
(66,0,l),
(66,707,l)
);
},
{
closed = 1;
nodes = (
(565,168,l),
(577,152,l),
(563,0,l),
(212,0,l),
(212,12,l),
(212,168,l)
);
},
{
closed = 1;
nodes = (
(503,442,l),
(515,427,l),
(502,268,l),
(223,271,l),
(223,283,l),
(223,439,l)
);
},
{
closed = 1;
nodes = (
(572,707,l),
(584,691,l),
(570,538,l),
(212,538,l),
(212,550,l),
(212,707,l)
);
}
);
width = 591;
},
{
anchors = (
{
name = m.tilde;
position = "{319, 707}";
},
{
name = b.uni0324_4;
position = "{337, 0}";
},
{
name = m.uni0328_5;
position = "{541, 11}";
}
);
layerId = "2113D558-1B9A-4CE5-8522-23A5DC5AE0BB";
shapes = (
{
closed = 1;
nodes = (
(195,700,l),
(195,0,l),
(99,0,l),
(99,700,l)
);
},
{
closed = 1;
nodes = (
(499,79,l),
(505,70,l),
(498,0,l),
(164,0,l),
(161,8,l),
(164,79,l)
);
},
{
closed = 1;
nodes = (
(438,399,l),
(444,391,l),
(437,318,l),
(167,319,l),
(164,327,l),
(167,397,l)
);
},
{
closed = 1;
nodes = (
(499,700,l),
(505,691,l),
(497,620,l),
(164,620,l),
(161,628,l),
(164,700,l)
);
}
);
width = 530;
},
{
anchors = (
{
name = m.tilde;
position = "{309, 702}";
},
{
name = b.uni0324_4;
position = "{321, 0}";
},
{
name = m.uni0328_5;
position = "{496, 15}";
}
);
layerId = "C039661A-009C-447A-BEE4-4577736CA1DB";
shapes = (
{
closed = 1;
nodes = (
(142,696,l),
(142,0,l),
(120,0,l),
(120,696,l)
);
},
{
closed = 1;
nodes = (
(461,22,l),
(464,17,l),
(460,0,l),
(135,0,l),
(131,4,l),
(135,22,l)
);
},
{
closed = 1;
nodes = (
(402,371,l),
(405,367,l),
(401,349,l),
(135,349,l),
(131,354,l),
(135,371,l)
);
},
{
closed = 1;
nodes = (
(456,696,l),
(460,691,l),
(455,674,l),
(135,674,l),
(131,678,l),
(135,696,l)
);
}
);
width = 496;
}
);
leftKerningGroup = B2;
rightKerningGroup = E;
unicode = 69;
},
{
glyphname = F;
layers = (
{
layerId = "C8F50A54-17AA-4C4A-B1FA-B4132557993D";
shapes = (
{
closed = 1;
nodes = (
(288,707,l),
(288,0,l),
(66,0,l),
(66,707,l)
);
},
{
closed = 1;
nodes = (
(482,415,l),
(494,400,l),
(480,240,l),
(223,244,l),
(223,412,l)
);
},
{
closed = 1;
nodes = (
(537,707,l),
(549,691,l),
(535,538,l),
(212,538,l),
(212,550,l),
(212,707,l)
);
}
);
width = 525;
},
{
layerId = "2113D558-1B9A-4CE5-8522-23A5DC5AE0BB";
shapes = (
{
closed = 1;
nodes = (
(195,700,l),
(195,0,l),
(99,0,l),
(99,700,l)
);
},
{
closed = 1;
nodes = (
(423,386,l),
(429,378,l),
(422,304,l),
(167,306,l),
(167,383,l)
);
},
{
closed = 1;
nodes = (
(477,700,l),
(484,691,l),
(476,620,l),
(163,620,l),
(159,628,l),
(163,700,l)
);
}
);
width = 476;
},
{
layerId = "C039661A-009C-447A-BEE4-4577736CA1DB";
shapes = (
{
closed = 1;
nodes = (
(142,696,l),
(142,0,l),
(120,0,l),
(120,696,l)
);
},
{
closed = 1;
nodes = (
(390,360,l),
(393,356,l),
(389,339,l),
(135,339,l),
(135,360,l)
);
},
{
closed = 1;
nodes = (
(444,696,l),
(448,691,l),
(443,674,l),
(135,674,l),
(131,678,l),
(135,696,l)
);
}
);
width = 449;
}
);
leftKerningGroup = B2;
rightKerningGroup = F;
unicode = 70;
},
{
glyphname = G;
layers = (
{
anchors = (
{
name = bottom;
position = "{322, 0}";
},
{
name = top;
position = "{354, 700}";
}
);
layerId = "C8F50A54-17AA-4C4A-B1FA-B4132557993D";
shapes = (
{
closed = 1;
nodes = (
(160,711,o),
(18,580,o),
(18,335,cs),
(18,115,o),
(132,-13,o),
(361,-13,cs),
(440,-13,o),
(525,2,o),
(610,34,c),
(610,321,l),
(419,307,l),
(419,155,l),
(407,153,o),
(398,150,o),
(380,150,cs),
(276,150,o),
(245,191,o),
(245,346,cs),
(245,501,o),
(277,538,o),
(372,538,cs),
(436,538,o),
(485,521,o),
(551,488,c),
(568,488,l),
(615,679,l),
(561,700,o),
(489,711,o),
(413,711,cs)
);
},
{
closed = 1;
nodes = (
(328,268,l),
(610,271,l),
(610,410,l),
(329,410,l),
(316,283,l)
);
}
);
width = 645;
},
{
anchors = (
{
name = bottom;
position = "{335, 0}";
},
{
name = top;
position = "{356, 700}";
}
);
background = {
shapes = (
{
closed = 1;
nodes = (
(152,647,o),
(37,529,o),
(37,312,cs),
(37,108,o),
(134,-8,o),
(317,-8,c),
(390,-6,o),
(449,4,o),
(534,31,c),
(534,176,l),
(535,266,l),
(456,260,l),
(457,164,l),
(457,80,l),
(400,65,o),
(369,60,o),
(323,60,cs),
(190,60,o),
(125,141,o),
(125,315,cs),
(125,494,o),
(199,577,o),
(343,577,cs),
(399,577,o),
(452,559,o),
(510,526,c),
(520,526,l),
(540,602,l),
(484,631,o),
(419,647,o),
(357,647,cs)
);
}
);
};
layerId = "2113D558-1B9A-4CE5-8522-23A5DC5AE0BB";
shapes = (
{
closed = 1;
nodes = (
(166,707,o),
(40,578,o),
(40,335,cs),
(40,118,o),
(141,-8,o),
(356,-8,cs),
(423,-8,o),
(490,4,o),
(586,34,c),
(586,336,l),
(499,330,l),
(499,97,l),
(437,78,o),
(400,72,o),
(360,72,cs),
(209,72,o),
(138,153,o),
(138,340,cs),
(138,537,o),
(217,628,o),
(369,628,cs),
(435,628,o),
(488,610,o),
(559,567,c),
(570,569,l),
(590,657,l),
(521,692,o),
(455,707,o),
(383,707,cs)
);
},
{
closed = 1;
nodes = (
(307,308,l),
(586,311,l),
(586,392,l),
(308,391,l),
(300,316,l)
);
}
);
width = 655;
},
{
anchors = (
{
name = bottom;
position = "{343, 0}";
},
{
name = top;
position = "{357, 700}";
}
);
layerId = "C039661A-009C-447A-BEE4-4577736CA1DB";
shapes = (
{
closed = 1;
nodes = (
(169,704,o),
(53,575,o),
(53,344,cs),
(53,120,o),
(155,-5,o),
(338,-5,c),
(418,-3,o),
(470,5,o),
(567,33,c),
(567,368,l),
(545,366,l),
(545,49,l),
(454,24,o),
(406,16,o),
(337,16,cs),
(169,16,o),
(75,133,o),
(75,343,cs),
(75,561,o),
(183,682,o),
(377,682,cs),
(435,682,o),
(500,661,o),
(560,625,c),
(568,625,l),
(574,645,l),
(510,683,o),
(439,704,o),
(377,704,cs)
);
},
{
closed = 1;
nodes = (
(278,351,l),
(567,351,l),
(567,373,l),
(279,373,l),
(275,356,l)
);
}
);
width = 662;
}
);
leftKerningGroup = C2;
rightKerningGroup = G;
unicode = 71;
},
{
glyphname = H;
layers = (
{
anchors = (
{
name = m.tilde;
position = "{389, 707}";
},
{
name = b.tailcy_1;
position = "{497, 0}";
},
{
name = b.uni049C_2;
position = "{389, 354}";
},
{
name = b.uni0324_4;
position = "{389, 0}";
},
{
name = t.uni1FDF.case_6;
position = "{22, 707}";
}
);
layerId = "C8F50A54-17AA-4C4A-B1FA-B4132557993D";
shapes = (
{
closed = 1;
nodes = (
(720,707,l),
(720,0,l),
(497,0,l),
(497,707,l)
);
},
{
closed = 1;
nodes = (
(298,707,l),
(298,0,l),
(75,0,l),
(75,707,l)
);
},
{
closed = 1;
nodes = (
(264,440,l),
(521,439,l),
(521,262,l),
(264,262,l)
);
}
);
width = 776;
},
{
anchors = (
{
name = m.tilde;
position = "{389, 707}";
},
{
name = b.tailcy_1;
position = "{497, 0}";
},
{
name = b.uni049C_2;
position = "{389, 354}";
},
{
name = b.uni0324_4;
position = "{389, 0}";
},
{
name = t.uni1FDF.case_6;
position = "{22, 707}";
}
);
layerId = "2113D558-1B9A-4CE5-8522-23A5DC5AE0BB";
shapes = (
{
closed = 1;
nodes = (
(648,700,l),
(648,0,l),
(553,0,l),
(553,700,l)
);
},
{
closed = 1;
nodes = (
(194,700,l),
(194,0,l),
(100,0,l),
(100,700,l)
);
},
{
closed = 1;
nodes = (
(178,392,l),
(568,392,l),
(568,313,l),
(178,313,l)
);
}
);
width = 748;
},
{
anchors = (
{
name = m.tilde;
position = "{380, 702}";
},
{
name = b.tailcy_1;
position = "{534, 0}";
},
{
name = b.uni049C_2;
position = "{380, 352}";
},
{
name = b.uni0324_4;
position = "{380, 0}";
},
{
name = t.uni1FDF.case_6;
position = "{22, 702}";
}
);
layerId = "C039661A-009C-447A-BEE4-4577736CA1DB";
shapes = (
{
closed = 1;
nodes = (
(612,696,l),
(612,0,l),
(590,0,l),
(590,696,l)
);
},
{
closed = 1;
nodes = (
(142,696,l),
(142,0,l),
(120,0,l),
(120,696,l)
);
},
{
closed = 1;
nodes = (
(135,365,l),
(600,365,l),
(600,343,l),
(135,343,l)
);
}
);
width = 732;
}
);
leftKerningGroup = B2;
rightKerningGroup = H;
unicode = 72;
},
{
glyphname = I;
layers = (
{
anchors = (
{
name = m.tilde;
position = "{177, 707}";
},
{
name = m.uni0328_5;
position = "{285, 0}";
}
);
layerId = "C8F50A54-17AA-4C4A-B1FA-B4132557993D";
shapes = (
{
closed = 1;
nodes = (
(288,707,l),
(288,0,l),
(66,0,l),
(66,707,l)
);
}
);
width = 357;
},
{
anchors = (
{
name = m.tilde;
position = "{177, 707}";
},
{
name = m.uni0328_5;
position = "{285, 0}";
}
);
layerId = "2113D558-1B9A-4CE5-8522-23A5DC5AE0BB";
shapes = (
{
closed = 1;
nodes = (
(195,700,l),
(195,0,l),
(99,0,l),
(99,700,l)
);
}
);
width = 296;
},
{
anchors = (
{
name = m.tilde;
position = "{161, 702}";
},
{
name = m.uni0328_5;
position = "{233, 0}";
}
);
layerId = "C039661A-009C-447A-BEE4-4577736CA1DB";
shapes = (
{
closed = 1;
nodes = (
(142,696,l),
(142,0,l),
(120,0,l),
(120,696,l)
);
}
);
width = 262;
}
);
leftKerningGroup = B2;
rightKerningGroup = H;
unicode = 73;
},
{
glyphname = J;
layers = (
{
anchors = (
{
name = top;
position = "{346, 700}";
}
);
layerId = "C8F50A54-17AA-4C4A-B1FA-B4132557993D";
shapes = (
{
closed = 1;
nodes = (
(353,-12,o),
(448,62,o),
(448,242,cs),
(448,700,l),
(246,700,l),
(246,204,ls),
(246,160,o),
(221,151,o),
(193,151,cs),
(161,151,o),
(116,163,o),
(49,195,c),
(35,185,l),
(-11,25,l),
(60,0,o),
(120,-12,o),
(184,-12,cs)
);
}
);
width = 519;
},
{
anchors = (
{
name = top;
position = "{320, 700}";
}
);
background = {
shapes = (
{
closed = 1;
nodes = (
(229,641,l),
(235,193,l),
(229,0,l),
(316,0,l),
(312,200,l),
(317,641,l)
);
}
);
};
layerId = "2113D558-1B9A-4CE5-8522-23A5DC5AE0BB";
shapes = (
{
closed = 1;
nodes = (
(294,-8,o),
(362,59,o),
(362,186,cs),
(362,700,l),
(277,700,l),
(277,180,ls),
(277,103,o),
(237,68,o),
(172,68,cs),
(136,68,o),
(100,75,o),
(57,94,c),
(51,88,l),
(37,8,l),
(81,-3,o),
(125,-8,o),
(165,-8,cs)
);
}
);
width = 467;
},
{
anchors = (
{
name = top;
position = "{309, 700}";
}
);
layerId = "C039661A-009C-447A-BEE4-4577736CA1DB";
shapes = (
{
closed = 1;
nodes = (
(259,-4,o),
(320,58,o),
(320,165,cs),
(320,700,l),
(298,700,l),
(298,165,ls),
(298,70,o),
(246,18,o),
(154,18,cs),
(117,18,o),
(85,23,o),
(61,35,c),
(58,33,l),
(56,12,l),
(92,1,o),
(129,-4,o),
(158,-4,cs)
);
}
);
width = 439;
}
);
leftKerningGroup = J;
rightKerningGroup = H;
unicode = 74;
},
{
glyphname = K;
layers = (
{
anchors = (
{
name = m.tilde;
position = "{343, 707}";
},
{
name = b.tailcy_1;
position = "{461, 0}";
},
{
name = b.uni0324_4;
position = "{343, 0}";
}
);
layerId = "C8F50A54-17AA-4C4A-B1FA-B4132557993D";
shapes = (
{
closed = 1;
nodes = (
(685,707,l),
(477,372,l),
(549,261,o),
(626,153,o),
(707,46,c),
(703,22,l),
(631,6,o),
(557,-6,o),
(485,-13,c),
(461,0,l),
(390,120,o),
(323,239,o),
(259,363,c),
(259,376,l),
(453,707,l)
);
},
{
closed = 1;
nodes = (
(288,707,l),
(288,0,l),
(66,0,l),
(66,707,l)
);
}
);
width = 686;
},
{
anchors = (
{
name = m.tilde;
position = "{343, 707}";
},
{
name = b.tailcy_1;
position = "{461, 0}";
},
{
name = b.uni0324_4;
position = "{343, 0}";
}
);
layerId = "2113D558-1B9A-4CE5-8522-23A5DC5AE0BB";
shapes = (
{
closed = 1;
nodes = (
(583,700,l),
(302,371,l),
(394,252,o),
(498,131,o),
(603,20,c),
(602,9,l),
(574,0,o),
(542,-6,o),
(513,-10,c),
(501,-4,l),
(400,115,o),
(297,239,o),
(204,367,c),
(204,373,l),
(478,700,l)
);
},
{
closed = 1;
nodes = (
(194,700,l),
(193,0,l),
(100,0,l),
(100,700,l)
);
}
);
width = 602;
},
{
anchors = (
{
name = m.tilde;
position = "{319, 702}";
},
{
name = b.tailcy_1;
position = "{484, -2}";
},
{
name = b.uni0324_4;
position = "{328, 0}";
}
);
layerId = "C039661A-009C-447A-BEE4-4577736CA1DB";
shapes = (
{
closed = 1;
nodes = (
(526,696,l),
(203,371,l),
(307,246,o),
(425,118,o),
(544,5,c),
(544,1,l),
(541,-3,o),
(534,-4,o),
(529,-8,c),
(524,-7,l),
(404,112,o),
(281,240,o),
(174,369,c),
(174,372,l),
(492,696,l)
);
},
{
closed = 1;
nodes = (
(142,696,l),
(142,0,l),
(120,0,l),
(120,696,l)
);
}
);
width = 554;
}
);
leftKerningGroup = B2;
rightKerningGroup = K;
unicode = 75;
},
{
glyphname = L;
layers = (
{
anchors = (
{
name = m.tilde;
position = "{178, 707}";
},
{
name = b.uni0324_4;
position = "{253, 0}";
}
);
layerId = "C8F50A54-17AA-4C4A-B1FA-B4132557993D";
shapes = (
{
closed = 1;
nodes = (
(283,707,l),
(283,0,l),
(60,0,l),
(60,707,l)
);
},
{
closed = 1;
nodes = (
(482,179,l),
(494,164,l),
(480,0,l),
(195,0,l),
(195,12,l),
(195,179,l)
);
}
);
width = 494;
},
{
anchors = (
{
name = m.tilde;
position = "{178, 707}";
},
{
name = b.uni0324_4;
position = "{253, 0}";
}
);
layerId = "2113D558-1B9A-4CE5-8522-23A5DC5AE0BB";
shapes = (
{
closed = 1;
nodes = (
(192,700,l),
(192,0,l),
(96,0,l),
(96,700,l)
);
},
{
closed = 1;
nodes = (
(447,79,l),
(453,70,l),
(446,0,l),
(155,0,l),
(152,8,l),
(155,79,l)
);
}
);
width = 456;
},
{
anchors = (
{
name = m.tilde;
position = "{161, 702}";
},
{
name = b.uni0324_4;
position = "{254, 0}";
}
);
layerId = "C039661A-009C-447A-BEE4-4577736CA1DB";
shapes = (
{
closed = 1;
nodes = (
(141,696,l),
(141,0,l),
(119,0,l),
(119,696,l)
);
},
{
closed = 1;
nodes = (
(426,22,l),
(429,17,l),
(425,0,l),
(131,0,l),
(127,4,l),
(131,22,l)
);
}
);
width = 435;
}
);
leftKerningGroup = B2;
rightKerningGroup = L;
unicode = 76;
},
{
glyphname = M;
layers = (
{
anchors = (
{
name = m.tilde;
position = "{440, 707}";
},
{
name = b.uni0324_4;
position = "{440, 0}";
}
);
layerId = "C8F50A54-17AA-4C4A-B1FA-B4132557993D";
shapes = (
{
closed = 1;
nodes = (
(788,707,l),
(845,0,l),
(653,0,l),
(636,392,l),
(622,392,l),
(509,67,l),
(344,67,l),
(250,392,l),
(237,392,l),
(211,0,l),
(28,0,l),
(97,707,l),
(349,707,l),
(432,349,l),
(446,349,l),
(539,707,l)
);
}
);
width = 880;
},
{
anchors = (
{
name = m.tilde;
position = "{440, 707}";
},
{
name = b.uni0324_4;
position = "{440, 0}";
}
);
layerId = "2113D558-1B9A-4CE5-8522-23A5DC5AE0BB";
shapes = (
{
closed = 1;
nodes = (
(729,700,l),
(797,0,l),
(713,0,l),
(662,554,l),
(654,554,l),
(463,80,l),
(387,80,l),
(206,554,l),
(198,554,l),
(143,0,l),
(63,0,l),
(137,700,l),
(244,700,l),
(426,202,l),
(434,202,l),
(624,700,l)
);
}
);
width = 863;
},
{
anchors = (
{
name = m.tilde;
position = "{436, 702}";
},
{
name = b.uni0324_4;
position = "{436, 0}";
}
);
layerId = "C039661A-009C-447A-BEE4-4577736CA1DB";
shapes = (
{
closed = 1;
nodes = (
(696,696,l),
(770,0,l),
(747,0,l),
(677,643,l),
(672,643,l),
(438,88,l),
(411,88,l),
(181,643,l),
(176,643,l),
(106,0,l),
(83,0,l),
(159,696,l),
(185,696,l),
(422,120,l),
(426,120,l),
(670,696,l)
);
}
);
width = 853;
}
);
leftKerningGroup = M2;
rightKerningGroup = M;
unicode = 77;
},
{
glyphname = N;
layers = (
{
anchors = (
{
name = m.tilde;
position = "{388, 707}";
},
{
name = b.uni0324_4;
position = "{388, 0}";
}
);
layerId = "C8F50A54-17AA-4C4A-B1FA-B4132557993D";
shapes = (
{
closed = 1;
nodes = (
(710,711,l),
(710,0,l),
(468,0,l),
(270,378,l),
(257,378,l),
(257,0,l),
(66,0,l),
(66,707,l),
(304,707,l),
(502,329,l),
(515,329,l),
(515,699,l)
);
}
);
width = 775;
},
{
anchors = (
{
name = m.tilde;
position = "{388, 707}";
},
{
name = b.uni0324_4;
position = "{388, 0}";
}
);
layerId = "2113D558-1B9A-4CE5-8522-23A5DC5AE0BB";
shapes = (
{
closed = 1;
nodes = (
(648,702,l),
(644,0,l),
(545,0,l),
(191,551,l),
(185,551,l),
(186,0,l),
(100,0,l),
(102,700,l),
(200,700,l),
(554,149,l),
(561,149,l),
(560,696,l)
);
}
);
width = 747;
},
{
anchors = (
{
name = m.tilde;
position = "{378, 702}";
},
{
name = b.uni0324_4;
position = "{378, 0}";
}
);
layerId = "C039661A-009C-447A-BEE4-4577736CA1DB";
shapes = (
{
closed = 1;
nodes = (
(612,697,l),
(609,0,l),
(589,0,l),
(147,650,l),
(143,650,l),
(142,0,l),
(120,0,l),
(121,696,l),
(142,696,l),
(583,46,l),
(587,46,l),
(590,695,l)
);
}
);
width = 732;
}
);
leftKerningGroup = B2;
rightKerningGroup = H;
unicode = 78;
},
{
glyphname = O;
layers = (
{
anchors = (
{
name = m.tilde;
position = "{357, 707}";
},
{
name = b.uni049C_2;
position = "{357, 354}";
},
{
name = m.uni031B_3;
position = "{691, 707}";
},
{
name = b.uni0324_4;
position = "{357, 0}";
},
{
name = m.uni0328_5;
position = "{545, 50}";
},
{
name = t.uni1FDF.case_6;
position = "{22, 707}";
}
);
layerId = "C8F50A54-17AA-4C4A-B1FA-B4132557993D";
shapes = (
{
closed = 1;
nodes = (
(475,720,o),
(554,690,o),
(611,629,cs),
(667,568,o),
(695,482,o),
(695,371,cs),
(695,249,o),
(664,155,o),
(603,88,cs),
(541,21,o),
(454,-13,o),
(341,-13,cs),
(238,-13,o),
(159,18,o),
(103,80,cs),
(47,142,o),
(19,229,o),
(19,341,cs),
(19,462,o),
(50,555,o),
(112,621,cs),
(173,687,o),
(260,720,o),
(372,720,cs)
);
},
{
closed = 1;
nodes = (
(326,545,o),
(304,540,o),
(289,530,cs),
(258,510,o),
(248,463,o),
(248,370,cs),
(248,311,o),
(251,266,o),
(258,234,cs),
(271,170,o),
(303,149,o),
(360,149,cs),
(388,149,o),
(410,154,o),
(425,164,cs),
(455,183,o),
(465,231,o),
(465,324,cs),
(465,383,o),
(462,429,o),
(456,461,cs),
(443,524,o),
(412,545,o),
(353,545,cs)
);
}
);
width = 713;
},
{
anchors = (
{
name = m.tilde;
position = "{357, 707}";
},
{
name = b.uni049C_2;
position = "{357, 354}";
},
{
name = m.uni031B_3;
position = "{691, 707}";
},
{
name = b.uni0324_4;
position = "{357, 0}";
},
{
name = m.uni0328_5;
position = "{545, 50}";
},
{
name = t.uni1FDF.case_6;
position = "{22, 707}";
}
);
layerId = "2113D558-1B9A-4CE5-8522-23A5DC5AE0BB";
shapes = (
{
closed = 1;
nodes = (
(452,708,o),
(526,678,o),
(578,619,cs),
(629,560,o),
(655,475,o),
(655,364,cs),
(655,245,o),
(628,154,o),
(573,89,cs),
(518,24,o),
(439,-9,o),
(337,-9,cs),
(242,-9,o),
(169,22,o),
(118,84,cs),
(66,145,o),
(40,232,o),
(40,344,cs),
(40,461,o),
(67,551,o),
(122,614,cs),
(177,677,o),
(255,708,o),
(356,708,cs)
);
},
{
closed = 1;
nodes = (
(302,631,o),
(262,621,o),
(231,601,cs),
(167,561,o),
(137,480,o),
(137,355,cs),
(137,289,o),
(145,235,o),
(160,192,cs),
(190,106,o),
(252,64,o),
(345,64,cs),
(392,64,o),
(432,74,o),
(464,95,cs),
(527,136,o),
(558,219,o),
(558,346,cs),
(558,411,o),
(550,465,o),
(535,507,cs),
(504,591,o),
(442,631,o),
(349,631,cs)
);
}
);
width = 695;
},
{
anchors = (
{
name = m.tilde;
position = "{352, 702}";
},
{
name = b.uni049C_2;
position = "{353, 352}";
},
{
name = m.uni031B_3;
position = "{681, 702}";
},
{
name = b.uni0324_4;
position = "{353, 0}";
},
{
name = m.uni0328_5;
position = "{514, 41}";
},
{
name = t.uni1FDF.case_6;
position = "{22, 702}";
}
);
layerId = "C039661A-009C-447A-BEE4-4577736CA1DB";
shapes = (
{
closed = 1;
nodes = (
(439,701,o),
(510,672,o),
(559,613,cs),
(608,554,o),
(632,469,o),
(632,359,cs),
(632,242,o),
(607,152,o),
(556,89,cs),
(505,26,o),
(431,-5,o),
(336,-5,cs),
(245,-5,o),
(175,25,o),
(126,86,cs),
(77,147,o),
(52,233,o),
(52,346,cs),
(52,461,o),
(78,549,o),
(129,610,cs),
(180,671,o),
(252,701,o),
(347,701,cs)
);
},
{
closed = 1;
nodes = (
(288,679,o),
(239,666,o),
(199,641,cs),
(118,589,o),
(74,489,o),
(74,346,cs),
(74,275,o),
(84,216,o),
(105,167,cs),
(145,69,o),
(224,16,o),
(336,16,cs),
(395,16,o),
(445,29,o),
(486,56,cs),
(567,109,o),
(610,212,o),
(610,359,cs),
(610,428,o),
(600,486,o),
(580,534,cs),
(539,629,o),
(460,679,o),
(347,679,cs)
);
}
);
width = 685;
}
);
leftKerningGroup = C2;
rightKerningGroup = D;
unicode = 79;
},
{
glyphname = P;
layers = (
{
layerId = "C8F50A54-17AA-4C4A-B1FA-B4132557993D";
shapes = (
{
closed = 1;
nodes = (
(401,708,ls),
(560,708,o),
(648,627,o),
(648,483,cs),
(648,427,o),
(635,378,o),
(608,335,cs),
(555,250,o),
(458,200,o),
(331,200,cs),
(143,200,l),
(143,365,l),
(361,353,l),
(401,374,o),
(418,406,o),
(418,461,cs),
(418,525,o),
(388,553,o),
(323,556,c),
(194,546,l),
(66,707,l)
);
},
{
closed = 1;
nodes = (
(288,707,l),
(288,0,l),
(66,0,l),
(66,707,l)
);
}
);
width = 648;
},
{
layerId = "2113D558-1B9A-4CE5-8522-23A5DC5AE0BB";
shapes = (
{
closed = 1;
nodes = (
(320,701,ls),
(459,701,o),
(535,628,o),
(535,495,cs),
(535,443,o),
(525,398,o),
(504,361,cs),
(462,286,o),
(383,244,o),
(272,244,cs),
(135,244,l),
(135,322,l),
(305,319,l),
(392,334,o),
(439,391,o),
(439,487,cs),
(439,579,o),
(390,621,o),
(297,625,c),
(151,620,l),
(100,700,l)
);
},
{
closed = 1;
nodes = (
(195,700,l),
(195,0,l),
(99,0,l),
(99,700,l)
);
}
);
width = 571;
},
{
layerId = "C039661A-009C-447A-BEE4-4577736CA1DB";
shapes = (
{
closed = 1;
nodes = (
(274,698,ls),
(401,698,o),
(472,627,o),
(472,502,cs),
(472,453,o),
(463,411,o),
(445,377,cs),
(409,308,o),
(339,272,o),
(239,272,cs),
(131,272,l),
(131,294,l),
(272,294,l),
(387,305,o),
(450,383,o),
(450,502,cs),
(450,610,o),
(390,672,o),
(282,676,c),
(127,675,l),
(120,696,l)
);
},
{
closed = 1;
nodes = (
(142,696,l),
(142,0,l),
(120,0,l),
(120,696,l)
);
}
);
width = 529;
}
);
leftKerningGroup = B2;
rightKerningGroup = P;
unicode = 80;
},
{
glyphname = Q;
layers = (
{
layerId = "C8F50A54-17AA-4C4A-B1FA-B4132557993D";
shapes = (
{
closed = 1;
nodes = (
(146,713,o),
(19,576,o),
(19,338,cs),
(19,115,o),
(134,-13,o),
(338,-13,cs),
(560,-13,o),
(688,126,o),
(688,367,cs),
(688,587,o),
(572,713,o),
(368,713,cs)
);
},
{
closed = 1;
nodes = (
(329,10,l),
(417,-68,o),
(517,-140,o),
(617,-208,c),
(633,-200,l),
(677,-161,o),
(709,-116,o),
(736,-62,c),
(728,-43,l),
(643,-8,o),
(561,34,o),
(478,80,c)
);
},
{
closed = 1;
nodes = (
(436,540,o),
(461,495,o),
(461,321,cs),
(461,183,o),
(437,148,o),
(356,148,cs),
(270,148,o),
(245,191,o),
(245,366,cs),
(245,504,o),
(269,540,o),
(350,540,cs)
);
}
);
width = 715;
},
{
background = {
shapes = (
{
closed = 1;
nodes = (
(323,3,l),
(427,-92,o),
(554,-160,o),
(686,-193,c),
(694,-190,l),
(710,-175,o),
(724,-156,o),
(737,-130,c),
(734,-119,l),
(607,-97,o),
(485,-44,o),
(384,32,c)
);
}
);
};
layerId = "2113D558-1B9A-4CE5-8522-23A5DC5AE0BB";
shapes = (
{
closed = 1;
nodes = (
(154,708,o),
(40,578,o),
(40,344,cs),
(40,119,o),
(146,-9,o),
(341,-9,cs),
(541,-9,o),
(655,128,o),
(655,360,cs),
(655,585,o),
(548,708,o),
(357,708,cs)
);
},
{
closed = 1;
nodes = (
(353,3,l),
(432,-80,o),
(530,-145,o),
(652,-205,c),
(661,-202,l),
(677,-186,o),
(691,-164,o),
(704,-137,c),
(701,-126,l),
(581,-82,o),
(491,-31,o),
(419,35,c)
);
},
{
closed = 1;
nodes = (
(488,630,o),
(558,541,o),
(558,353,cs),
(558,161,o),
(485,69,o),
(346,69,cs),
(206,69,o),
(137,162,o),
(137,352,cs),
(137,541,o),
(205,630,o),
(347,630,cs)
);
}
);
width = 699;
},
{
layerId = "C039661A-009C-447A-BEE4-4577736CA1DB";
shapes = (
{
closed = 1;
nodes = (
(158,705,o),
(52,577,o),
(52,348,cs),
(52,121,o),
(155,-5,o),
(338,-5,cs),
(529,-5,o),
(636,125,o),
(636,361,cs),
(636,582,o),
(534,705,o),
(349,705,cs)
);
},
{
closed = 1;
nodes = (
(366,-1,l),
(434,-91,o),
(530,-154,o),
(671,-203,c),
(677,-203,l),
(677,-203,o),
(680,-199,o),
(685,-190,c),
(685,-183,l),
(545,-134,o),
(451,-73,o),
(385,10,c)
);
},
{
closed = 1;
nodes = (
(520,683,o),
(613,568,o),
(613,361,cs),
(613,140,o),
(515,16,o),
(338,16,cs),
(169,16,o),
(74,135,o),
(74,348,cs),
(74,563,o),
(172,683,o),
(349,683,cs)
);
}
);
width = 690;
}
);
leftKerningGroup = C2;
rightKerningGroup = D;
unicode = 81;
},
{
glyphname = R;
layers = (
{
anchors = (
{
name = m.tilde;
position = "{345, 707}";
},
{
name = b.uni0324_4;
position = "{345, 0}";
}
);
layerId = "C8F50A54-17AA-4C4A-B1FA-B4132557993D";
shapes = (
{
closed = 1;
nodes = (
(401,708,ls),
(560,708,o),
(649,630,o),
(649,489,cs),
(649,446,o),
(638,405,o),
(615,367,cs),
(569,290,o),
(483,234,o),
(372,211,c),
(143,211,l),
(143,378,l),
(359,366,l),
(402,385,o),
(418,415,o),
(418,467,cs),
(418,527,o),
(390,553,o),
(323,556,c),
(194,546,l),
(66,707,l)
);
},
{
closed = 1;
nodes = (
(288,707,l),
(288,0,l),
(66,0,l),
(66,707,l)
);
},
{
closed = 1;
nodes = (
(506,318,l),
(562,229,o),
(623,139,o),
(688,51,c),
(685,27,l),
(613,6,o),
(541,-9,o),
(465,-13,c),
(444,4,l),
(399,105,o),
(349,209,o),
(308,316,c)
);
}
);
width = 689;
},
{
anchors = (
{
name = m.tilde;
position = "{345, 707}";
},
{
name = b.uni0324_4;
position = "{345, 0}";
}
);
layerId = "2113D558-1B9A-4CE5-8522-23A5DC5AE0BB";
shapes = (
{
closed = 1;
nodes = (
(320,701,ls),
(459,701,o),
(536,629,o),
(536,500,cs),
(536,461,o),
(528,425,o),
(511,392,cs),
(477,327,o),
(413,279,o),
(324,258,c),
(135,258,l),
(135,337,l),
(320,333,l),
(397,357,o),
(439,408,o),
(439,492,cs),
(439,581,o),
(390,621,o),
(297,625,c),
(151,620,l),
(100,700,l)
);
},
{
closed = 1;
nodes = (
(195,700,l),
(195,0,l),
(99,0,l),
(99,700,l)
);
},
{
closed = 1;
nodes = (
(378,308,l),
(438,211,o),
(502,117,o),
(573,22,c),
(572,11,l),
(544,0,o),
(516,-7,o),
(485,-10,c),
(473,-2,l),
(408,98,o),
(345,202,o),
(289,307,c)
);
}
);
width = 610;
},
{
anchors = (
{
name = m.tilde;
position = "{322, 702}";
},
{
name = b.uni0324_4;
position = "{322, 0}";
}
);
layerId = "C039661A-009C-447A-BEE4-4577736CA1DB";
shapes = (
{
closed = 1;
nodes = (
(274,698,ls),
(401,698,o),
(472,631,o),
(472,507,cs),
(472,470,o),
(465,436,o),
(452,407,cs),
(424,348,o),
(373,307,o),
(297,287,c),
(131,287,l),
(131,309,l),
(297,309,l),
(396,334,o),
(450,404,o),
(450,507,cs),
(450,614,o),
(390,675,o),
(282,675,cs),
(127,675,l),
(120,696,l)
);
},
{
closed = 1;
nodes = (
(142,696,l),
(142,0,l),
(120,0,l),
(120,696,l)
);
},
{
closed = 1;
nodes = (
(305,302,l),
(366,201,o),
(434,104,o),
(509,5,c),
(509,1,l),
(505,-3,o),
(501,-4,o),
(496,-8,c),
(489,-5,l),
(413,95,o),
(343,198,o),
(278,302,c)
);
}
);
width = 566;
}
);
leftKerningGroup = B2;
rightKerningGroup = R;
unicode = 82;
},
{
glyphname = S;
layers = (
{
anchors = (
{
name = m.tilde;
position = "{300, 707}";
},
{
name = b.uni0324_4;
position = "{278, 0}";
}
);
layerId = "C8F50A54-17AA-4C4A-B1FA-B4132557993D";
shapes = (
{
closed = 1;
nodes = (
(392,720,o),
(463,710,o),
(538,681,c),
(503,503,l),
(473,490,l),
(410,529,o),
(346,551,o),
(310,551,cs),
(299,551,o),
(289,550,o),
(281,547,cs),
(265,541,o),
(256,530,o),
(256,515,cs),
(256,502,o),
(263,490,o),
(277,480,cs),
(305,459,o),
(354,442,o),
(404,419,cs),
(429,407,o),
(452,393,o),
(475,376,cs),
(520,343,o),
(551,294,o),
(551,225,cs),
(551,181,o),
(539,141,o),
(515,105,cs),
(467,33,o),
(376,-13,o),
(253,-13,cs),
(180,-13,o),
(101,1,o),
(20,28,c),
(51,218,l),
(73,232,l),
(109,205,o),
(146,184,o),
(184,170,cs),
(222,156,o),
(253,149,o),
(276,149,cs),
(291,149,o),
(303,151,o),
(312,154,c),
(328,161,o),
(334,173,o),
(334,185,cs),
(334,199,o),
(327,211,o),
(313,222,cs),
(285,243,o),
(238,260,o),
(188,283,cs),
(163,294,o),
(139,309,o),
(117,326,cs),
(72,360,o),
(40,406,o),
(40,477,cs),
(40,524,o),
(53,565,o),
(78,602,cs),
(128,674,o),
(218,720,o),
(333,720,cs)
);
}
);
width = 577;
},
{
anchors = (
{
name = m.tilde;
position = "{300, 707}";
},
{
name = b.uni0324_4;
position = "{278, 0}";
}
);
layerId = "2113D558-1B9A-4CE5-8522-23A5DC5AE0BB";
shapes = (
{
closed = 1;
nodes = (
(335,707,o),
(392,697,o),
(452,673,c),
(437,583,l),
(422,578,l),
(379,611,o),
(329,630,o),
(282,630,cs),
(255,630,o),
(231,625,o),
(212,614,cs),
(173,592,o),
(154,556,o),
(154,521,cs),
(154,498,o),
(162,479,o),
(177,463,cs),
(208,431,o),
(260,407,o),
(314,383,c),
(341,370,o),
(366,356,o),
(391,339,cs),
(439,306,o),
(473,263,o),
(473,194,cs),
(473,158,o),
(463,125,o),
(444,94,cs),
(404,32,o),
(331,-8,o),
(235,-8,cs),
(174,-8,o),
(105,8,o),
(45,40,c),
(57,138,l),
(69,143,l),
(96,116,o),
(126,97,o),
(158,86,c),
(189,74,o),
(218,68,o),
(245,68,cs),
(273,68,o),
(297,73,o),
(318,84,cs),
(358,105,o),
(380,144,o),
(380,181,cs),
(380,205,o),
(372,225,o),
(357,242,c),
(326,274,o),
(276,299,o),
(221,324,cs),
(194,336,o),
(168,350,o),
(144,366,cs),
(96,398,o),
(62,442,o),
(62,509,cs),
(62,546,o),
(72,580,o),
(92,610,cs),
(131,669,o),
(202,707,o),
(294,707,cs)
);
}
);
width = 519;
},
{
anchors = (
{
name = m.tilde;
position = "{283, 702}";
},
{
name = b.uni0324_4;
position = "{261, 0}";
}
);
layerId = "C039661A-009C-447A-BEE4-4577736CA1DB";
shapes = (
{
closed = 1;
nodes = (
(302,699,o),
(351,692,o),
(402,667,c),
(397,648,l),
(390,646,l),
(347,669,o),
(301,677,o),
(266,677,cs),
(229,677,o),
(198,669,o),
(173,654,cs),
(121,622,o),
(94,572,o),
(94,524,cs),
(94,496,o),
(102,473,o),
(118,454,cs),
(150,416,o),
(203,389,o),
(260,363,cs),
(288,350,o),
(315,335,o),
(340,319,cs),
(391,287,o),
(426,244,o),
(426,177,cs),
(426,145,o),
(417,115,o),
(400,88,cs),
(364,32,o),
(303,-4,o),
(223,-4,cs),
(168,-4,o),
(104,14,o),
(57,47,c),
(58,68,l),
(63,70,l),
(86,52,o),
(113,39,o),
(142,30,cs),
(171,21,o),
(197,17,o),
(222,17,cs),
(259,17,o),
(292,25,o),
(319,41,cs),
(373,72,o),
(404,125,o),
(404,177,cs),
(404,207,o),
(396,232,o),
(380,252,cs),
(348,292,o),
(295,321,o),
(238,346,cs),
(209,359,o),
(183,373,o),
(158,389,cs),
(108,420,o),
(72,462,o),
(72,527,cs),
(72,558,o),
(80,587,o),
(97,613,cs),
(129,665,o),
(192,699,o),
(269,699,cs)
);
}
);
width = 486;
}
);
leftKerningGroup = S2;
rightKerningGroup = S;
unicode = 83;
},
{
glyphname = T;
layers = (
{
anchors = (
{
name = m.tilde;
position = "{285, 707}";
},
{
name = b.uni049C_2;
position = "{285, 354}";
},
{
name = b.uni0324_4;
position = "{285, 0}";
}
);
layerId = "C8F50A54-17AA-4C4A-B1FA-B4132557993D";
shapes = (
{
closed = 1;
nodes = (
(394,685,l),
(394,0,l),
(179,0,l),
(179,685,l)
);
},
{
closed = 1;
nodes = (
(548,707,l),
(560,691,l),
(548,538,l),
(22,538,l),
(9,553,l),
(21,707,l)
);
}
);
width = 567;
},
{
anchors = (
{
name = m.tilde;
position = "{285, 707}";
},
{
name = b.uni049C_2;
position = "{285, 354}";
},
{
name = b.uni0324_4;
position = "{285, 0}";
}
);
layerId = "2113D558-1B9A-4CE5-8522-23A5DC5AE0BB";
shapes = (
{
closed = 1;
nodes = (
(318,689,l),
(318,0,l),
(222,0,l),
(222,689,l)
);
},
{
closed = 1;
nodes = (
(508,700,l),
(514,691,l),
(508,626,l),
(29,626,l),
(23,635,l),
(31,700,l)
);
}
);
width = 536;
},
{
anchors = (
{
name = m.tilde;
position = "{277, 702}";
},
{
name = b.uni049C_2;
position = "{277, 352}";
},
{
name = b.uni0324_4;
position = "{273, 0}";
}
);
layerId = "C039661A-009C-447A-BEE4-4577736CA1DB";
shapes = (
{
closed = 1;
nodes = (
(271,685,l),
(271,0,l),
(249,0,l),
(249,685,l)
);
},
{
closed = 1;
nodes = (
(485,696,l),
(488,691,l),
(484,674,l),
(34,674,l),
(31,678,l),
(35,696,l)
);
}
);
width = 519;
}
);
leftKerningGroup = T2;
rightKerningGroup = T;
unicode = 84;
},
{
glyphname = U;
layers = (
{
anchors = (
{
name = m.tilde;
position = "{357, 707}";
},
{
name = m.uni0328_5;
position = "{566, 54}";
}
);
layerId = "C8F50A54-17AA-4C4A-B1FA-B4132557993D";
shapes = (
{
closed = 1;
nodes = (
(654,707,l),
(654,236,ls),
(654,76,o),
(544,-13,o),
(345,-13,cs),
(154,-13,o),
(54,76,o),
(54,236,cs),
(54,707,l),
(260,707,l),
(260,265,ls),
(260,192,o),
(287,159,o),
(354,159,cs),
(422,159,o),
(450,192,o),
(450,265,cs),
(450,707,l)
);
}
);
width = 713;
},
{
anchors = (
{
name = m.tilde;
position = "{357, 707}";
},
{
name = m.uni0328_5;
position = "{566, 54}";
}
);
layerId = "2113D558-1B9A-4CE5-8522-23A5DC5AE0BB";
shapes = (
{
closed = 1;
nodes = (
(603,700,l),
(603,266,l),
(606,94,o),
(507,-8,o),
(334,-8,cs),
(169,-8,o),
(77,88,o),
(80,257,cs),
(80,700,l),
(168,700,l),
(168,269,ls),
(168,138,o),
(227,74,o),
(342,74,cs),
(457,74,o),
(517,134,o),
(517,257,cs),
(517,700,l)
);
}
);
width = 685;
},
{
anchors = (
{
name = m.tilde;
position = "{351, 702}";
},
{
name = m.uni0328_5;
position = "{530, 45}";
}
);
layerId = "C039661A-009C-447A-BEE4-4577736CA1DB";
shapes = (
{
closed = 1;
nodes = (
(574,696,l),
(574,250,l),
(579,90,o),
(490,-4,o),
(334,-4,cs),
(178,-4,o),
(94,87,o),
(94,250,cs),
(94,696,l),
(116,696,l),
(116,250,l),
(115,101,o),
(193,17,o),
(334,17,cs),
(475,17,o),
(553,101,o),
(553,250,cs),
(553,696,l)
);
}
);
width = 668;
}
);
leftKerningGroup = U2;
rightKerningGroup = U;
unicode = 85;
},
{
glyphname = V;
layers = (
{
layerId = "C8F50A54-17AA-4C4A-B1FA-B4132557993D";
shapes = (
{
closed = 1;
nodes = (
(676,707,l),
(462,0,l),
(198,0,l),
(4,707,l),
(226,707,l),
(328,195,l),
(341,195,l),
(462,707,l)
);
}
);
width = 672;
},
{
layerId = "2113D558-1B9A-4CE5-8522-23A5DC5AE0BB";
shapes = (
{
closed = 1;
nodes = (
(612,700,l),
(357,0,l),
(248,0,l),
(15,700,l),
(111,700,l),
(301,94,l),
(308,94,l),
(518,700,l)
);
}
);
width = 618;
},
{
layerId = "C039661A-009C-447A-BEE4-4577736CA1DB";
shapes = (
{
closed = 1;
nodes = (
(575,696,l),
(298,0,l),
(276,0,l),
(22,696,l),
(47,696,l),
(286,37,l),
(290,37,l),
(549,696,l)
);
}
);
width = 587;
}
);
leftKerningGroup = V2;
rightKerningGroup = V;
unicode = 86;
},
{
glyphname = W;
leftMetricsKey = "=14";
rightMetricsKey = "=14";
layers = (
{
anchors = (
{
name = m.tilde;
position = "{505, 706}";
}
);
layerId = "C8F50A54-17AA-4C4A-B1FA-B4132557993D";
shapes = (
{
closed = 1;
nodes = (
(518,488,l),
(610,0,l),
(822,0,l),
(1030,707,l),
(829,707,l),
(723,219,l),
(710,219,l),
(622,707,l),
(400,707,l),
(312,219,l),
(299,219,l),
(193,707,l),
(-8,707,l),
(200,0,l),
(412,0,l),
(505,488,l)
);
}
);
width = 1022;
},
{
anchors = (
{
name = m.tilde;
position = "{505, 700}";
}
);
layerId = "2113D558-1B9A-4CE5-8522-23A5DC5AE0BB";
leftMetricsKey = "=8";
shapes = (
{
closed = 1;
nodes = (
(510,585,l),
(668,0,l),
(776,0,l),
(1005,701,l),
(906,701,l),
(728,115,l),
(724,115,l),
(562,701,l),
(455,701,l),
(290,115,l),
(285,115,l),
(107,701,l),
(8,701,l),
(237,0,l),
(345,0,l),
(505,585,l)
);
}
);
width = 1010;
},
{
anchors = (
{
name = m.tilde;
position = "{492, 696}";
}
);
layerId = "C039661A-009C-447A-BEE4-4577736CA1DB";
shapes = (
{
closed = 1;
nodes = (
(494,657,l),
(704,0,l),
(728,0,l),
(972,696,l),
(946,696,l),
(718,39,l),
(716,39,l),
(505,696,l),
(480,696,l),
(269,39,l),
(267,39,l),
(39,696,l),
(14,696,l),
(258,0,l),
(280,0,l),
(492,657,l)
);
}
);
width = 986;
}
);
leftKerningGroup = V2;
rightKerningGroup = V;
unicode = 87;
},
{
glyphname = X;
layers = (
{
layerId = "C8F50A54-17AA-4C4A-B1FA-B4132557993D";
shapes = (
{
closed = 1;
nodes = (
(702,707,l),
(500,373,l),
(713,0,l),
(452,0,l),
(352,201,l),
(236,0,l),
(14,0,l),
(224,340,l),
(8,707,l),
(270,707,l),
(370,507,l),
(474,707,l)
);
}
);
width = 720;
},
{
layerId = "2113D558-1B9A-4CE5-8522-23A5DC5AE0BB";
shapes = (
{
closed = 1;
nodes = (
(605,700,l),
(384,365,l),
(622,0,l),
(509,0,l),
(321,292,l),
(130,0,l),
(31,0,l),
(266,353,l),
(38,700,l),
(152,700,l),
(328,425,l),
(503,700,l)
);
}
);
width = 651;
},
{
layerId = "C039661A-009C-447A-BEE4-4577736CA1DB";
shapes = (
{
closed = 1;
nodes = (
(557,696,l),
(325,360,l),
(578,0,l),
(548,0,l),
(311,343,l),
(76,0,l),
(47,0,l),
(297,360,l),
(62,696,l),
(93,696,l),
(311,378,l),
(527,696,l)
);
}
);
width = 622;
}
);
leftKerningGroup = X;
rightKerningGroup = K;
unicode = 88;
},
{
glyphname = Y;
layers = (
{
anchors = (
{
name = m.tilde;
position = "{324, 707}";
},
{
name = b.uni049C_2;
position = "{314, 193}";
}
);
layerId = "C8F50A54-17AA-4C4A-B1FA-B4132557993D";
shapes = (
{
closed = 1;
nodes = (
(670,707,l),
(347,90,l),
(277,90,l),
(-9,707,l),
(221,707,l),
(318,435,l),
(331,435,l),
(448,707,l)
);
},
{
closed = 1;
nodes = (
(424,309,l),
(417,186,l),
(426,0,l),
(207,0,l),
(218,186,l),
(213,309,l)
);
}
);
width = 649;
},
{
anchors = (
{
name = m.tilde;
position = "{324, 707}";
},
{
name = b.uni049C_2;
position = "{314, 193}";
}
);
layerId = "2113D558-1B9A-4CE5-8522-23A5DC5AE0BB";
shapes = (
{
closed = 1;
nodes = (
(567,700,l),
(294,195,l),
(263,195,l),
(15,700,l),
(116,700,l),
(280,351,l),
(287,351,l),
(468,700,l)
);
},
{
closed = 1;
nodes = (
(327,298,l),
(323,203,l),
(327,0,l),
(234,0,l),
(238,203,l),
(236,298,l)
);
}
);
width = 580;
},
{
anchors = (
{
name = m.tilde;
position = "{301, 702}";
},
{
name = b.uni049C_2;
position = "{295, 197}";
}
);
layerId = "C039661A-009C-447A-BEE4-4577736CA1DB";
shapes = (
{
closed = 1;
nodes = (
(509,696,l),
(264,256,l),
(256,256,l),
(28,696,l),
(57,696,l),
(258,302,l),
(263,302,l),
(480,696,l)
);
},
{
closed = 1;
nodes = (
(271,292,l),
(271,213,l),
(271,0,l),
(249,0,l),
(249,213,l),
(249,292,l)
);
}
);
width = 541;
}
);
leftKerningGroup = Y2;
rightKerningGroup = Y;
unicode = 89;
},
{
glyphname = Z;
layers = (
{
anchors = (
{
name = m.tilde;
position = "{311, 707}";
},
{
name = b.uni0324_4;
position = "{311, 0}";
}
);
layerId = "C8F50A54-17AA-4C4A-B1FA-B4132557993D";
shapes = (
{
closed = 1;
nodes = (
(587,708,l),
(587,550,l),
(287,162,l),
(597,162,l),
(604,153,l),
(586,0,l),
(31,0,l),
(31,150,l),
(336,545,l),
(34,545,l),
(26,554,l),
(41,707,l)
);
}
);
width = 622;
},
{
anchors = (
{
name = m.tilde;
position = "{311, 707}";
},
{
name = b.uni0324_4;
position = "{311, 0}";
}
);
layerId = "2113D558-1B9A-4CE5-8522-23A5DC5AE0BB";
shapes = (
{
closed = 1;
nodes = (
(534,700,l),
(534,631,l),
(146,75,l),
(536,75,l),
(541,69,l),
(533,0,l),
(34,0,l),
(34,66,l),
(423,624,l),
(51,624,l),
(46,630,l),
(54,700,l)
);
}
);
width = 579;
},
{
anchors = (
{
name = m.tilde;
position = "{299, 702}";
},
{
name = b.uni0324_4;
position = "{299, 0}";
}
);
layerId = "C039661A-009C-447A-BEE4-4577736CA1DB";
shapes = (
{
closed = 1;
nodes = (
(502,697,l),
(502,677,l),
(64,22,l),
(500,23,l),
(505,17,l),
(501,0,l),
(35,0,l),
(35,19,l),
(473,674,l),
(60,674,l),
(56,679,l),
(59,697,l)
);
}
);
width = 554;
}
);
leftKerningGroup = Z2;
rightKerningGroup = Z;
unicode = 90;
},
{
glyphname = bracketleft;
layers = (
{
layerId = "C8F50A54-17AA-4C4A-B1FA-B4132557993D";
shapes = (
{
closed = 1;
nodes = (
(332,709,l),
(340,699,l),
(340,605,l),
(237,589,l),
(237,-14,l),
(340,-31,l),
(340,-124,l),
(332,-134,l),
(64,-123,l),
(76,287,l),
(64,698,l)
);
}
);
width = 330;
},
{
layerId = "2113D558-1B9A-4CE5-8522-23A5DC5AE0BB";
shapes = (
{
closed = 1;
nodes = (
(304,707,l),
(309,700,l),
(309,656,l),
(181,643,l),
(181,-79,l),
(309,-91,l),
(309,-135,l),
(304,-141,l),
(105,-130,l),
(109,283,l),
(105,696,l)
);
}
);
width = 316;
},
{
layerId = "C039661A-009C-447A-BEE4-4577736CA1DB";
shapes = (
{
closed = 1;
nodes = (
(287,705,l),
(292,701,l),
(292,685,l),
(150,675,l),
(150,-115,l),
(292,-124,l),
(292,-141,l),
(287,-145,l),
(128,-134,l),
(128,281,l),
(128,695,l)
);
}
);
width = 307;
}
);
unicode = 91;
},
{
glyphname = backslash;
layers = (
{
layerId = "C8F50A54-17AA-4C4A-B1FA-B4132557993D";
shapes = (
{
closed = 1;
nodes = (
(197,-129,l),
(-31,728,l),
(-14,746,l),
(129,746,l),
(356,-112,l),
(344,-129,l)
);
}
);
width = 306;
},
{
layerId = "2113D558-1B9A-4CE5-8522-23A5DC5AE0BB";
shapes = (
{
closed = 1;
nodes = (
(228,-123,l),
(4,731,l),
(12,740,l),
(75,740,l),
(299,-115,l),
(293,-123,l)
);
}
);
width = 313;
},
{
layerId = "C039661A-009C-447A-BEE4-4577736CA1DB";
shapes = (
{
closed = 1;
nodes = (
(246,-120,l),
(23,732,l),
(26,737,l),
(44,737,l),
(266,-116,l),
(263,-120,l)
);
}
);
width = 318;
}
);
unicode = 92;
},
{
glyphname = asciicircum;
layers = (
{
layerId = "C8F50A54-17AA-4C4A-B1FA-B4132557993D";
shapes = (
{
closed = 1;
nodes = (
(344,548,l),
(490,176,l),
(476,158,l),
(358,130,l),
(259,404,l),
(249,404,l),
(149,129,l),
(134,121,l),
(13,165,l),
(155,536,l),
(174,548,l)
);
}
);
width = 502;
},
{
layerId = "2113D558-1B9A-4CE5-8522-23A5DC5AE0BB";
shapes = (
{
closed = 1;
nodes = (
(278,537,l),
(443,147,l),
(437,139,l),
(383,126,l),
(241,468,l),
(235,468,l),
(84,128,l),
(75,122,l),
(22,143,l),
(192,532,l),
(202,537,l)
);
}
);
width = 465;
},
{
layerId = "C039661A-009C-447A-BEE4-4577736CA1DB";
shapes = (
{
closed = 1;
nodes = (
(242,532,l),
(417,132,l),
(415,128,l),
(399,122,l),
(232,505,l),
(227,505,l),
(48,127,l),
(43,123,l),
(27,131,l),
(214,529,l),
(218,532,l)
);
}
);
width = 444;
}
);
unicode = 94;
},
{
glyphname = underscore;
layers = (
{
layerId = "C8F50A54-17AA-4C4A-B1FA-B4132557993D";
shapes = (
{
closed = 1;
nodes = (
(482,-99,l),
(495,-114,l),
(485,-230,l),
(-3,-230,l),
(-16,-216,l),
(-7,-99,l)
);
}
);
width = 478;
},
{
layerId = "2113D558-1B9A-4CE5-8522-23A5DC5AE0BB";
shapes = (
{
closed = 1;
nodes = (
(500,-96,l),
(507,-103,l),
(501,-157,l),
(-10,-157,l),
(-16,-150,l),
(-11,-96,l)
);
}
);
width = 490;
},
{
layerId = "C039661A-009C-447A-BEE4-4577736CA1DB";
shapes = (
{
closed = 1;
nodes = (
(510,-94,l),
(513,-97,l),
(511,-116,l),
(-13,-116,l),
(-16,-112,l),
(-14,-94,l)
);
}
);
width = 497;
}
);
leftKerningGroup = comma2;
rightKerningGroup = comma;
unicode = 95;
},
{
glyphname = a;
layers = (
{
anchors = (
{
name = m.tilde;
position = "{269, 515}";
},
{
name = m.uni0328_5;
position = "{511, 22}";
}
);
layerId = "C8F50A54-17AA-4C4A-B1FA-B4132557993D";
shapes = (
{
closed = 1;
nodes = (
(415,529,o),
(483,473,o),
(483,370,cs),
(483,162,ls),
(483,146,o),
(487,139,o),
(498,139,cs),
(503,139,o),
(509,141,o),
(517,142,c),
(530,131,l),
(511,22,l),
(484,3,o),
(455,-8,o),
(410,-11,c),
(369,-8,o),
(335,16,o),
(316,67,c),
(308,67,l),
(277,31,o),
(240,4,o),
(199,-12,c),
(88,-11,o),
(16,54,o),
(16,158,cs),
(16,237,o),
(58,285,o),
(142,297,cs),
(297,318,l),
(297,331,ls),
(297,368,o),
(283,383,o),
(246,383,cs),
(205,383,o),
(156,368,o),
(87,331,c),
(74,340,l),
(51,474,l),
(120,509,o),
(205,529,o),
(282,529,cs)
);
},
{
closed = 1;
nodes = (
(297,225,l),
(235,216,ls),
(216,213,o),
(205,201,o),
(205,177,cs),
(205,149,o),
(219,133,o),
(246,133,cs),
(262,133,o),
(280,139,o),
(297,151,c)
);
}
);
width = 549;
},
{
anchors = (
{
name = m.tilde;
position = "{269, 515}";
},
{
name = m.uni0328_5;
position = "{511, 22}";
}
);
layerId = "2113D558-1B9A-4CE5-8522-23A5DC5AE0BB";
shapes = (
{
closed = 1;
nodes = (
(349,510,o),
(395,461,o),
(395,378,cs),
(395,110,ls),
(395,79,o),
(405,70,o),
(429,70,cs),
(438,70,o),
(448,71,o),
(465,75,c),
(474,68,l),
(465,15,l),
(446,6,o),
(423,-3,o),
(402,-7,c),
(357,-2,o),
(328,27,o),
(324,74,c),
(317,74,l),
(280,38,o),
(244,8,o),
(203,-8,c),
(103,-8,o),
(45,46,o),
(45,130,cs),
(45,198,o),
(82,233,o),
(147,248,cs),
(323,289,l),
(324,357,ls),
(324,414,o),
(293,443,o),
(240,443,cs),
(191,443,o),
(142,420,o),
(85,371,c),
(76,376,l),
(64,443,l),
(125,487,o),
(190,510,o),
(254,510,cs)
);
},
{
closed = 1;
nodes = (
(322,230,l),
(166,192,l),
(139,187,o),
(128,174,o),
(128,143,cs),
(128,96,o),
(156,69,o),
(199,69,cs),
(240,69,o),
(279,97,o),
(319,144,c)
);
}
);
width = 507;
},
{
anchors = (
{
name = m.tilde;
position = "{254, 508}";
},
{
name = m.uni0328_5;
position = "{486, 19}";
}
);
layerId = "C039661A-009C-447A-BEE4-4577736CA1DB";
shapes = (
{
closed = 1;
nodes = (
(318,499,o),
(357,455,o),
(357,376,cs),
(357,80,ls),
(357,37,o),
(364,19,o),
(392,19,cs),
(407,19,o),
(425,24,o),
(438,35,c),
(444,32,l),
(440,12,l),
(425,1,o),
(410,-3,o),
(391,-3,cs),
(351,-3,o),
(332,20,o),
(331,80,c),
(328,80,l),
(285,31,o),
(233,-2,o),
(185,-5,c),
(106,-5,o),
(61,40,o),
(61,117,cs),
(61,170,o),
(95,208,o),
(151,221,cs),
(334,264,l),
(334,371,ls),
(334,440,o),
(303,477,o),
(234,477,cs),
(190,477,o),
(136,453,o),
(84,406,c),
(78,408,l),
(72,425,l),
(128,473,o),
(186,499,o),
(235,499,cs)
);
},
{
closed = 1;
nodes = (
(332,241,l),
(156,199,ls),
(109,188,o),
(83,160,o),
(83,117,cs),
(83,54,o),
(122,16,o),
(183,16,cs),
(231,16,o),
(287,53,o),
(332,116,c)
);
}
);
width = 483;
}
);
leftKerningGroup = a2;
rightKerningGroup = a;
unicode = 97;
},
{
glyphname = b;
layers = (
{
anchors = (
{
name = m.tilde;
position = "{292, 515}";
},
{
name = b.uni0324_4;
position = "{292, 0}";
}
);
layerId = "C8F50A54-17AA-4C4A-B1FA-B4132557993D";
shapes = (
{
closed = 1;
nodes = (
(493,523,o),
(568,428,o),
(568,271,cs),
(568,178,o),
(544,107,o),
(496,59,cs),
(447,11,o),
(383,-13,o),
(302,-13,cs),
(235,-13,o),
(160,6,o),
(87,43,c),
(87,229,l),
(164,154,o),
(242,118,o),
(290,118,cs),
(337,118,o),
(368,145,o),
(368,237,cs),
(368,316,o),
(346,355,o),
(294,355,cs),
(273,355,o),
(254,348,o),
(233,329,c),
(233,441,l),
(259,441,l),
(290,477,o),
(324,504,o),
(364,523,c)
);
},
{
closed = 1;
nodes = (
(260,767,l),
(260,44,l),
(67,-13,l),
(48,8,l),
(48,752,l)
);
}
);
width = 583;
},
{
anchors = (
{
name = m.tilde;
position = "{292, 515}";
},
{
name = b.uni0324_4;
position = "{292, 0}";
}
);
layerId = "2113D558-1B9A-4CE5-8522-23A5DC5AE0BB";
shapes = (
{
closed = 1;
nodes = (
(451,507,o),
(517,417,o),
(517,266,cs),
(517,178,o),
(496,110,o),
(453,63,cs),
(410,15,o),
(351,-9,o),
(276,-9,cs),
(219,-9,o),
(158,16,o),
(106,52,c),
(110,154,l),
(173,89,o),
(231,58,o),
(284,58,cs),
(373,58,o),
(432,121,o),
(429,256,cs),
(428,367,o),
(386,430,o),
(313,430,cs),
(269,430,o),
(225,405,o),
(169,345,c),
(169,432,l),
(187,432,l),
(236,472,o),
(270,491,o),
(322,507,c)
);
},
{
closed = 1;
nodes = (
(183,767,l),
(183,22,l),
(107,-13,l),
(91,-4,l),
(91,759,l)
);
}
);
width = 562;
},
{
anchors = (
{
name = m.tilde;
position = "{284, 508}";
},
{
name = b.uni0324_4;
position = "{284, 0}";
}
);
layerId = "C039661A-009C-447A-BEE4-4577736CA1DB";
shapes = (
{
closed = 1;
nodes = (
(418,498,o),
(486,410,o),
(486,259,cs),
(486,175,o),
(466,110,o),
(426,63,cs),
(385,16,o),
(328,-7,o),
(254,-7,cs),
(207,-7,o),
(156,0,o),
(115,13,c),
(122,34,l),
(171,22,o),
(221,15,o),
(254,15,cs),
(389,15,o),
(464,104,o),
(464,259,cs),
(464,398,o),
(405,476,o),
(301,476,cs),
(234,476,o),
(173,439,o),
(126,370,c),
(115,420,l),
(140,420,l),
(181,471,o),
(242,498,o),
(301,498,cs)
);
},
{
closed = 1;
nodes = (
(137,767,l),
(137,9,l),
(120,0,l),
(115,3,l),
(115,762,l)
);
}
);
width = 549;
}
);
leftKerningGroup = b2;
rightKerningGroup = b;
unicode = 98;
},
{
glyphname = c;
layers = (
{
anchors = (
{
name = m.tilde;
position = "{262, 515}";
},
{
name = b.uni0324_4;
position = "{247, 0}";
}
);
layerId = "C8F50A54-17AA-4C4A-B1FA-B4132557993D";
shapes = (
{
closed = 1;
nodes = (
(333,529,o),
(381,518,o),
(417,502,c),
(383,341,l),
(368,333,l),
(333,348,o),
(310,356,o),
(285,356,cs),
(262,356,o),
(246,349,o),
(235,336,cs),
(224,323,o),
(218,301,o),
(218,272,cs),
(218,231,o),
(225,201,o),
(238,182,cs),
(251,163,o),
(271,153,o),
(298,153,cs),
(325,153,o),
(351,160,o),
(391,169,c),
(405,157,l),
(383,1,l),
(340,-10,o),
(294,-13,o),
(247,-13,cs),
(174,-13,o),
(117,10,o),
(76,55,cs),
(35,100,o),
(15,165,o),
(15,249,cs),
(15,338,o),
(39,407,o),
(86,456,cs),
(133,505,o),
(199,529,o),
(284,529,cs)
);
}
);
width = 419;
},
{
anchors = (
{
name = m.tilde;
position = "{262, 515}";
},
{
name = b.uni0324_4;
position = "{247, 0}";
}
);
layerId = "2113D558-1B9A-4CE5-8522-23A5DC5AE0BB";
shapes = (
{
closed = 1;
nodes = (
(316,510,o),
(367,499,o),
(403,482,c),
(387,401,l),
(377,397,l),
(345,418,o),
(305,434,o),
(265,434,cs),
(224,434,o),
(191,418,o),
(168,387,cs),
(144,355,o),
(132,310,o),
(132,252,cs),
(132,195,o),
(144,149,o),
(169,116,cs),
(193,83,o),
(227,66,o),
(271,66,cs),
(310,66,o),
(356,79,o),
(392,102,c),
(402,96,l),
(392,17,l),
(353,4,o),
(305,-9,o),
(260,-9,cs),
(193,-9,o),
(140,14,o),
(102,60,cs),
(64,105,o),
(45,168,o),
(45,247,cs),
(45,328,o),
(65,392,o),
(105,439,cs),
(144,486,o),
(199,510,o),
(269,510,cs)
);
}
);
width = 420;
},
{
anchors = (
{
name = m.tilde;
position = "{258, 508}";
},
{
name = b.uni0324_4;
position = "{244, 0}";
}
);
layerId = "C039661A-009C-447A-BEE4-4577736CA1DB";
shapes = (
{
closed = 1;
nodes = (
(306,499,o),
(359,481,o),
(395,453,c),
(388,435,l),
(381,435,l),
(350,458,o),
(301,477,o),
(254,477,cs),
(203,477,o),
(161,456,o),
(130,413,cs),
(99,370,o),
(83,313,o),
(83,242,cs),
(83,174,o),
(99,119,o),
(130,78,cs),
(161,37,o),
(202,16,o),
(254,16,cs),
(302,16,o),
(357,36,o),
(393,63,c),
(400,61,l),
(397,41,l),
(361,14,o),
(308,-5,o),
(253,-5,cs),
(195,-5,o),
(149,18,o),
(114,63,cs),
(79,108,o),
(61,167,o),
(61,242,cs),
(61,320,o),
(79,382,o),
(114,429,cs),
(149,476,o),
(196,499,o),
(254,499,cs)
);
}
);
width = 422;
}
);
leftKerningGroup = c2;
rightKerningGroup = c;
unicode = 99;
},
{
glyphname = d;
layers = (
{
anchors = (
{
name = m.tilde;
position = "{293, 515}";
},
{
name = b.uni049C_2;
position = "{293, 258}";
},
{
name = m.uni031B_3;
position = "{562, 515}";
},
{
name = b.uni0324_4;
position = "{293, 0}";
}
);
layerId = "C8F50A54-17AA-4C4A-B1FA-B4132557993D";
shapes = (
{
closed = 1;
nodes = (
(525,767,l),
(525,163,ls),
(525,147,o),
(530,139,o),
(539,139,cs),
(546,139,o),
(551,141,o),
(558,142,c),
(571,131,l),
(553,22,l),
(526,3,o),
(498,-8,o),
(451,-11,c),
(406,-8,o),
(368,17,o),
(347,66,c),
(340,66,l),
(309,33,o),
(274,9,o),
(237,-10,c),
(167,-10,o),
(113,14,o),
(74,61,cs),
(35,108,o),
(15,171,o),
(15,250,cs),
(15,342,o),
(40,411,o),
(89,457,cs),
(138,502,o),
(204,525,o),
(285,525,cs),
(296,525,o),
(309,524,o),
(325,522,c),
(325,752,l)
);
},
{
closed = 1;
nodes = (
(233,384,o),
(214,365,o),
(214,289,cs),
(214,238,o),
(219,202,o),
(230,180,cs),
(240,158,o),
(256,147,o),
(277,147,cs),
(297,147,o),
(313,154,o),
(328,169,c),
(328,373,l),
(309,381,o),
(294,384,o),
(278,384,cs)
);
}
);
width = 584;
},
{
anchors = (
{
name = m.tilde;
position = "{293, 515}";
},
{
name = b.uni049C_2;
position = "{293, 258}";
},
{
name = m.uni031B_3;
position = "{562, 515}";
},
{
name = b.uni0324_4;
position = "{293, 0}";
}
);
layerId = "2113D558-1B9A-4CE5-8522-23A5DC5AE0BB";
shapes = (
{
closed = 1;
nodes = (
(468,767,l),
(468,109,l),
(471,80,o),
(476,70,o),
(499,70,cs),
(510,70,o),
(519,71,o),
(536,75,c),
(545,68,l),
(536,15,l),
(517,6,o),
(494,-3,o),
(473,-7,c),
(428,-2,o),
(402,27,o),
(395,70,c),
(387,70,l),
(344,34,o),
(316,15,o),
(272,-5,c),
(198,-5,o),
(142,17,o),
(103,62,cs),
(64,106,o),
(45,169,o),
(45,250,cs),
(45,333,o),
(67,398,o),
(110,443,cs),
(153,488,o),
(213,510,o),
(288,510,cs),
(319,510,o),
(351,507,o),
(382,500,c),
(382,759,l)
);
},
{
closed = 1;
nodes = (
(189,444,o),
(131,383,o),
(132,259,cs),
(133,199,o),
(146,153,o),
(170,121,cs),
(193,89,o),
(225,73,o),
(266,73,cs),
(305,73,o),
(340,86,o),
(383,137,c),
(382,417,l),
(346,434,o),
(310,444,o),
(277,444,cs)
);
}
);
width = 567;
},
{
anchors = (
{
name = m.tilde;
position = "{285, 508}";
},
{
name = b.uni049C_2;
position = "{285, 253}";
},
{
name = m.uni031B_3;
position = "{549, 508}";
},
{
name = b.uni0324_4;
position = "{285, 0}";
}
);
layerId = "C039661A-009C-447A-BEE4-4577736CA1DB";
shapes = (
{
closed = 1;
nodes = (
(432,767,l),
(432,82,ls),
(432,38,o),
(443,19,o),
(471,19,cs),
(486,19,o),
(503,24,o),
(515,35,c),
(522,32,l),
(518,12,l),
(503,1,o),
(487,-3,o),
(470,-3,cs),
(431,-3,o),
(412,20,o),
(411,75,c),
(407,75,l),
(362,23,o),
(314,-5,o),
(250,-5,cs),
(194,-5,o),
(149,16,o),
(114,59,cs),
(79,101,o),
(61,160,o),
(61,237,cs),
(61,321,o),
(81,386,o),
(122,431,cs),
(162,476,o),
(219,499,o),
(293,499,cs),
(330,499,o),
(369,493,o),
(411,480,c),
(411,762,l)
);
},
{
closed = 1;
nodes = (
(160,477,o),
(83,390,o),
(83,237,cs),
(83,167,o),
(99,113,o),
(130,74,cs),
(161,35,o),
(202,16,o),
(251,16,cs),
(314,16,o),
(366,47,o),
(411,110,c),
(411,456,l),
(372,469,o),
(332,477,o),
(293,477,cs)
);
}
);
width = 554;
}
);
leftKerningGroup = c2;
rightKerningGroup = d;
unicode = 100;
},
{
glyphname = e;
layers = (
{
anchors = (
{
name = m.tilde;
position = "{275, 514}";
},
{
name = b.uni0324_4;
position = "{297, 0}";
},
{
name = m.uni0328_5;
position = "{463, 10}";
}
);
layerId = "C8F50A54-17AA-4C4A-B1FA-B4132557993D";
shapes = (
{
closed = 1;
nodes = (
(212,-13,o),
(142,11,o),
(91,59,cs),
(40,107,o),
(15,173,o),
(15,258,cs),
(15,342,o),
(39,408,o),
(87,456,cs),
(135,503,o),
(201,527,o),
(285,527,cs),
(370,527,o),
(432,501,o),
(472,450,cs),
(511,399,o),
(523,329,o),
(506,241,c),
(483,214,l),
(183,214,l),
(183,313,l),
(330,319,l),
(332,334,l),
(332,373,o),
(314,392,o),
(278,392,cs),
(253,392,o),
(235,382,o),
(224,362,cs),
(212,341,o),
(206,309,o),
(206,266,cs),
(206,221,o),
(215,189,o),
(234,169,cs),
(253,148,o),
(283,138,o),
(324,138,cs),
(361,138,o),
(405,146,o),
(480,165,c),
(496,154,l),
(463,10,l),
(406,-5,o),
(352,-13,o),
(302,-13,cs)
);
}
);
width = 530;
},
{
anchors = (
{
name = m.tilde;
position = "{275, 514}";
},
{
name = b.uni0324_4;
position = "{297, 0}";
},
{
name = m.uni0328_5;
position = "{463, 10}";
}
);
layerId = "2113D558-1B9A-4CE5-8522-23A5DC5AE0BB";
shapes = (
{
closed = 1;
nodes = (
(204,-9,o),
(148,14,o),
(107,60,cs),
(66,106,o),
(45,169,o),
(45,248,cs),
(45,328,o),
(66,392,o),
(107,439,cs),
(148,486,o),
(203,510,o),
(273,510,cs),
(342,510,o),
(392,488,o),
(424,445,cs),
(456,401,o),
(466,340,o),
(453,263,c),
(442,252,l),
(115,252,l),
(117,313,l),
(370,318,l),
(372,333,l),
(372,406,o),
(337,444,o),
(273,444,cs),
(228,444,o),
(194,427,o),
(169,393,cs),
(144,359,o),
(131,312,o),
(131,252,cs),
(131,192,o),
(145,146,o),
(172,114,cs),
(199,82,o),
(237,66,o),
(288,66,cs),
(340,66,o),
(392,83,o),
(435,114,c),
(444,107,l),
(430,27,l),
(380,3,o),
(329,-9,o),
(277,-9,cs)
);
}
);
width = 505;
},
{
anchors = (
{
name = m.tilde;
position = "{265, 507}";
},
{
name = b.uni0324_4;
position = "{280, 0}";
},
{
name = m.uni0328_5;
position = "{441, 22}";
}
);
layerId = "C039661A-009C-447A-BEE4-4577736CA1DB";
shapes = (
{
closed = 1;
nodes = (
(197,-5,o),
(149,17,o),
(114,62,cs),
(79,106,o),
(61,166,o),
(61,241,cs),
(61,320,o),
(79,382,o),
(116,429,cs),
(153,476,o),
(202,499,o),
(264,499,cs),
(319,499,o),
(361,480,o),
(389,443,cs),
(417,406,o),
(428,353,o),
(423,286,c),
(416,278,l),
(71,278,l),
(71,296,l),
(402,300,l),
(403,323,l),
(403,419,o),
(350,477,o),
(263,477,cs),
(208,477,o),
(165,456,o),
(132,413,cs),
(99,370,o),
(83,312,o),
(83,241,cs),
(83,172,o),
(99,118,o),
(131,77,cs),
(162,36,o),
(205,16,o),
(260,16,cs),
(315,16,o),
(369,34,o),
(405,63,c),
(412,61,l),
(408,39,l),
(363,10,o),
(313,-5,o),
(258,-5,cs)
);
}
);
width = 487;
}
);
leftKerningGroup = c2;
rightKerningGroup = e;
unicode = 101;
},
{
glyphname = f;
layers = (
{
layerId = "C8F50A54-17AA-4C4A-B1FA-B4132557993D";
shapes = (
{
closed = 1;
nodes = (
(406,769,o),
(441,766,o),
(476,759,c),
(464,605,l),
(450,595,l),
(403,614,o),
(373,621,o),
(348,621,cs),
(323,621,o),
(302,612,o),
(302,575,cs),
(302,0,l),
(97,0,l),
(97,537,ls),
(97,688,o),
(198,769,o),
(371,769,cs)
);
},
{
closed = 1;
nodes = (
(417,510,l),
(423,499,l),
(414,387,l),
(22,387,l),
(16,397,l),
(25,510,l)
);
}
);
width = 393;
},
{
layerId = "2113D558-1B9A-4CE5-8522-23A5DC5AE0BB";
shapes = (
{
closed = 1;
nodes = (
(327,769,o),
(356,766,o),
(387,759,c),
(380,687,l),
(373,681,l),
(341,697,o),
(317,701,o),
(293,701,cs),
(237,701,o),
(206,667,o),
(205,598,cs),
(206,0,l),
(117,0,l),
(117,584,ls),
(117,704,o),
(184,769,o),
(300,769,cs)
);
},
{
closed = 1;
nodes = (
(334,499,l),
(337,492,l),
(332,438,l),
(43,438,l),
(38,444,l),
(44,499,l)
);
}
);
width = 334;
},
{
layerId = "C039661A-009C-447A-BEE4-4577736CA1DB";
shapes = (
{
closed = 1;
nodes = (
(284,769,o),
(308,766,o),
(335,759,c),
(333,738,l),
(330,736,l),
(307,743,o),
(288,747,o),
(261,747,cs),
(189,747,o),
(150,699,o),
(150,612,cs),
(150,0,l),
(128,0,l),
(128,612,ls),
(128,713,o),
(176,769,o),
(261,769,cs)
);
},
{
closed = 1;
nodes = (
(286,494,l),
(289,489,l),
(286,472,l),
(55,472,l),
(50,476,l),
(54,494,l)
);
}
);
width = 301;
}
);
leftKerningGroup = f;
unicode = 102;
},
{
glyphname = g;
layers = (
{
anchors = (
{
name = m.tilde;
position = "{287, 509}";
}
);
layerId = "C8F50A54-17AA-4C4A-B1FA-B4132557993D";
shapes = (
{
closed = 1;
nodes = (
(131,205,l),
(222,176,l),
(215,168,o),
(215,163,o),
(215,158,cs),
(215,147,o),
(223,140,o),
(239,136,cs),
(270,128,o),
(321,126,o),
(377,119,cs),
(404,116,o),
(430,109,o),
(455,100,c),
(503,81,o),
(538,45,o),
(538,-22,cs),
(538,-61,o),
(527,-95,o),
(506,-124,cs),
(462,-182,o),
(380,-215,o),
(271,-215,cs),
(118,-215,o),
(38,-157,o),
(38,-66,c),
(63,-39,o),
(91,-16,o),
(123,3,c),
(123,22,l),
(224,-9,l),
(217,-16,o),
(211,-22,o),
(208,-29,cs),
(205,-36,o),
(203,-43,o),
(203,-51,cs),
(203,-68,o),
(210,-81,o),
(225,-90,cs),
(239,-99,o),
(260,-104,o),
(289,-104,cs),
(305,-104,o),
(319,-103,o),
(330,-100,cs),
(352,-95,o),
(364,-82,o),
(364,-59,cs),
(364,-45,o),
(356,-35,o),
(341,-30,cs),
(310,-19,o),
(260,-17,o),
(206,-10,cs),
(179,-7,o),
(153,-1,o),
(129,8,c),
(81,24,o),
(48,58,o),
(48,122,c),
(75,147,o),
(102,170,o),
(131,189,c)
);
},
{
closed = 1;
nodes = (
(335,526,o),
(376,519,o),
(411,504,cs),
(482,475,o),
(524,421,o),
(524,354,cs),
(524,297,o),
(502,252,o),
(458,219,cs),
(413,185,o),
(353,168,o),
(276,168,cs),
(127,168,o),
(41,229,o),
(41,340,cs),
(41,456,o),
(136,526,o),
(289,526,cs)
);
},
{
closed = 1;
nodes = (
(238,401,o),
(223,388,o),
(223,349,cs),
(223,305,o),
(240,288,o),
(281,288,cs),
(324,288,o),
(344,306,o),
(344,346,cs),
(344,389,o),
(327,401,o),
(286,401,cs)
);
},
{
closed = 1;
nodes = (
(584,545,l),
(584,417,l),
(559,413,o),
(540,412,o),
(517,411,c),
(503,381,l),
(384,499,l),
(448,511,o),
(511,532,o),
(570,557,c)
);
}
);
width = 563;
},
{
anchors = (
{
name = m.tilde;
position = "{287, 509}";
}
);
layerId = "2113D558-1B9A-4CE5-8522-23A5DC5AE0BB";
shapes = (
{
closed = 1;
nodes = (
(141,199,l),
(197,178,l),
(169,158,o),
(161,147,o),
(161,131,cs),
(161,118,o),
(169,108,o),
(184,102,cs),
(214,89,o),
(266,83,o),
(322,75,c),
(349,70,o),
(375,64,o),
(400,56,cs),
(448,40,o),
(482,11,o),
(482,-44,cs),
(482,-75,o),
(471,-104,o),
(450,-129,cs),
(407,-179,o),
(334,-211,o),
(246,-211,cs),
(123,-211,o),
(59,-149,o),
(59,-66,c),
(82,-25,o),
(117,3,o),
(154,26,c),
(154,38,l),
(226,21,l),
(199,5,o),
(179,-11,o),
(164,-27,cs),
(149,-42,o),
(141,-58,o),
(141,-75,cs),
(141,-95,o),
(151,-112,o),
(171,-126,cs),
(190,-139,o),
(219,-146,o),
(257,-146,cs),
(284,-146,o),
(309,-142,o),
(331,-135,cs),
(374,-120,o),
(400,-93,o),
(400,-61,cs),
(400,-42,o),
(392,-28,o),
(377,-18,cs),
(345,2,o),
(291,8,o),
(236,16,c),
(208,19,o),
(182,24,o),
(157,31,c),
(108,43,o),
(73,69,o),
(73,120,c),
(89,145,o),
(113,168,o),
(141,187,c)
);
},
{
closed = 1;
nodes = (
(305,507,o),
(339,500,o),
(368,486,cs),
(424,458,o),
(454,407,o),
(454,339,cs),
(454,286,o),
(436,243,o),
(401,212,cs),
(366,180,o),
(317,164,o),
(256,164,cs),
(136,164,o),
(69,228,o),
(69,331,cs),
(69,443,o),
(148,507,o),
(265,507,cs)
);
},
{
closed = 1;
nodes = (
(193,444,o),
(152,407,o),
(152,335,cs),
(152,268,o),
(189,226,o),
(260,226,cs),
(331,226,o),
(371,268,o),
(371,340,cs),
(371,407,o),
(336,444,o),
(264,444,cs)
);
},
{
closed = 1;
nodes = (
(533,519,l),
(533,455,l),
(502,446,o),
(468,440,o),
(435,432,c),
(426,414,l),
(355,487,l),
(411,498,o),
(469,509,o),
(524,525,c)
);
}
);
width = 533;
},
{
anchors = (
{
name = m.tilde;
position = "{277, 501}";
}
);
layerId = "C039661A-009C-447A-BEE4-4577736CA1DB";
shapes = (
{
closed = 1;
nodes = (
(144,195,l),
(171,183,l),
(118,150,o),
(105,133,o),
(105,117,cs),
(105,102,o),
(113,91,o),
(130,84,c),
(163,68,o),
(220,60,o),
(279,52,c),
(308,47,o),
(336,41,o),
(363,34,c),
(416,18,o),
(453,-9,o),
(453,-60,cs),
(453,-86,o),
(443,-111,o),
(423,-134,cs),
(383,-180,o),
(315,-210,o),
(236,-210,cs),
(131,-210,o),
(66,-156,o),
(66,-84,c),
(73,-33,o),
(109,2,o),
(177,41,c),
(177,51,l),
(223,44,l),
(185,25,o),
(153,5,o),
(127,-16,cs),
(100,-37,o),
(87,-62,o),
(87,-90,cs),
(87,-115,o),
(100,-137,o),
(126,-158,cs),
(152,-178,o),
(189,-188,o),
(236,-188,cs),
(271,-188,o),
(304,-182,o),
(334,-170,cs),
(393,-145,o),
(431,-103,o),
(431,-60,cs),
(431,-37,o),
(423,-20,o),
(406,-8,cs),
(373,16,o),
(316,26,o),
(257,34,c),
(227,37,o),
(199,42,o),
(172,48,cs),
(119,60,o),
(82,81,o),
(82,121,c),
(86,142,o),
(111,163,o),
(144,187,c)
);
},
{
closed = 1;
nodes = (
(285,498,o),
(315,491,o),
(340,478,cs),
(391,451,o),
(418,400,o),
(418,332,cs),
(418,280,o),
(403,239,o),
(373,209,cs),
(342,179,o),
(300,164,o),
(247,164,cs),
(140,164,o),
(78,226,o),
(78,329,cs),
(78,434,o),
(142,498,o),
(250,498,cs)
);
},
{
closed = 1;
nodes = (
(157,476,o),
(98,422,o),
(98,329,cs),
(98,240,o),
(154,186,o),
(247,186,cs),
(339,186,o),
(397,239,o),
(397,332,cs),
(397,423,o),
(341,476,o),
(250,476,cs)
);
},
{
closed = 1;
nodes = (
(497,499,l),
(497,479,l),
(454,470,o),
(415,462,o),
(378,454,c),
(371,440,l),
(342,468,l),
(391,477,o),
(455,493,o),
(492,502,c)
);
}
);
width = 515;
}
);
leftKerningGroup = g2;
rightKerningGroup = g;
unicode = 103;
},
{
glyphname = h;
layers = (
{
anchors = (
{
name = m.tilde;
position = "{151, 721}";
},
{
name = b.uni049C_2;
position = "{297, 258}";
},
{
name = m.uni031B_3;
position = "{286, 515}";
},
{
name = b.uni0324_4;
position = "{300, 0}";
}
);
layerId = "C8F50A54-17AA-4C4A-B1FA-B4132557993D";
shapes = (
{
closed = 1;
nodes = (
(498,522,o),
(555,471,o),
(555,378,cs),
(555,0,l),
(356,0,l),
(356,288,ls),
(356,335,o),
(338,355,o),
(305,355,cs),
(281,355,o),
(258,346,o),
(227,323,c),
(228,441,l),
(261,441,l),
(297,477,o),
(336,505,o),
(389,522,c)
);
},
{
closed = 1;
nodes = (
(261,767,l),
(260,0,l),
(49,0,l),
(49,752,l)
);
}
);
width = 600;
},
{
anchors = (
{
name = m.tilde;
position = "{151, 721}";
},
{
name = b.uni049C_2;
position = "{297, 258}";
},
{
name = m.uni031B_3;
position = "{286, 515}";
},
{
name = b.uni0324_4;
position = "{300, 0}";
}
);
layerId = "2113D558-1B9A-4CE5-8522-23A5DC5AE0BB";
shapes = (
{
closed = 1;
nodes = (
(433,508,o),
(490,455,o),
(490,360,cs),
(490,0,l),
(405,0,l),
(405,339,ls),
(405,394,o),
(379,430,o),
(323,430,cs),
(271,430,o),
(219,398,o),
(168,345,c),
(168,431,l),
(186,431,l),
(230,470,o),
(278,496,o),
(321,508,c)
);
},
{
closed = 1;
nodes = (
(183,767,l),
(182,0,l),
(90,0,l),
(91,759,l)
);
}
);
width = 569;
},
{
anchors = (
{
name = m.tilde;
position = "{142, 713}";
},
{
name = b.uni049C_2;
position = "{290, 253}";
},
{
name = m.uni031B_3;
position = "{265, 508}";
},
{
name = b.uni0324_4;
position = "{292, 0}";
}
);
layerId = "C039661A-009C-447A-BEE4-4577736CA1DB";
shapes = (
{
closed = 1;
nodes = (
(403,499,o),
(454,446,o),
(454,351,cs),
(454,0,l),
(432,0,l),
(432,349,ls),
(432,432,o),
(388,477,o),
(311,477,cs),
(255,477,o),
(191,439,o),
(135,371,c),
(134,408,l),
(141,408,l),
(194,467,o),
(258,499,o),
(311,499,cs)
);
},
{
closed = 1;
nodes = (
(137,767,l),
(137,0,l),
(115,0,l),
(115,762,l)
);
}
);
width = 553;
}
);
leftKerningGroup = b2;
rightKerningGroup = h;
unicode = 104;
},
{
glyphname = k;
layers = (
{
anchors = (
{
name = m.tilde;
position = "{151, 721}";
},
{
name = m.uni031B_3;
position = "{286, 515}";
},
{
name = b.uni0324_4;
position = "{307, 0}";
}
);
layerId = "C8F50A54-17AA-4C4A-B1FA-B4132557993D";
shapes = (
{
closed = 1;
nodes = (
(575,515,l),
(444,287,l),
(487,203,o),
(534,120,o),
(583,35,c),
(582,13,l),
(515,0,o),
(451,-6,o),
(382,-13,c),
(360,-2,l),
(312,86,o),
(273,175,o),
(242,268,c),
(242,281,l),
(358,515,l)
);
},
{
closed = 1;
nodes = (
(261,767,l),
(260,0,l),
(49,0,l),
(49,752,l)
);
}
);
width = 590;
},
{
anchors = (
{
name = m.tilde;
position = "{151, 721}";
},
{
name = m.uni031B_3;
position = "{286, 515}";
},
{
name = b.uni0324_4;
position = "{307, 0}";
}
);
layerId = "2113D558-1B9A-4CE5-8522-23A5DC5AE0BB";
shapes = (
{
closed = 1;
nodes = (
(480,501,l),
(287,272,l),
(351,184,o),
(423,99,o),
(494,16,c),
(494,5,l),
(466,-2,o),
(438,-6,o),
(410,-10,c),
(399,-5,l),
(327,80,o),
(258,170,o),
(195,263,c),
(195,271,l),
(377,501,l)
);
},
{
closed = 1;
nodes = (
(183,767,l),
(183,0,l),
(90,0,l),
(91,759,l)
);
}
);
width = 502;
},
{
anchors = (
{
name = m.tilde;
position = "{142, 713}";
},
{
name = m.uni031B_3;
position = "{265, 508}";
},
{
name = b.uni0324_4;
position = "{290, 0}";
}
);
layerId = "C039661A-009C-447A-BEE4-4577736CA1DB";
shapes = (
{
closed = 1;
nodes = (
(428,494,l),
(198,263,l),
(278,175,o),
(361,88,o),
(446,5,c),
(446,1,l),
(442,-3,o),
(436,-4,o),
(429,-8,c),
(425,-7,l),
(337,80,o),
(250,168,o),
(169,260,c),
(169,265,l),
(394,494,l)
);
},
{
closed = 1;
nodes = (
(137,767,l),
(137,0,l),
(115,0,l),
(115,762,l)
);
}
);
width = 456;
}
);
leftKerningGroup = b2;
rightKerningGroup = k;
unicode = 107;
},
{
glyphname = l;
layers = (
{
anchors = (
{
name = m.tilde;
position = "{154, 743}";
},
{
name = m.uni031B_3;
position = "{286, 515}";
},
{
name = b.uni0324_4;
position = "{154, 0}";
}
);
layerId = "C8F50A54-17AA-4C4A-B1FA-B4132557993D";
shapes = (
{
closed = 1;
nodes = (
(261,767,l),
(261,0,l),
(49,0,l),
(49,752,l)
);
}
);
width = 308;
},
{
anchors = (
{
name = m.tilde;
position = "{154, 743}";
},
{
name = m.uni031B_3;
position = "{286, 515}";
},
{
name = b.uni0324_4;
position = "{154, 0}";
}
);
layerId = "2113D558-1B9A-4CE5-8522-23A5DC5AE0BB";
shapes = (
{
closed = 1;
nodes = (
(183,767,l),
(183,0,l),
(91,0,l),
(91,759,l)
);
}
);
width = 272;
},
{
anchors = (
{
name = m.tilde;
position = "{144, 743}";
},
{
name = m.uni031B_3;
position = "{265, 508}";
},
{
name = b.uni0324_4;
position = "{144, 0}";
}
);
layerId = "C039661A-009C-447A-BEE4-4577736CA1DB";
shapes = (
{
closed = 1;
nodes = (
(137,767,l),
(137,0,l),
(115,0,l),
(115,762,l)
);
}
);
width = 251;
}
);
leftKerningGroup = b2;
rightKerningGroup = d;
unicode = 108;
},
{
glyphname = m;
layers = (
{
anchors = (
{
name = m.tilde;
position = "{446, 515}";
},
{
name = b.uni0324_4;
position = "{446, 0}";
}
);
layerId = "C8F50A54-17AA-4C4A-B1FA-B4132557993D";
shapes = (
{
closed = 1;
nodes = (
(787,522,o),
(847,471,o),
(844,378,cs),
(847,0,l),
(637,0,l),
(648,289,l),
(648,336,o),
(629,356,o),
(596,356,cs),
(573,356,o),
(546,347,o),
(517,324,c),
(517,441,l),
(542,441,l),
(579,477,o),
(624,505,o),
(679,522,c)
);
},
{
closed = 1;
nodes = (
(246,518,l),
(254,0,l),
(44,0,l),
(46,503,l)
);
},
{
closed = 1;
nodes = (
(490,522,o),
(549,471,o),
(546,378,cs),
(550,0,l),
(340,0,l),
(351,289,l),
(351,336,o),
(333,356,o),
(298,356,cs),
(275,356,o),
(252,347,o),
(219,324,c),
(221,441,l),
(253,441,l),
(290,477,o),
(329,505,o),
(381,522,c)
);
}
);
width = 889;
},
{
anchors = (
{
name = m.tilde;
position = "{446, 515}";
},
{
name = b.uni0324_4;
position = "{446, 0}";
}
);
layerId = "2113D558-1B9A-4CE5-8522-23A5DC5AE0BB";
shapes = (
{
closed = 1;
nodes = (
(739,508,o),
(796,455,o),
(796,360,cs),
(796,0,l),
(711,0,l),
(711,339,ls),
(711,394,o),
(684,430,o),
(629,430,cs),
(577,430,o),
(525,398,o),
(474,345,c),
(464,426,l),
(482,426,l),
(529,469,o),
(582,495,o),
(627,508,c)
);
},
{
closed = 1;
nodes = (
(175,503,l),
(175,0,l),
(86,0,l),
(86,495,l)
);
},
{
closed = 1;
nodes = (
(429,508,o),
(486,455,o),
(486,360,cs),
(486,0,l),
(401,0,l),
(401,339,ls),
(401,394,o),
(374,430,o),
(319,430,cs),
(267,430,o),
(215,398,o),
(164,345,c),
(164,431,l),
(181,431,l),
(226,470,o),
(274,496,o),
(317,508,c)
);
}
);
width = 875;
},
{
anchors = (
{
name = m.tilde;
position = "{439, 508}";
},
{
name = b.uni0324_4;
position = "{440, 0}";
}
);
layerId = "C039661A-009C-447A-BEE4-4577736CA1DB";
shapes = (
{
closed = 1;
nodes = (
(711,499,o),
(762,446,o),
(762,351,cs),
(762,0,l),
(740,0,l),
(740,349,ls),
(740,432,o),
(696,477,o),
(620,477,cs),
(564,477,o),
(501,440,o),
(446,376,c),
(430,404,l),
(447,404,l),
(502,464,o),
(567,499,o),
(620,499,cs)
);
},
{
closed = 1;
nodes = (
(131,495,l),
(131,0,l),
(109,0,l),
(109,490,l)
);
},
{
closed = 1;
nodes = (
(395,499,o),
(448,446,o),
(448,351,cs),
(448,0,l),
(426,0,l),
(426,349,ls),
(426,432,o),
(382,477,o),
(306,477,cs),
(249,477,o),
(187,439,o),
(131,371,c),
(130,408,l),
(137,408,l),
(190,467,o),
(251,499,o),
(306,499,cs)
);
}
);
width = 860;
}
);
leftKerningGroup = m;
rightKerningGroup = h;
unicode = 109;
},
{
glyphname = n;
layers = (
{
anchors = (
{
name = m.tilde;
position = "{319, 515}";
},
{
name = b.uni0324_4;
position = "{306, 0}";
}
);
layerId = "C8F50A54-17AA-4C4A-B1FA-B4132557993D";
shapes = (
{
closed = 1;
nodes = (
(492,522,o),
(549,471,o),
(549,378,cs),
(549,0,l),
(351,0,l),
(351,288,l),
(351,335,o),
(332,355,o),
(299,355,cs),
(276,355,o),
(253,346,o),
(222,323,c),
(223,441,l),
(256,441,l),
(292,477,o),
(331,505,o),
(383,522,c)
);
},
{
closed = 1;
nodes = (
(248,518,l),
(248,0,l),
(46,0,l),
(46,503,l)
);
}
);
width = 594;
},
{
anchors = (
{
name = m.tilde;
position = "{319, 515}";
},
{
name = b.uni0324_4;
position = "{306, 0}";
}
);
layerId = "2113D558-1B9A-4CE5-8522-23A5DC5AE0BB";
shapes = (
{
closed = 1;
nodes = (
(429,508,o),
(486,455,o),
(486,360,cs),
(486,0,l),
(401,0,l),
(401,339,ls),
(401,394,o),
(374,430,o),
(319,430,cs),
(267,430,o),
(215,398,o),
(164,345,c),
(164,431,l),
(181,431,l),
(226,470,o),
(274,496,o),
(317,508,c)
);
},
{
closed = 1;
nodes = (
(175,503,l),
(175,0,l),
(85,0,l),
(86,495,l)
);
}
);
width = 565;
},
{
anchors = (
{
name = m.tilde;
position = "{306, 508}";
},
{
name = b.uni0324_4;
position = "{293, 0}";
}
);
layerId = "C039661A-009C-447A-BEE4-4577736CA1DB";
shapes = (
{
closed = 1;
nodes = (
(398,499,o),
(449,446,o),
(449,351,cs),
(449,0,l),
(427,0,l),
(427,349,ls),
(427,432,o),
(383,477,o),
(306,477,cs),
(249,477,o),
(185,439,o),
(130,371,c),
(129,408,l),
(135,408,l),
(190,467,o),
(251,499,o),
(306,499,cs)
);
},
{
closed = 1;
nodes = (
(131,495,l),
(131,0,l),
(109,0,l),
(109,490,l)
);
}
);
width = 547;
}
);
leftKerningGroup = m;
rightKerningGroup = h;
unicode = 110;
},
{
glyphname = o;
layers = (
{
anchors = (
{
name = m.tilde;
position = "{274, 515}";
},
{
name = b.uni049C_2;
position = "{272, 258}";
},
{
name = m.uni031B_3;
position = "{521, 515}";
},
{
name = b.uni0324_4;
position = "{272, 0}";
},
{
name = m.uni0328_5;
position = "{444, 52}";
}
);
layerId = "C8F50A54-17AA-4C4A-B1FA-B4132557993D";
shapes = (
{
closed = 1;
nodes = (
(444,529,o),
(527,439,o),
(527,270,cs),
(527,83,o),
(437,-13,o),
(262,-13,cs),
(99,-13,o),
(15,75,o),
(15,244,cs),
(15,431,o),
(106,529,o),
(281,529,cs)
);
},
{
closed = 1;
nodes = (
(244,385,o),
(231,378,o),
(224,365,cs),
(217,352,o),
(214,324,o),
(214,281,cs),
(214,238,o),
(216,206,o),
(219,184,cs),
(226,139,o),
(242,124,o),
(277,124,cs),
(298,124,o),
(312,131,o),
(319,145,cs),
(325,158,o),
(328,187,o),
(328,230,cs),
(328,273,o),
(326,305,o),
(323,327,cs),
(316,371,o),
(301,385,o),
(265,385,cs)
);
}
);
width = 543;
},
{
anchors = (
{
name = m.tilde;
position = "{274, 515}";
},
{
name = b.uni049C_2;
position = "{272, 258}";
},
{
name = m.uni031B_3;
position = "{521, 515}";
},
{
name = b.uni0324_4;
position = "{272, 0}";
},
{
name = m.uni0328_5;
position = "{444, 52}";
}
);
layerId = "2113D558-1B9A-4CE5-8522-23A5DC5AE0BB";
shapes = (
{
closed = 1;
nodes = (
(413,510,o),
(490,418,o),
(490,258,cs),
(490,89,o),
(408,-9,o),
(261,-9,cs),
(124,-9,o),
(45,83,o),
(45,244,cs),
(45,412,o),
(129,510,o),
(274,510,cs)
);
},
{
closed = 1;
nodes = (
(224,444,o),
(190,429,o),
(167,399,cs),
(144,368,o),
(132,324,o),
(132,265,cs),
(132,218,o),
(137,180,o),
(148,149,cs),
(168,88,o),
(209,57,o),
(266,57,cs),
(311,57,o),
(346,72,o),
(369,102,cs),
(392,131,o),
(403,176,o),
(403,236,cs),
(403,283,o),
(398,321,o),
(388,352,cs),
(367,412,o),
(326,444,o),
(269,444,cs)
);
}
);
width = 536;
},
{
anchors = (
{
name = m.tilde;
position = "{271, 508}";
},
{
name = b.uni049C_2;
position = "{270, 253}";
},
{
name = m.uni031B_3;
position = "{517, 508}";
},
{
name = b.uni0324_4;
position = "{270, 0}";
},
{
name = m.uni0328_5;
position = "{416, 43}";
}
);
layerId = "C039661A-009C-447A-BEE4-4577736CA1DB";
shapes = (
{
closed = 1;
nodes = (
(394,499,o),
(468,406,o),
(468,251,cs),
(468,92,o),
(390,-5,o),
(261,-5,cs),
(137,-5,o),
(61,89,o),
(61,242,cs),
(61,403,o),
(141,499,o),
(269,499,cs)
);
},
{
closed = 1;
nodes = (
(211,477,o),
(166,456,o),
(133,415,cs),
(100,374,o),
(83,316,o),
(83,242,cs),
(83,196,o),
(90,156,o),
(105,122,cs),
(133,54,o),
(188,16,o),
(261,16,cs),
(319,16,o),
(365,37,o),
(398,79,cs),
(431,121,o),
(447,178,o),
(447,251,cs),
(447,298,o),
(440,339,o),
(426,373,cs),
(397,440,o),
(342,477,o),
(269,477,cs)
);
}
);
width = 532;
}
);
leftKerningGroup = c2;
rightKerningGroup = b;
unicode = 111;
},
{
glyphname = p;
layers = (
{
anchors = (
{
name = m.tilde;
position = "{290, 515}";
},
{
name = b.uni0324_4;
position = "{290, 0}";
}
);
layerId = "C8F50A54-17AA-4C4A-B1FA-B4132557993D";
shapes = (
{
closed = 1;
nodes = (
(487,523,o),
(562,431,o),
(562,271,cs),
(562,90,o),
(467,-13,o),
(298,-13,cs),
(231,-13,o),
(168,4,o),
(83,47,c),
(83,229,l),
(113,196,o),
(147,170,o),
(185,149,cs),
(222,128,o),
(256,118,o),
(286,118,cs),
(341,118,o),
(363,154,o),
(363,237,cs),
(363,318,o),
(341,355,o),
(289,355,cs),
(269,355,o),
(251,348,o),
(228,329,c),
(228,441,l),
(254,441,l),
(285,477,o),
(320,504,o),
(359,523,c)
);
},
{
closed = 1;
nodes = (
(247,518,l),
(247,-202,l),
(45,-202,l),
(45,503,l)
);
}
);
width = 578;
},
{
anchors = (
{
name = m.tilde;
position = "{290, 515}";
},
{
name = b.uni0324_4;
position = "{290, 0}";
}
);
layerId = "2113D558-1B9A-4CE5-8522-23A5DC5AE0BB";
shapes = (
{
closed = 1;
nodes = (
(442,507,o),
(511,421,o),
(511,265,cs),
(511,90,o),
(422,-9,o),
(266,-9,cs),
(217,-9,o),
(156,3,o),
(100,20,c),
(105,132,l),
(137,107,o),
(167,89,o),
(196,77,c),
(224,64,o),
(251,58,o),
(278,58,cs),
(373,58,o),
(427,131,o),
(424,256,cs),
(423,368,o),
(381,430,o),
(308,430,cs),
(261,430,o),
(217,405,o),
(164,345,c),
(164,432,l),
(181,432,l),
(232,473,o),
(265,492,o),
(317,507,c)
);
},
{
closed = 1;
nodes = (
(175,503,l),
(175,-202,l),
(85,-202,l),
(85,495,l)
);
}
);
width = 557;
},
{
anchors = (
{
name = m.tilde;
position = "{283, 508}";
},
{
name = b.uni0324_4;
position = "{283, 0}";
}
);
layerId = "C039661A-009C-447A-BEE4-4577736CA1DB";
shapes = (
{
closed = 1;
nodes = (
(412,499,o),
(480,411,o),
(480,260,cs),
(480,92,o),
(396,-5,o),
(249,-5,cs),
(198,-5,o),
(148,0,o),
(109,11,c),
(117,32,l),
(140,27,o),
(164,23,o),
(187,20,cs),
(210,17,o),
(231,16,o),
(249,16,cs),
(382,16,o),
(459,105,o),
(459,260,cs),
(459,399,o),
(399,477,o),
(296,477,cs),
(229,477,o),
(167,440,o),
(120,371,c),
(109,422,l),
(134,422,l),
(177,471,o),
(236,499,o),
(296,499,cs)
);
},
{
closed = 1;
nodes = (
(131,495,l),
(131,-202,l),
(109,-202,l),
(109,490,l)
);
}
);
width = 544;
}
);
leftKerningGroup = p;
rightKerningGroup = b;
unicode = 112;
},
{
glyphname = q;
layers = (
{
layerId = "C8F50A54-17AA-4C4A-B1FA-B4132557993D";
shapes = (
{
closed = 1;
nodes = (
(517,529,l),
(534,519,l),
(534,-202,l),
(330,-202,l),
(330,50,l),
(322,50,l),
(298,26,o),
(269,5,o),
(237,-10,c),
(166,-10,o),
(112,14,o),
(73,61,cs),
(34,108,o),
(15,170,o),
(15,249,cs),
(15,311,o),
(27,362,o),
(50,403,cs),
(96,484,o),
(176,525,o),
(272,525,cs),
(327,525,o),
(361,512,o),
(404,496,c)
);
},
{
closed = 1;
nodes = (
(228,384,o),
(214,362,o),
(214,283,cs),
(214,190,o),
(236,147,o),
(277,147,cs),
(297,147,o),
(315,154,o),
(330,169,c),
(330,373,l),
(311,381,o),
(295,384,o),
(276,384,cs)
);
}
);
width = 578;
},
{
layerId = "2113D558-1B9A-4CE5-8522-23A5DC5AE0BB";
shapes = (
{
closed = 1;
nodes = (
(464,508,l),
(473,502,l),
(472,-202,l),
(384,-202,l),
(384,58,l),
(375,58,l),
(338,29,o),
(311,14,o),
(266,-5,c),
(193,-5,o),
(138,17,o),
(101,62,cs),
(64,107,o),
(45,168,o),
(45,247,cs),
(45,304,o),
(55,353,o),
(75,392,cs),
(114,470,o),
(187,510,o),
(287,510,cs),
(331,510,o),
(377,502,o),
(418,490,c)
);
},
{
closed = 1;
nodes = (
(189,443,o),
(131,385,o),
(132,254,c),
(135,139,o),
(182,73,o),
(262,73,cs),
(299,73,o),
(336,86,o),
(384,137,c),
(384,413,l),
(347,433,o),
(311,443,o),
(276,443,cs)
);
}
);
width = 558;
},
{
layerId = "C039661A-009C-447A-BEE4-4577736CA1DB";
shapes = (
{
closed = 1;
nodes = (
(428,497,l),
(432,494,l),
(432,-202,l),
(411,-202,l),
(411,75,l),
(407,75,l),
(362,23,o),
(314,-5,o),
(250,-5,cs),
(194,-5,o),
(149,16,o),
(114,59,cs),
(79,101,o),
(61,161,o),
(61,239,cs),
(61,294,o),
(70,341,o),
(89,380,cs),
(125,457,o),
(195,499,o),
(288,499,cs),
(331,499,o),
(374,490,o),
(411,483,c)
);
},
{
closed = 1;
nodes = (
(160,477,o),
(83,390,o),
(83,238,cs),
(83,97,o),
(152,16,o),
(251,16,cs),
(315,16,o),
(368,51,o),
(411,110,c),
(411,459,l),
(366,470,o),
(327,477,o),
(292,477,cs)
);
}
);
width = 542;
}
);
leftKerningGroup = c2;
unicode = 113;
},
{
glyphname = r;
layers = (
{
anchors = (
{
name = m.tilde;
position = "{232, 515}";
},
{
name = b.uni0324_4;
position = "{149, 0}";
}
);
layerId = "C8F50A54-17AA-4C4A-B1FA-B4132557993D";
shapes = (
{
closed = 1;
nodes = (
(248,518,l),
(248,0,l),
(46,0,l),
(46,503,l)
);
},
{
closed = 1;
nodes = (
(391,517,o),
(399,518,o),
(408,514,c),
(408,323,l),
(388,317,l),
(377,324,o),
(364,325,o),
(348,325,cs),
(311,325,o),
(262,305,o),
(227,262,c),
(227,422,l),
(258,422,l),
(287,481,o),
(327,517,o),
(383,517,cs)
);
}
);
width = 411;
},
{
anchors = (
{
name = m.tilde;
position = "{232, 515}";
},
{
name = b.uni0324_4;
position = "{149, 0}";
}
);
layerId = "2113D558-1B9A-4CE5-8522-23A5DC5AE0BB";
shapes = (
{
closed = 1;
nodes = (
(175,503,l),
(175,0,l),
(86,0,l),
(86,495,l)
);
},
{
closed = 1;
nodes = (
(331,502,o),
(341,501,o),
(348,500,c),
(348,410,l),
(337,406,l),
(324,411,o),
(306,412,o),
(297,412,cs),
(248,412,o),
(208,374,o),
(165,275,c),
(165,402,l),
(180,402,l),
(225,481,o),
(279,502,o),
(320,502,cs)
);
}
);
width = 356;
},
{
anchors = (
{
name = m.tilde;
position = "{219, 508}";
},
{
name = b.uni0324_4;
position = "{138, 0}";
}
);
layerId = "C039661A-009C-447A-BEE4-4577736CA1DB";
shapes = (
{
closed = 1;
nodes = (
(131,495,l),
(131,0,l),
(109,0,l),
(109,490,l)
);
},
{
closed = 1;
nodes = (
(295,494,o),
(306,492,o),
(313,491,c),
(313,471,l),
(308,468,l),
(297,472,o),
(286,472,o),
(278,472,cs),
(227,472,o),
(180,427,o),
(129,324,c),
(129,373,l),
(135,373,l),
(180,456,o),
(227,494,o),
(284,494,cs)
);
}
);
width = 324;
}
);
leftKerningGroup = m;
rightKerningGroup = r;
unicode = 114;
},
{
glyphname = s;
layers = (
{
anchors = (
{
name = m.tilde;
position = "{223, 515}";
},
{
name = b.uni0324_4;
position = "{219, 0}";
}
);
layerId = "C8F50A54-17AA-4C4A-B1FA-B4132557993D";
shapes = (
{
closed = 1;
nodes = (
(312,527,o),
(370,516,o),
(415,500,c),
(388,353,l),
(364,345,l),
(312,377,o),
(257,395,o),
(228,395,cs),
(207,395,o),
(200,385,o),
(200,376,cs),
(200,366,o),
(206,358,o),
(217,352,cs),
(239,339,o),
(273,328,o),
(312,313,cs),
(331,305,o),
(349,295,o),
(366,283,cs),
(399,259,o),
(424,224,o),
(424,168,cs),
(424,138,o),
(416,109,o),
(401,82,cs),
(370,26,o),
(303,-13,o),
(191,-13,cs),
(142,-13,o),
(76,-5,o),
(8,15,c),
(33,171,l),
(50,185,l),
(78,163,o),
(108,146,o),
(140,134,cs),
(171,122,o),
(197,116,o),
(217,116,cs),
(228,116,o),
(236,118,o),
(241,122,cs),
(246,125,o),
(248,130,o),
(248,137,cs),
(248,147,o),
(243,155,o),
(232,161,cs),
(210,173,o),
(174,184,o),
(136,200,cs),
(117,208,o),
(99,218,o),
(82,230,cs),
(48,253,o),
(23,290,o),
(23,345,cs),
(23,379,o),
(32,410,o),
(50,438,cs),
(85,493,o),
(156,527,o),
(253,527,cs)
);
}
);
width = 439;
},
{
anchors = (
{
name = m.tilde;
position = "{223, 515}";
},
{
name = b.uni0324_4;
position = "{219, 0}";
}
);
layerId = "2113D558-1B9A-4CE5-8522-23A5DC5AE0BB";
shapes = (
{
closed = 1;
nodes = (
(264,509,o),
(308,501,o),
(347,485,c),
(334,408,l),
(321,405,l),
(285,430,o),
(249,442,o),
(214,442,cs),
(165,442,o),
(135,410,o),
(135,375,cs),
(135,359,o),
(141,346,o),
(152,335,cs),
(174,313,o),
(209,297,o),
(248,281,c),
(267,272,o),
(286,262,o),
(303,251,cs),
(338,228,o),
(361,196,o),
(361,145,cs),
(361,119,o),
(354,94,o),
(341,71,cs),
(314,23,o),
(260,-9,o),
(181,-9,cs),
(133,-9,o),
(81,3,o),
(34,26,c),
(45,107,l),
(56,114,l),
(77,95,o),
(99,81,o),
(123,72,cs),
(147,62,o),
(169,57,o),
(190,57,cs),
(218,57,o),
(239,65,o),
(254,80,cs),
(269,95,o),
(276,111,o),
(276,129,cs),
(276,146,o),
(271,159,o),
(260,170,cs),
(239,191,o),
(202,207,o),
(163,224,cs),
(144,233,o),
(126,243,o),
(109,255,cs),
(75,278,o),
(50,310,o),
(50,363,cs),
(50,391,o),
(57,416,o),
(71,438,cs),
(99,482,o),
(152,509,o),
(225,509,cs)
);
}
);
width = 405;
},
{
anchors = (
{
name = m.tilde;
position = "{212, 508}";
},
{
name = b.uni0324_4;
position = "{203, 0}";
}
);
layerId = "C039661A-009C-447A-BEE4-4577736CA1DB";
shapes = (
{
closed = 1;
nodes = (
(240,497,o),
(274,491,o),
(313,475,c),
(308,454,l),
(301,453,l),
(268,469,o),
(235,475,o),
(210,475,cs),
(135,475,o),
(87,429,o),
(87,373,cs),
(87,353,o),
(93,336,o),
(105,322,cs),
(128,293,o),
(168,276,o),
(209,258,cs),
(229,249,o),
(248,238,o),
(267,227,cs),
(304,204,o),
(330,175,o),
(330,128,cs),
(330,104,o),
(323,82,o),
(310,62,cs),
(283,22,o),
(236,-5,o),
(175,-5,cs),
(130,-5,o),
(82,9,o),
(49,33,c),
(52,51,l),
(58,55,l),
(75,42,o),
(93,33,o),
(113,26,cs),
(133,19,o),
(153,16,o),
(174,16,cs),
(217,16,o),
(250,28,o),
(273,51,cs),
(296,74,o),
(308,99,o),
(308,127,cs),
(308,147,o),
(302,164,o),
(291,178,cs),
(267,206,o),
(227,223,o),
(187,243,c),
(166,252,o),
(147,262,o),
(128,273,cs),
(91,294,o),
(66,327,o),
(66,375,cs),
(66,399,o),
(72,420,o),
(84,438,cs),
(108,474,o),
(152,497,o),
(211,497,cs)
);
}
);
width = 390;
}
);
leftKerningGroup = s2;
rightKerningGroup = s;
unicode = 115;
},
{
glyphname = t;
layers = (
{
anchors = (
{
name = m.tilde;
position = "{182, 596}";
},
{
name = b.uni049C_2;
position = "{198, 258}";
},
{
name = m.uni031B_3;
position = "{383, 515}";
},
{
name = b.uni0324_4;
position = "{230, 0}";
}
);
layerId = "C8F50A54-17AA-4C4A-B1FA-B4132557993D";
shapes = (
{
closed = 1;
nodes = (
(133,-8,o),
(64,50,o),
(64,137,c),
(64,603,l),
(249,655,l),
(263,643,l),
(263,202,l),
(263,167,o),
(274,155,o),
(306,155,cs),
(325,155,o),
(350,161,o),
(371,168,c),
(384,152,l),
(365,34,l),
(334,15,o),
(290,0,o),
(249,-8,c)
);
},
{
closed = 1;
nodes = (
(2,387,l),
(-3,397,l),
(5,510,l),
(381,510,l),
(387,499,l),
(378,387,l)
);
}
);
width = 394;
},
{
anchors = (
{
name = m.tilde;
position = "{182, 596}";
},
{
name = b.uni049C_2;
position = "{198, 258}";
},
{
name = m.uni031B_3;
position = "{383, 515}";
},
{
name = b.uni0324_4;
position = "{230, 0}";
}
);
layerId = "2113D558-1B9A-4CE5-8522-23A5DC5AE0BB";
shapes = (
{
closed = 1;
nodes = (
(131,12,o),
(96,52,o),
(96,139,c),
(96,577,l),
(170,612,l),
(179,604,l),
(179,147,ls),
(179,90,o),
(200,71,o),
(247,71,cs),
(270,71,o),
(293,77,o),
(325,93,c),
(335,86,l),
(327,25,l),
(286,6,o),
(254,-3,o),
(215,-7,c)
);
},
{
closed = 1;
nodes = (
(31,438,l),
(26,444,l),
(32,499,l),
(332,499,l),
(336,492,l),
(331,438,l)
);
}
);
width = 351;
},
{
anchors = (
{
name = m.tilde;
position = "{163, 579}";
},
{
name = b.uni049C_2;
position = "{185, 253}";
},
{
name = m.uni031B_3;
position = "{304, 508}";
},
{
name = b.uni0324_4;
position = "{227, 0}";
}
);
layerId = "C039661A-009C-447A-BEE4-4577736CA1DB";
shapes = (
{
closed = 1;
nodes = (
(153,-4,o),
(116,42,o),
(116,122,cs),
(116,612,l),
(133,618,l),
(138,615,l),
(138,123,ls),
(138,56,o),
(166,17,o),
(218,17,cs),
(245,17,o),
(276,27,o),
(304,46,c),
(308,43,l),
(306,23,l),
(275,6,o),
(243,-4,o),
(218,-4,cs)
);
},
{
closed = 1;
nodes = (
(48,472,l),
(44,476,l),
(47,494,l),
(307,494,l),
(310,489,l),
(307,472,l)
);
}
);
width = 325;
}
);
leftKerningGroup = t2;
rightKerningGroup = t;
unicode = 116;
},
{
glyphname = u;
layers = (
{
anchors = (
{
name = m.tilde;
position = "{287, 515}";
},
{
name = m.uni0328_5;
position = "{554, 22}";
}
);
layerId = "C8F50A54-17AA-4C4A-B1FA-B4132557993D";
shapes = (
{
closed = 1;
nodes = (
(106,-7,o),
(45,45,o),
(45,138,c),
(45,503,l),
(244,518,l),
(244,222,ls),
(244,178,o),
(257,162,o),
(288,162,cs),
(313,162,o),
(326,170,o),
(354,193,c),
(370,81,l),
(340,81,l),
(300,37,o),
(263,9,o),
(214,-7,c)
);
},
{
closed = 1;
nodes = (
(385,2,o),
(347,59,o),
(335,156,c),
(335,503,l),
(525,518,l),
(525,162,l),
(525,146,o),
(530,139,o),
(541,139,cs),
(546,139,o),
(552,141,o),
(559,142,c),
(572,131,l),
(554,22,l),
(522,2,o),
(487,-12,o),
(444,-11,c)
);
}
);
width = 585;
},
{
anchors = (
{
name = m.tilde;
position = "{287, 515}";
},
{
name = m.uni0328_5;
position = "{554, 22}";
}
);
layerId = "2113D558-1B9A-4CE5-8522-23A5DC5AE0BB";
shapes = (
{
closed = 1;
nodes = (
(136,-7,o),
(79,48,o),
(79,141,cs),
(79,495,l),
(164,503,l),
(164,163,ls),
(164,107,o),
(190,71,o),
(245,71,cs),
(293,71,o),
(344,98,o),
(391,149,c),
(403,68,l),
(378,68,l),
(334,29,o),
(288,5,o),
(247,-7,c)
);
},
{
closed = 1;
nodes = (
(408,1,o),
(384,37,o),
(377,124,c),
(377,495,l),
(459,503,l),
(459,109,ls),
(459,80,o),
(467,70,o),
(490,70,cs),
(501,70,o),
(510,71,o),
(527,75,c),
(536,68,l),
(527,15,l),
(508,6,o),
(485,-3,o),
(464,-7,c)
);
}
);
width = 558;
},
{
anchors = (
{
name = m.tilde;
position = "{286, 508}";
},
{
name = m.uni0328_5;
position = "{541, 19}";
}
);
layerId = "C039661A-009C-447A-BEE4-4577736CA1DB";
shapes = (
{
closed = 1;
nodes = (
(144,-4,o),
(98,49,o),
(98,144,cs),
(98,490,l),
(120,495,l),
(120,145,ls),
(120,64,o),
(159,17,o),
(230,17,cs),
(290,17,o),
(354,54,o),
(413,126,c),
(414,86,l),
(402,86,l),
(347,29,o),
(287,-4,o),
(227,-4,cs)
);
},
{
closed = 1;
nodes = (
(425,-3,o),
(406,24,o),
(406,87,cs),
(406,490,l),
(428,495,l),
(428,86,ls),
(428,39,o),
(440,19,o),
(467,19,cs),
(483,19,o),
(500,24,o),
(512,35,c),
(519,32,l),
(514,12,l),
(499,1,o),
(482,-3,o),
(465,-3,cs)
);
}
);
width = 550;
}
);
leftKerningGroup = t2;
rightKerningGroup = a;
unicode = 117;
},
{
glyphname = v;
layers = (
{
layerId = "C8F50A54-17AA-4C4A-B1FA-B4132557993D";
shapes = (
{
closed = 1;
nodes = (
(199,520,l),
(251,195,l),
(262,195,l),
(331,515,l),
(514,515,l),
(361,0,l),
(130,0,l),
(0,512,l)
);
}
);
width = 511;
},
{
layerId = "2113D558-1B9A-4CE5-8522-23A5DC5AE0BB";
shapes = (
{
closed = 1;
nodes = (
(108,505,l),
(227,92,l),
(234,92,l),
(375,501,l),
(458,501,l),
(275,0,l),
(176,0,l),
(22,499,l)
);
}
);
width = 466;
},
{
layerId = "C039661A-009C-447A-BEE4-4577736CA1DB";
shapes = (
{
closed = 1;
nodes = (
(44,496,l),
(200,34,l),
(204,34,l),
(385,494,l),
(412,494,l),
(213,0,l),
(189,0,l),
(21,491,l)
);
}
);
width = 419;
}
);
leftKerningGroup = v2;
rightKerningGroup = v;
unicode = 118;
},
{
glyphname = w;
layers = (
{
anchors = (
{
name = m.tilde;
position = "{404, 515}";
}
);
layerId = "C8F50A54-17AA-4C4A-B1FA-B4132557993D";
shapes = (
{
closed = 1;
nodes = (
(198,520,l),
(209,423,l),
(238,209,l),
(249,209,l),
(290,411,l),
(309,515,l),
(514,515,l),
(524,423,l),
(558,210,l),
(569,210,l),
(607,411,l),
(627,515,l),
(802,515,l),
(652,0,l),
(452,0,l),
(405,256,l),
(392,256,l),
(337,0,l),
(129,0,l),
(5,512,l)
);
}
);
width = 792;
},
{
anchors = (
{
name = m.tilde;
position = "{404, 515}";
}
);
layerId = "2113D558-1B9A-4CE5-8522-23A5DC5AE0BB";
shapes = (
{
closed = 1;
nodes = (
(107,505,l),
(119,438,l),
(207,99,l),
(214,99,l),
(317,434,l),
(334,501,l),
(425,501,l),
(437,438,l),
(525,99,l),
(532,99,l),
(634,434,l),
(651,501,l),
(732,501,l),
(568,0,l),
(479,0,l),
(378,381,l),
(370,381,l),
(252,0,l),
(161,0,l),
(22,499,l)
);
}
);
width = 740;
},
{
anchors = (
{
name = m.tilde;
position = "{377, 508}";
}
);
layerId = "C039661A-009C-447A-BEE4-4577736CA1DB";
shapes = (
{
closed = 1;
nodes = (
(44,496,l),
(57,447,l),
(179,35,l),
(183,35,l),
(323,447,l),
(339,494,l),
(364,494,l),
(376,447,l),
(497,35,l),
(501,35,l),
(642,447,l),
(657,494,l),
(683,494,l),
(510,0,l),
(486,0,l),
(352,454,l),
(347,454,l),
(192,0,l),
(168,0,l),
(21,491,l)
);
}
);
width = 690;
}
);
leftKerningGroup = v2;
rightKerningGroup = v;
unicode = 119;
},
{
glyphname = x;
layers = (
{
layerId = "C8F50A54-17AA-4C4A-B1FA-B4132557993D";
shapes = (
{
closed = 1;
nodes = (
(228,519,l),
(284,376,l),
(353,514,l),
(535,514,l),
(399,260,l),
(535,5,l),
(311,-9,l),
(253,140,l),
(186,0,l),
(2,0,l),
(137,256,l),
(0,511,l)
);
}
);
width = 535;
},
{
layerId = "2113D558-1B9A-4CE5-8522-23A5DC5AE0BB";
shapes = (
{
closed = 1;
nodes = (
(124,505,l),
(246,308,l),
(363,501,l),
(448,501,l),
(294,256,l),
(460,4,l),
(361,-4,l),
(234,202,l),
(110,0,l),
(25,0,l),
(183,254,l),
(25,498,l)
);
}
);
width = 478;
},
{
layerId = "C039661A-009C-447A-BEE4-4577736CA1DB";
shapes = (
{
closed = 1;
nodes = (
(69,496,l),
(223,271,l),
(376,494,l),
(405,494,l),
(236,252,l),
(412,3,l),
(385,-2,l),
(222,236,l),
(59,0,l),
(29,0,l),
(209,254,l),
(43,490,l)
);
}
);
width = 447;
}
);
leftKerningGroup = x;
rightKerningGroup = k;
unicode = 120;
},
{
glyphname = y;
layers = (
{
anchors = (
{
name = m.tilde;
position = "{264, 515}";
}
);
layerId = "C8F50A54-17AA-4C4A-B1FA-B4132557993D";
shapes = (
{
closed = 1;
nodes = (
(190,520,l),
(263,206,l),
(274,206,l),
(346,515,l),
(525,515,l),
(375,54,ls),
(359,4,o),
(339,-38,o),
(316,-71,cs),
(269,-137,o),
(199,-177,o),
(87,-212,c),
(73,-210,l),
(34,-171,o),
(5,-130,o),
(-20,-83,c),
(-12,-64,l),
(11,-61,o),
(32,-56,o),
(53,-51,cs),
(94,-40,o),
(135,-21,o),
(174,0,c),
(-13,512,l)
);
}
);
width = 514;
},
{
anchors = (
{
name = m.tilde;
position = "{264, 515}";
}
);
layerId = "2113D558-1B9A-4CE5-8522-23A5DC5AE0BB";
shapes = (
{
closed = 1;
nodes = (
(96,505,l),
(230,99,l),
(238,99,l),
(376,501,l),
(458,501,l),
(280,20,ls),
(262,-29,o),
(243,-69,o),
(222,-98,cs),
(180,-156,o),
(121,-185,o),
(28,-209,c),
(20,-209,l),
(4,-193,o),
(-8,-173,o),
(-19,-154,c),
(-16,-143,l),
(19,-136,o),
(48,-128,o),
(73,-118,cs),
(121,-98,o),
(157,-63,o),
(192,0,c),
(9,499,l)
);
}
);
width = 468;
},
{
anchors = (
{
name = m.tilde;
position = "{250, 508}";
}
);
layerId = "C039661A-009C-447A-BEE4-4577736CA1DB";
shapes = (
{
closed = 1;
nodes = (
(44,496,l),
(212,39,l),
(217,39,l),
(393,494,l),
(419,494,l),
(226,0,ls),
(207,-48,o),
(188,-86,o),
(169,-113,cs),
(129,-168,o),
(79,-191,o),
(-4,-207,c),
(-10,-207,l),
(-14,-203,o),
(-15,-199,o),
(-19,-194,c),
(-19,-188,l),
(23,-179,o),
(57,-169,o),
(84,-157,c),
(136,-132,o),
(170,-85,o),
(202,0,c),
(21,491,l)
);
}
);
width = 442;
}
);
leftKerningGroup = v2;
rightKerningGroup = v;
unicode = 121;
},
{
glyphname = z;
layers = (
{
anchors = (
{
name = m.tilde;
position = "{239, 515}";
},
{
name = b.uni0324_4;
position = "{239, 0}";
}
);
layerId = "C8F50A54-17AA-4C4A-B1FA-B4132557993D";
shapes = (
{
closed = 1;
nodes = (
(32,515,l),
(451,515,l),
(451,392,l),
(245,131,l),
(453,131,l),
(464,118,l),
(451,0,l),
(22,0,l),
(22,119,l),
(232,384,l),
(29,384,l),
(19,397,l)
);
}
);
width = 478;
},
{
anchors = (
{
name = m.tilde;
position = "{239, 515}";
},
{
name = b.uni0324_4;
position = "{239, 0}";
}
);
layerId = "2113D558-1B9A-4CE5-8522-23A5DC5AE0BB";
shapes = (
{
closed = 1;
nodes = (
(50,501,l),
(408,502,l),
(411,446,l),
(134,64,l),
(411,64,l),
(416,57,l),
(408,0,l),
(36,0,l),
(35,54,l),
(312,437,l),
(49,437,l),
(43,445,l)
);
}
);
width = 451;
},
{
anchors = (
{
name = m.tilde;
position = "{232, 508}";
},
{
name = b.uni0324_4;
position = "{232, 0}";
}
);
layerId = "C039661A-009C-447A-BEE4-4577736CA1DB";
shapes = (
{
closed = 1;
nodes = (
(60,494,l),
(389,494,l),
(390,476,l),
(72,22,l),
(389,23,l),
(392,19,l),
(388,0,l),
(41,0,l),
(41,17,l),
(359,472,l),
(60,472,l),
(56,476,l)
);
}
);
width = 436;
}
);
leftKerningGroup = z2;
rightKerningGroup = z;
unicode = 122;
},
{
glyphname = braceleft;
layers = (
{
layerId = "C8F50A54-17AA-4C4A-B1FA-B4132557993D";
shapes = (
{
closed = 1;
nodes = (
(269,720,o),
(298,715,o),
(325,707,c),
(333,692,l),
(317,587,l),
(305,591,o),
(292,593,o),
(281,593,cs),
(249,593,o),
(230,574,o),
(230,541,cs),
(230,528,o),
(233,515,o),
(238,502,cs),
(248,475,o),
(259,447,o),
(259,419,cs),
(259,372,o),
(234,331,o),
(182,307,c),
(182,299,l),
(234,276,o),
(259,233,o),
(259,189,cs),
(259,174,o),
(257,160,o),
(252,146,cs),
(243,117,o),
(230,91,o),
(230,66,cs),
(230,33,o),
(249,13,o),
(281,13,cs),
(292,13,o),
(305,15,o),
(317,19,c),
(333,-86,l),
(325,-100,l),
(298,-109,o),
(269,-114,o),
(238,-114,cs),
(126,-114,o),
(64,-62,o),
(64,22,cs),
(64,43,o),
(66,63,o),
(70,82,cs),
(78,118,o),
(88,151,o),
(88,179,cs),
(88,212,o),
(68,240,o),
(28,256,c),
(28,351,l),
(68,367,o),
(88,394,o),
(88,427,cs),
(88,442,o),
(86,457,o),
(82,473,cs),
(74,505,o),
(64,543,o),
(64,584,cs),
(64,671,o),
(126,720,o),
(238,720,cs)
);
}
);
width = 330;
},
{
layerId = "2113D558-1B9A-4CE5-8522-23A5DC5AE0BB";
shapes = (
{
closed = 1;
nodes = (
(264,715,o),
(280,712,o),
(299,708,c),
(304,700,l),
(295,650,l),
(280,653,o),
(269,655,o),
(254,655,cs),
(210,655,o),
(188,630,o),
(188,577,cs),
(188,559,o),
(190,540,o),
(194,519,cs),
(201,477,o),
(211,433,o),
(211,401,cs),
(211,346,o),
(186,309,o),
(138,288,c),
(138,284,l),
(186,264,o),
(211,224,o),
(211,173,cs),
(211,156,o),
(209,137,o),
(205,116,cs),
(197,75,o),
(188,32,o),
(188,-4,cs),
(188,-59,o),
(210,-84,o),
(254,-84,cs),
(269,-84,o),
(280,-82,o),
(295,-79,c),
(304,-128,l),
(299,-135,l),
(280,-142,o),
(264,-143,o),
(241,-143,cs),
(157,-143,o),
(114,-100,o),
(114,-20,cs),
(114,1,o),
(116,24,o),
(119,47,cs),
(126,93,o),
(135,136,o),
(135,168,cs),
(135,220,o),
(108,251,o),
(48,262,c),
(48,309,l),
(108,321,o),
(135,352,o),
(135,403,cs),
(135,419,o),
(133,438,o),
(130,459,c),
(122,502,o),
(114,549,o),
(114,592,cs),
(114,673,o),
(157,715,o),
(241,715,cs)
);
}
);
width = 316;
},
{
layerId = "C039661A-009C-447A-BEE4-4577736CA1DB";
shapes = (
{
closed = 1;
nodes = (
(260,713,o),
(272,711,o),
(284,708,c),
(287,704,l),
(283,686,l),
(266,689,o),
(255,691,o),
(240,691,cs),
(188,691,o),
(163,663,o),
(163,596,cs),
(163,576,o),
(165,553,o),
(169,528,cs),
(176,477,o),
(183,426,o),
(183,390,cs),
(183,333,o),
(159,297,o),
(111,277,c),
(111,275,l),
(159,256,o),
(183,219,o),
(183,163,cs),
(183,144,o),
(182,123,o),
(179,99,cs),
(173,50,o),
(163,-3,o),
(163,-44,cs),
(163,-111,o),
(188,-139,o),
(240,-139,cs),
(255,-139,o),
(266,-136,o),
(283,-133,c),
(287,-152,l),
(284,-155,l),
(272,-158,o),
(260,-161,o),
(244,-161,cs),
(176,-161,o),
(141,-121,o),
(141,-44,cs),
(141,-23,o),
(143,1,o),
(147,26,cs),
(154,77,o),
(162,130,o),
(162,163,cs),
(162,226,o),
(130,258,o),
(59,266,c),
(59,286,l),
(130,295,o),
(162,327,o),
(162,390,cs),
(162,407,o),
(160,428,o),
(157,452,cs),
(150,500,o),
(141,555,o),
(141,596,cs),
(141,673,o),
(176,713,o),
(244,713,cs)
);
}
);
width = 307;
}
);
unicode = 123;
},
{
glyphname = bar;
layers = (
{
layerId = "C8F50A54-17AA-4C4A-B1FA-B4132557993D";
shapes = (
{
closed = 1;
nodes = (
(232,885,l),
(247,870,l),
(247,-268,l),
(98,-280,l),
(82,-262,l),
(82,873,l)
);
}
);
width = 328;
},
{
layerId = "2113D558-1B9A-4CE5-8522-23A5DC5AE0BB";
shapes = (
{
closed = 1;
nodes = (
(201,871,l),
(207,865,l),
(207,-282,l),
(142,-286,l),
(134,-276,l),
(134,866,l)
);
}
);
width = 342;
},
{
layerId = "C039661A-009C-447A-BEE4-4577736CA1DB";
shapes = (
{
closed = 1;
nodes = (
(183,864,l),
(186,862,l),
(186,-289,l),
(167,-289,l),
(164,-285,l),
(164,862,l)
);
}
);
width = 349;
}
);
unicode = 124;
},
{
glyphname = asciitilde;
layers = (
{
layerId = "C8F50A54-17AA-4C4A-B1FA-B4132557993D";
shapes = (
{
closed = 1;
nodes = (
(136,232,o),
(109,198,o),
(80,165,c),
(62,165,l),
(7,234,l),
(7,251,l),
(107,377,l),
(124,384,l),
(159,379,o),
(206,363,o),
(254,348,cs),
(301,333,o),
(342,322,o),
(361,322,cs),
(390,322,o),
(415,356,o),
(446,389,c),
(463,389,l),
(518,320,l),
(518,302,l),
(418,177,l),
(401,170,l),
(369,175,o),
(319,189,o),
(272,204,cs),
(224,219,o),
(182,232,o),
(165,232,cs)
);
}
);
width = 524;
},
{
layerId = "2113D558-1B9A-4CE5-8522-23A5DC5AE0BB";
shapes = (
{
closed = 1;
nodes = (
(144,278,o),
(123,254,o),
(88,222,c),
(78,222,l),
(52,253,l),
(52,263,l),
(133,345,l),
(144,351,l),
(172,346,o),
(216,333,o),
(261,320,cs),
(306,307,o),
(347,296,o),
(364,296,cs),
(383,296,o),
(405,321,o),
(438,353,c),
(448,353,l),
(473,321,l),
(473,311,l),
(392,228,l),
(381,225,l),
(353,228,o),
(309,242,o),
(265,255,cs),
(221,267,o),
(180,278,o),
(163,278,cs)
);
}
);
width = 524;
},
{
layerId = "C039661A-009C-447A-BEE4-4577736CA1DB";
shapes = (
{
closed = 1;
nodes = (
(146,305,o),
(128,285,o),
(92,254,c),
(85,254,l),
(78,264,l),
(78,270,l),
(147,328,l),
(154,331,l),
(179,328,o),
(222,316,o),
(265,304,cs),
(308,292,o),
(347,282,o),
(364,282,cs),
(379,282,o),
(396,300,o),
(432,332,c),
(439,332,l),
(447,321,l),
(447,317,l),
(376,258,l),
(369,256,l),
(345,259,o),
(303,270,o),
(260,282,c),
(216,293,o),
(178,305,o),
(161,305,cs)
);
}
);
width = 524;
}
);
unicode = 126;
},
{
glyphname = cent;
layers = (
{
layerId = "C8F50A54-17AA-4C4A-B1FA-B4132557993D";
shapes = (
{
closed = 1;
nodes = (
(400,568,o),
(448,558,o),
(485,542,c),
(455,404,l),
(441,399,l),
(409,414,o),
(380,420,o),
(353,420,cs),
(324,420,o),
(301,411,o),
(286,393,cs),
(270,375,o),
(262,348,o),
(262,311,cs),
(262,264,o),
(271,230,o),
(288,208,cs),
(305,185,o),
(330,174,o),
(363,174,cs),
(395,174,o),
(429,182,o),
(468,195,c),
(482,185,l),
(463,55,l),
(419,40,o),
(370,32,o),
(322,32,cs),
(249,32,o),
(192,55,o),
(151,101,cs),
(110,146,o),
(90,210,o),
(90,292,cs),
(90,379,o),
(113,447,o),
(159,496,cs),
(205,544,o),
(269,568,o),
(352,568,cs)
);
},
{
closed = 1;
nodes = (
(370,108,l),
(355,-139,l),
(249,-139,l),
(234,-123,l),
(249,108,l)
);
},
{
closed = 1;
nodes = (
(392,486,l),
(370,108,l),
(249,108,l),
(272,486,l)
);
},
{
closed = 1;
nodes = (
(387,721,l),
(404,705,l),
(392,486,l),
(272,486,l),
(284,721,l)
);
}
);
width = 568;
},
{
layerId = "2113D558-1B9A-4CE5-8522-23A5DC5AE0BB";
shapes = (
{
closed = 1;
nodes = (
(383,554,o),
(435,539,o),
(471,515,c),
(457,456,l),
(447,455,l),
(416,476,o),
(374,491,o),
(334,491,cs),
(289,491,o),
(254,474,o),
(228,440,cs),
(202,405,o),
(189,358,o),
(189,297,cs),
(189,236,o),
(202,188,o),
(228,154,cs),
(254,119,o),
(290,102,o),
(337,102,cs),
(380,102,o),
(426,115,o),
(465,139,c),
(474,134,l),
(466,79,l),
(426,55,o),
(374,39,o),
(322,39,cs),
(259,39,o),
(209,62,o),
(172,107,cs),
(135,152,o),
(116,213,o),
(116,290,cs),
(116,372,o),
(136,437,o),
(175,484,cs),
(214,531,o),
(267,554,o),
(334,554,cs)
);
},
{
closed = 1;
nodes = (
(329,73,l),
(313,-131,l),
(268,-131,l),
(260,-122,l),
(275,73,l)
);
},
{
closed = 1;
nodes = (
(364,519,l),
(329,73,l),
(275,73,l),
(309,519,l)
);
},
{
closed = 1;
nodes = (
(369,712,l),
(377,703,l),
(363,519,l),
(309,519,l),
(323,712,l)
);
}
);
width = 568;
},
{
layerId = "C039661A-009C-447A-BEE4-4577736CA1DB";
shapes = (
{
closed = 1;
nodes = (
(374,549,o),
(428,531,o),
(464,503,c),
(456,485,l),
(450,485,l),
(419,508,o),
(370,527,o),
(323,527,cs),
(271,527,o),
(230,506,o),
(199,464,cs),
(168,421,o),
(152,364,o),
(152,293,cs),
(152,224,o),
(167,170,o),
(198,129,cs),
(229,88,o),
(270,67,o),
(323,67,cs),
(371,67,o),
(425,86,o),
(462,114,c),
(468,111,l),
(466,92,l),
(430,64,o),
(375,45,o),
(322,45,cs),
(264,45,o),
(218,68,o),
(183,113,cs),
(148,158,o),
(130,218,o),
(130,293,cs),
(130,371,o),
(148,433,o),
(183,480,cs),
(218,526,o),
(265,549,o),
(323,549,cs)
);
},
{
closed = 1;
nodes = (
(309,59,l),
(292,-124,l),
(276,-124,l),
(272,-120,l),
(287,59,l)
);
},
{
closed = 1;
nodes = (
(350,537,l),
(309,59,l),
(287,59,l),
(327,537,l)
);
},
{
closed = 1;
nodes = (
(360,710,l),
(364,704,l),
(350,537,l),
(327,537,l),
(343,710,l)
);
}
);
width = 568;
}
);
unicode = 162;
},
{
glyphname = sterling;
layers = (
{
layerId = "C8F50A54-17AA-4C4A-B1FA-B4132557993D";
shapes = (
{
closed = 1;
nodes = (
(437,652,o),
(478,647,o),
(523,638,c),
(511,490,l),
(498,482,l),
(445,506,o),
(405,517,o),
(370,517,cs),
(327,517,o),
(307,499,o),
(307,462,cs),
(304,270,ls),
(304,240,o),
(301,217,o),
(295,200,cs),
(289,183,o),
(277,165,o),
(259,144,c),
(259,139,l),
(519,139,l),
(524,131,l),
(510,0,l),
(40,0,l),
(33,10,l),
(42,128,l),
(99,144,o),
(121,172,o),
(121,227,cs),
(119,428,ls),
(118,571,o),
(215,652,o),
(390,652,cs)
);
},
{
closed = 1;
nodes = (
(456,385,l),
(461,376,l),
(453,272,l),
(40,272,l),
(33,282,l),
(42,385,l)
);
}
);
width = 568;
},
{
layerId = "2113D558-1B9A-4CE5-8522-23A5DC5AE0BB";
shapes = (
{
closed = 1;
nodes = (
(384,648,o),
(423,642,o),
(466,629,c),
(459,562,l),
(452,558,l),
(413,577,o),
(375,585,o),
(343,585,cs),
(276,585,o),
(245,549,o),
(245,478,cs),
(244,188,ls),
(244,159,o),
(241,136,o),
(234,118,cs),
(227,100,o),
(216,83,o),
(200,68,c),
(200,64,l),
(473,64,l),
(479,57,l),
(471,0,l),
(87,0,l),
(81,7,l),
(87,59,l),
(139,70,o),
(164,106,o),
(164,173,cs),
(164,466,l),
(163,583,o),
(228,648,o),
(348,648,cs)
);
},
{
closed = 1;
nodes = (
(397,368,l),
(401,361,l),
(396,313,l),
(88,313,l),
(83,319,l),
(88,368,l)
);
}
);
width = 568;
},
{
layerId = "C039661A-009C-447A-BEE4-4577736CA1DB";
shapes = (
{
closed = 1;
nodes = (
(355,645,o),
(392,640,o),
(432,625,c),
(430,604,l),
(427,602,l),
(395,618,o),
(358,624,o),
(327,624,cs),
(247,624,o),
(211,576,o),
(211,488,cs),
(211,142,ls),
(211,114,o),
(207,91,o),
(200,72,cs),
(193,53,o),
(182,37,o),
(167,24,c),
(167,22,l),
(447,23,l),
(452,17,l),
(449,0,l),
(113,0,l),
(109,4,l),
(112,20,l),
(161,27,o),
(189,70,o),
(189,142,cs),
(189,488,ls),
(189,591,o),
(235,645,o),
(324,645,cs)
);
},
{
closed = 1;
nodes = (
(363,358,l),
(367,354,l),
(363,336,l),
(115,336,l),
(111,341,l),
(114,358,l)
);
}
);
width = 568;
}
);
unicode = 163;
},
{
glyphname = currency;
layers = (
{
layerId = "C8F50A54-17AA-4C4A-B1FA-B4132557993D";
shapes = (
{
closed = 1;
nodes = (
(450,627,l),
(547,535,l),
(547,518,l),
(469,451,l),
(480,426,o),
(487,399,o),
(487,370,cs),
(487,346,o),
(481,322,o),
(473,299,c),
(552,239,l),
(555,221,l),
(463,123,l),
(446,123,l),
(381,201,l),
(356,188,o),
(329,181,o),
(298,181,cs),
(273,181,o),
(249,186,o),
(225,197,c),
(166,120,l),
(147,117,l),
(50,209,l),
(51,226,l),
(128,290,l),
(115,315,o),
(109,342,o),
(109,370,cs),
(109,397,o),
(114,421,o),
(125,444,c),
(48,505,l),
(45,523,l),
(137,620,l),
(154,619,l),
(220,542,l),
(244,553,o),
(270,559,o),
(298,559,cs),
(323,559,o),
(348,553,o),
(369,545,c),
(431,624,l)
);
},
{
closed = 1;
nodes = (
(282,449,o),
(268,446,o),
(256,440,cs),
(232,427,o),
(220,403,o),
(220,370,cs),
(220,354,o),
(223,340,o),
(229,328,cs),
(241,304,o),
(266,292,o),
(298,292,cs),
(315,292,o),
(329,295,o),
(341,301,cs),
(364,313,o),
(377,338,o),
(377,370,cs),
(377,387,o),
(374,401,o),
(368,413,cs),
(355,436,o),
(331,449,o),
(298,449,cs)
);
}
);
width = 568;
},
{
layerId = "2113D558-1B9A-4CE5-8522-23A5DC5AE0BB";
shapes = (
{
closed = 1;
nodes = (
(442,596,l),
(484,556,l),
(484,546,l),
(411,477,l),
(430,453,o),
(439,423,o),
(439,390,cs),
(439,359,o),
(429,330,o),
(412,306,c),
(486,238,l),
(487,228,l),
(447,186,l),
(437,187,l),
(368,260,l),
(343,240,o),
(314,230,o),
(281,230,cs),
(250,230,o),
(222,240,o),
(197,259,c),
(129,185,l),
(119,185,l),
(77,225,l),
(78,235,l),
(151,302,l),
(131,328,o),
(121,357,o),
(121,390,cs),
(121,422,o),
(133,452,o),
(150,475,c),
(75,543,l),
(75,553,l),
(115,594,l),
(125,594,l),
(195,520,l),
(219,539,o),
(249,548,o),
(281,548,cs),
(312,548,o),
(340,538,o),
(364,522,c),
(433,595,l)
);
},
{
closed = 1;
nodes = (
(261,495,o),
(243,490,o),
(228,481,cs),
(196,461,o),
(176,429,o),
(176,390,cs),
(176,370,o),
(181,352,o),
(190,336,cs),
(209,304,o),
(241,285,o),
(281,285,cs),
(301,285,o),
(319,290,o),
(335,299,cs),
(366,317,o),
(387,350,o),
(387,390,cs),
(387,409,o),
(382,427,o),
(373,443,c),
(353,474,o),
(321,495,o),
(281,495,cs)
);
}
);
width = 568;
},
{
layerId = "C039661A-009C-447A-BEE4-4577736CA1DB";
shapes = (
{
closed = 1;
nodes = (
(439,579,l),
(450,568,l),
(449,562,l),
(379,492,l),
(400,468,o),
(414,436,o),
(414,401,cs),
(414,368,o),
(400,335,o),
(379,310,c),
(451,238,l),
(450,233,l),
(439,222,l),
(434,223,l),
(363,294,l),
(337,271,o),
(307,259,o),
(272,259,cs),
(237,259,o),
(207,271,o),
(181,294,c),
(109,222,l),
(104,223,l),
(93,234,l),
(94,239,l),
(165,310,l),
(142,335,o),
(130,366,o),
(130,401,cs),
(130,436,o),
(144,468,o),
(165,492,c),
(93,565,l),
(94,570,l),
(104,580,l),
(109,580,l),
(181,508,l),
(206,529,o),
(239,543,o),
(272,543,cs),
(305,543,o),
(338,529,o),
(363,509,c),
(434,580,l)
);
},
{
closed = 1;
nodes = (
(250,521,o),
(230,516,o),
(212,505,cs),
(176,483,o),
(152,445,o),
(152,401,cs),
(152,379,o),
(158,359,o),
(169,341,cs),
(191,304,o),
(228,281,o),
(272,281,cs),
(294,281,o),
(314,286,o),
(332,297,cs),
(368,318,o),
(392,357,o),
(392,401,cs),
(392,423,o),
(387,443,o),
(376,461,cs),
(354,497,o),
(316,521,o),
(272,521,cs)
);
}
);
width = 568;
}
);
unicode = 164;
},
{
glyphname = yen;
layers = (
{
anchors = (
{
name = m.tilde;
position = "{295, 560}";
}
);
layerId = "C8F50A54-17AA-4C4A-B1FA-B4132557993D";
shapes = (
{
closed = 1;
nodes = (
(565,202,l),
(574,194,l),
(568,108,l),
(13,108,l),
(6,118,l),
(12,202,l)
);
},
{
closed = 1;
nodes = (
(213,356,l),
(215,262,l),
(13,262,l),
(6,272,l),
(12,356,l)
);
},
{
closed = 1;
nodes = (
(565,356,l),
(574,348,l),
(568,262,l),
(356,262,l),
(358,356,l)
);
},
{
closed = 1;
nodes = (
(593,558,l),
(307,59,l),
(246,59,l),
(-7,558,l),
(187,558,l),
(281,352,l),
(292,352,l),
(403,558,l)
);
},
{
closed = 1;
nodes = (
(371,245,l),
(365,145,l),
(373,0,l),
(187,0,l),
(196,145,l),
(193,245,l)
);
}
);
width = 568;
},
{
anchors = (
{
name = m.tilde;
position = "{345, 560}";
}
);
layerId = "2113D558-1B9A-4CE5-8522-23A5DC5AE0BB";
shapes = (
{
closed = 1;
nodes = (
(525,177,l),
(529,171,l),
(526,131,l),
(46,131,l),
(42,137,l),
(45,177,l)
);
},
{
closed = 1;
nodes = (
(223,322,l),
(232,276,l),
(46,276,l),
(42,283,l),
(45,322,l)
);
},
{
closed = 1;
nodes = (
(525,322,l),
(530,318,l),
(526,276,l),
(331,276,l),
(339,322,l)
);
},
{
closed = 1;
nodes = (
(526,544,l),
(294,149,l),
(268,149,l),
(56,544,l),
(138,544,l),
(281,275,l),
(288,275,l),
(445,544,l)
);
},
{
closed = 1;
nodes = (
(319,232,l),
(317,156,l),
(320,0,l),
(244,0,l),
(247,156,l),
(246,232,l)
);
}
);
width = 568;
},
{
anchors = (
{
name = m.tilde;
position = "{344, 551}";
}
);
layerId = "C039661A-009C-447A-BEE4-4577736CA1DB";
shapes = (
{
closed = 1;
nodes = (
(500,164,l),
(503,161,l),
(501,142,l),
(68,142,l),
(64,145,l),
(67,164,l)
);
},
{
closed = 1;
nodes = (
(230,306,l),
(241,284,l),
(68,284,l),
(64,287,l),
(67,306,l)
);
},
{
closed = 1;
nodes = (
(500,306,l),
(503,302,l),
(501,284,l),
(318,284,l),
(329,306,l)
);
},
{
closed = 1;
nodes = (
(489,536,l),
(287,192,l),
(279,192,l),
(91,536,l),
(118,536,l),
(281,237,l),
(285,237,l),
(462,536,l)
);
},
{
closed = 1;
nodes = (
(294,225,l),
(294,163,l),
(294,0,l),
(272,0,l),
(272,163,l),
(272,225,l)
);
}
);
width = 568;
}
);
unicode = 165;
},
{
glyphname = brokenbar;
layers = (
{
layerId = "C8F50A54-17AA-4C4A-B1FA-B4132557993D";
shapes = (
{
closed = 1;
nodes = (
(232,885,l),
(247,870,l),
(242,417,l),
(97,399,l),
(83,411,l),
(84,873,l)
);
},
{
closed = 1;
nodes = (
(225,176,l),
(241,158,l),
(242,-268,l),
(98,-280,l),
(82,-262,l),
(83,159,l)
);
}
);
width = 328;
},
{
layerId = "2113D558-1B9A-4CE5-8522-23A5DC5AE0BB";
shapes = (
{
closed = 1;
nodes = (
(201,871,l),
(207,865,l),
(206,407,l),
(142,400,l),
(134,406,l),
(134,866,l)
);
},
{
closed = 1;
nodes = (
(198,175,l),
(206,165,l),
(206,-282,l),
(142,-286,l),
(134,-276,l),
(134,167,l)
);
}
);
width = 342;
},
{
layerId = "C039661A-009C-447A-BEE4-4577736CA1DB";
shapes = (
{
closed = 1;
nodes = (
(183,864,l),
(186,862,l),
(186,402,l),
(167,400,l),
(164,403,l),
(164,862,l)
);
},
{
closed = 1;
nodes = (
(182,175,l),
(186,169,l),
(186,-289,l),
(167,-289,l),
(164,-285,l),
(164,171,l)
);
}
);
width = 349;
}
);
unicode = 166;
},
{
glyphname = section;
layers = (
{
layerId = "C8F50A54-17AA-4C4A-B1FA-B4132557993D";
shapes = (
{
closed = 1;
nodes = (
(250,394,l),
(214,371,o),
(187,341,o),
(187,309,cs),
(187,294,o),
(193,281,o),
(205,272,c),
(228,252,o),
(267,238,o),
(309,222,cs),
(330,214,o),
(349,204,o),
(368,193,c),
(404,169,o),
(430,135,o),
(430,82,cs),
(430,49,o),
(420,18,o),
(400,-10,cs),
(360,-66,o),
(287,-104,o),
(195,-104,cs),
(170,-104,o),
(140,-101,o),
(105,-96,cs),
(70,-91,o),
(38,-83,o),
(9,-74,c),
(35,84,l),
(52,96,l),
(108,53,o),
(176,27,o),
(217,27,cs),
(230,27,o),
(238,29,o),
(243,33,cs),
(248,36,o),
(250,40,o),
(250,45,cs),
(250,65,o),
(213,75,o),
(165,91,c),
(141,98,o),
(117,108,o),
(93,121,c),
(45,145,o),
(8,185,o),
(8,252,cs),
(8,288,o),
(18,322,o),
(37,354,cs),
(76,418,o),
(143,463,o),
(223,471,c)
);
},
{
closed = 1;
nodes = (
(335,720,o),
(400,708,o),
(443,692,c),
(418,542,l),
(394,533,l),
(342,566,o),
(290,584,o),
(259,584,cs),
(252,584,o),
(247,583,o),
(242,582,c),
(233,578,o),
(228,573,o),
(228,566,cs),
(228,545,o),
(265,535,o),
(314,520,cs),
(339,512,o),
(363,502,o),
(387,490,cs),
(435,466,o),
(472,428,o),
(472,360,cs),
(472,325,o),
(462,292,o),
(443,261,cs),
(403,197,o),
(332,153,o),
(249,145,c),
(213,217,l),
(262,242,o),
(292,270,o),
(292,302,cs),
(292,317,o),
(286,330,o),
(275,340,cs),
(251,360,o),
(211,373,o),
(171,390,c),
(150,398,o),
(131,408,o),
(112,419,cs),
(75,442,o),
(49,475,o),
(49,530,cs),
(49,564,o),
(59,595,o),
(80,624,cs),
(120,681,o),
(194,720,o),
(286,720,cs)
);
}
);
width = 487;
},
{
layerId = "2113D558-1B9A-4CE5-8522-23A5DC5AE0BB";
shapes = (
{
closed = 1;
nodes = (
(232,425,l),
(157,398,o),
(122,363,o),
(122,323,cs),
(122,306,o),
(128,291,o),
(140,277,cs),
(163,249,o),
(203,224,o),
(244,198,cs),
(265,185,o),
(284,170,o),
(303,155,cs),
(340,124,o),
(366,88,o),
(366,40,cs),
(366,13,o),
(358,-12,o),
(343,-35,cs),
(311,-81,o),
(254,-110,o),
(181,-110,cs),
(158,-110,o),
(134,-107,o),
(107,-101,cs),
(80,-95,o),
(55,-86,o),
(34,-75,c),
(46,4,l),
(56,11,l),
(97,-26,o),
(146,-49,o),
(191,-49,cs),
(221,-49,o),
(244,-41,o),
(261,-25,cs),
(278,-9,o),
(286,8,o),
(286,26,cs),
(286,65,o),
(249,95,o),
(201,124,cs),
(177,138,o),
(153,154,o),
(129,171,cs),
(81,206,o),
(44,246,o),
(44,306,cs),
(44,332,o),
(51,356,o),
(64,379,cs),
(91,424,o),
(140,459,o),
(201,474,c)
);
},
{
closed = 1;
nodes = (
(309,707,o),
(355,699,o),
(395,683,c),
(383,604,l),
(370,601,l),
(330,629,o),
(292,643,o),
(260,643,cs),
(243,643,o),
(227,639,o),
(214,632,cs),
(187,617,o),
(173,593,o),
(173,570,cs),
(173,533,o),
(210,505,o),
(258,475,cs),
(282,460,o),
(306,444,o),
(330,427,cs),
(378,394,o),
(415,351,o),
(415,292,cs),
(415,267,o),
(409,243,o),
(396,221,cs),
(371,177,o),
(324,143,o),
(260,128,c),
(226,175,l),
(310,202,o),
(336,237,o),
(336,273,cs),
(336,291,o),
(330,307,o),
(319,322,c),
(295,351,o),
(256,375,o),
(216,402,c),
(195,415,o),
(176,429,o),
(157,444,cs),
(120,473,o),
(94,509,o),
(94,557,cs),
(94,584,o),
(102,608,o),
(117,631,cs),
(148,676,o),
(205,707,o),
(274,707,cs)
);
}
);
width = 459;
},
{
layerId = "C039661A-009C-447A-BEE4-4577736CA1DB";
shapes = (
{
closed = 1;
nodes = (
(192,465,l),
(125,433,o),
(87,383,o),
(87,336,cs),
(87,317,o),
(93,298,o),
(105,281,c),
(128,245,o),
(168,214,o),
(209,183,cs),
(229,167,o),
(248,151,o),
(267,134,cs),
(304,101,o),
(330,62,o),
(330,17,cs),
(330,-6,o),
(323,-27,o),
(310,-48,cs),
(283,-89,o),
(234,-115,o),
(174,-115,cs),
(152,-115,o),
(130,-112,o),
(108,-105,cs),
(85,-98,o),
(66,-88,o),
(49,-76,c),
(52,-58,l),
(58,-55,l),
(91,-79,o),
(133,-93,o),
(174,-93,cs),
(217,-93,o),
(250,-82,o),
(273,-59,cs),
(296,-36,o),
(308,-11,o),
(308,16,cs),
(308,67,o),
(271,106,o),
(223,143,cs),
(199,162,o),
(175,181,o),
(151,200,cs),
(103,239,o),
(66,282,o),
(66,337,cs),
(66,357,o),
(71,376,o),
(80,394,cs),
(99,429,o),
(134,459,o),
(178,482,c)
);
},
{
closed = 1;
nodes = (
(294,699,o),
(330,693,o),
(369,677,c),
(364,656,l),
(357,655,l),
(324,671,o),
(291,677,o),
(266,677,cs),
(240,677,o),
(218,672,o),
(199,661,cs),
(162,640,o),
(142,604,o),
(142,571,cs),
(142,524,o),
(179,486,o),
(227,450,cs),
(251,431,o),
(275,412,o),
(299,393,cs),
(347,353,o),
(384,309,o),
(384,252,cs),
(384,233,o),
(380,216,o),
(372,199,cs),
(355,165,o),
(321,135,o),
(273,111,c),
(258,128,l),
(330,161,o),
(363,206,o),
(363,251,cs),
(363,272,o),
(357,292,o),
(346,310,cs),
(322,346,o),
(282,377,o),
(242,409,c),
(221,424,o),
(202,441,o),
(183,458,cs),
(146,492,o),
(120,527,o),
(120,572,cs),
(120,595,o),
(126,617,o),
(139,636,cs),
(164,674,o),
(212,699,o),
(269,699,cs)
);
}
);
width = 444;
}
);
unicode = 167;
},
{
glyphname = copyright;
layers = (
{
layerId = "C8F50A54-17AA-4C4A-B1FA-B4132557993D";
shapes = (
{
closed = 1;
nodes = (
(443,653,o),
(501,639,o),
(551,612,cs),
(651,556,o),
(709,453,o),
(709,320,cs),
(709,254,o),
(695,196,o),
(668,146,cs),
(612,45,o),
(509,-13,o),
(377,-13,cs),
(310,-13,o),
(251,1,o),
(202,29,cs),
(102,84,o),
(44,188,o),
(44,320,cs),
(44,387,o),
(58,445,o),
(86,495,cs),
(141,595,o),
(242,653,o),
(377,653,cs)
);
},
{
closed = 1;
nodes = (
(443,507,o),
(472,502,o),
(500,497,c),
(476,388,l),
(468,382,l),
(449,390,o),
(422,394,o),
(403,394,cs),
(367,394,o),
(353,382,o),
(353,335,cs),
(353,278,o),
(369,253,o),
(413,253,cs),
(430,253,o),
(457,257,o),
(476,258,c),
(487,251,l),
(476,143,l),
(449,139,o),
(425,141,o),
(402,141,cs),
(269,141,o),
(206,204,o),
(206,319,cs),
(206,436,o),
(280,507,o),
(408,507,cs)
);
},
{
closed = 1;
nodes = (
(323,586,o),
(277,575,o),
(238,553,cs),
(158,509,o),
(111,427,o),
(111,320,cs),
(111,267,o),
(122,220,o),
(145,180,cs),
(189,100,o),
(271,54,o),
(376,54,cs),
(429,54,o),
(475,65,o),
(515,87,cs),
(594,131,o),
(641,213,o),
(641,320,cs),
(641,373,o),
(630,420,o),
(608,460,cs),
(563,540,o),
(481,586,o),
(376,586,cs)
);
}
);
width = 752;
},
{
layerId = "2113D558-1B9A-4CE5-8522-23A5DC5AE0BB";
shapes = (
{
closed = 1;
nodes = (
(438,653,o),
(495,639,o),
(544,612,cs),
(640,556,o),
(697,453,o),
(697,320,cs),
(697,254,o),
(684,196,o),
(657,146,cs),
(603,45,o),
(504,-13,o),
(373,-13,cs),
(308,-13,o),
(252,1,o),
(204,29,cs),
(107,84,o),
(50,188,o),
(50,320,cs),
(50,387,o),
(64,445,o),
(91,495,cs),
(145,595,o),
(244,653,o),
(373,653,cs)
);
},
{
closed = 1;
nodes = (
(427,508,o),
(463,499,o),
(492,484,c),
(479,431,l),
(474,429,l),
(450,445,o),
(418,453,o),
(389,453,cs),
(317,453,o),
(280,412,o),
(280,327,cs),
(280,238,o),
(317,192,o),
(389,192,cs),
(418,192,o),
(453,201,o),
(480,216,c),
(487,214,l),
(482,162,l),
(451,147,o),
(416,138,o),
(384,138,cs),
(271,138,o),
(213,204,o),
(213,321,cs),
(213,441,o),
(276,508,o),
(391,508,cs)
);
},
{
closed = 1;
nodes = (
(316,615,o),
(267,603,o),
(224,579,cs),
(138,530,o),
(88,437,o),
(88,320,cs),
(88,261,o),
(100,210,o),
(124,166,cs),
(171,77,o),
(260,25,o),
(373,25,cs),
(430,25,o),
(480,37,o),
(523,62,cs),
(608,111,o),
(658,203,o),
(658,320,cs),
(658,379,o),
(646,430,o),
(623,475,cs),
(575,564,o),
(488,615,o),
(373,615,cs)
);
}
);
width = 748;
},
{
layerId = "C039661A-009C-447A-BEE4-4577736CA1DB";
shapes = (
{
closed = 1;
nodes = (
(435,653,o),
(491,639,o),
(539,612,cs),
(634,556,o),
(690,453,o),
(690,320,cs),
(690,254,o),
(677,196,o),
(650,146,cs),
(597,45,o),
(499,-13,o),
(372,-13,cs),
(308,-13,o),
(252,1,o),
(205,29,cs),
(109,84,o),
(54,188,o),
(54,320,cs),
(54,387,o),
(67,445,o),
(94,495,cs),
(146,595,o),
(244,653,o),
(372,653,cs)
);
},
{
closed = 1;
nodes = (
(420,508,o),
(457,496,o),
(488,476,c),
(483,456,l),
(477,456,l),
(452,477,o),
(416,486,o),
(381,486,cs),
(289,486,o),
(239,429,o),
(239,322,cs),
(239,215,o),
(288,158,o),
(376,158,cs),
(412,158,o),
(452,170,o),
(484,193,c),
(488,192,l),
(486,171,l),
(453,151,o),
(412,137,o),
(375,137,cs),
(272,137,o),
(217,203,o),
(217,322,cs),
(217,442,o),
(274,508,o),
(381,508,cs)
);
},
{
closed = 1;
nodes = (
(313,631,o),
(261,618,o),
(217,593,cs),
(128,541,o),
(75,445,o),
(75,320,cs),
(75,258,o),
(88,204,o),
(113,157,cs),
(163,63,o),
(254,9,o),
(371,9,cs),
(431,9,o),
(483,22,o),
(528,48,cs),
(616,99,o),
(668,196,o),
(668,320,cs),
(668,383,o),
(656,437,o),
(631,484,cs),
(582,577,o),
(491,631,o),
(372,631,cs)
);
}
);
width = 745;
}
);
leftKerningGroup = C2;
rightKerningGroup = D;
unicode = 169;
},
{
glyphname = ordfeminine;
layers = (
{
anchors = (
{
name = top;
position = "{177, 291}";
}
);
layerId = "C8F50A54-17AA-4C4A-B1FA-B4132557993D";
shapes = (
{
closed = 1;
nodes = (
(300,715,o),
(347,675,o),
(347,606,cs),
(347,468,ls),
(347,457,o),
(350,451,o),
(357,451,cs),
(361,451,o),
(366,452,o),
(370,453,c),
(380,444,l),
(366,367,l),
(343,351,o),
(326,345,o),
(301,345,cs),
(258,345,o),
(240,360,o),
(227,397,c),
(222,397,l),
(201,374,o),
(174,356,o),
(145,344,c),
(68,344,o),
(16,389,o),
(16,462,cs),
(16,517,o),
(46,551,o),
(105,559,cs),
(213,572,l),
(214,578,l),
(214,602,o),
(204,612,o),
(179,612,cs),
(150,612,o),
(116,601,o),
(67,577,c),
(58,582,l),
(41,679,l),
(90,703,o),
(151,715,o),
(204,715,cs)
);
},
{
closed = 1;
nodes = (
(213,506,l),
(173,501,l),
(160,498,o),
(152,492,o),
(152,476,cs),
(152,457,o),
(162,447,o),
(179,447,cs),
(191,447,o),
(202,450,o),
(213,456,c)
);
},
{
closed = 1;
nodes = (
(29,300,l),
(368,300,l),
(381,286,l),
(371,188,l),
(33,188,l),
(20,202,l)
);
}
);
width = 397;
},
{
anchors = (
{
name = top;
position = "{185, 681}";
}
);
layerId = "2113D558-1B9A-4CE5-8522-23A5DC5AE0BB";
shapes = (
{
closed = 1;
nodes = (
(255,709,o),
(288,675,o),
(288,615,cs),
(288,452,ls),
(288,433,o),
(294,424,o),
(306,424,cs),
(311,424,o),
(320,425,o),
(325,430,c),
(332,425,l),
(323,379,l),
(308,368,o),
(295,363,o),
(276,363,cs),
(244,363,o),
(229,378,o),
(222,415,c),
(218,415,l),
(195,387,o),
(166,369,o),
(138,361,c),
(75,365,o),
(36,400,o),
(36,460,cs),
(36,507,o),
(60,533,o),
(108,542,cs),
(218,562,l),
(218,600,ls),
(218,633,o),
(201,650,o),
(168,650,cs),
(140,650,o),
(108,637,o),
(69,610,c),
(62,613,l),
(52,667,l),
(92,694,o),
(139,709,o),
(182,709,cs)
);
},
{
closed = 1;
nodes = (
(218,522,l),
(143,506,l),
(123,501,o),
(111,488,o),
(111,467,cs),
(111,440,o),
(126,420,o),
(154,420,cs),
(175,420,o),
(198,433,o),
(218,458,c)
);
},
{
closed = 1;
nodes = (
(29,312,l),
(328,312,l),
(335,305,l),
(330,258,l),
(31,258,l),
(24,265,l)
);
}
);
width = 352;
},
{
anchors = (
{
name = top;
position = "{189, 656}";
}
);
layerId = "C039661A-009C-447A-BEE4-4577736CA1DB";
shapes = (
{
closed = 1;
nodes = (
(219,703,o),
(251,674,o),
(251,622,cs),
(251,438,ls),
(251,413,o),
(253,400,o),
(270,400,cs),
(278,400,o),
(290,403,o),
(298,410,c),
(302,407,l),
(299,390,l),
(290,383,o),
(277,380,o),
(264,380,cs),
(239,380,o),
(224,395,o),
(223,432,c),
(221,432,l),
(193,400,o),
(160,380,o),
(128,379,c),
(73,379,o),
(44,410,o),
(44,459,cs),
(44,495,o),
(66,519,o),
(105,527,cs),
(229,554,l),
(229,618,ls),
(229,661,o),
(205,683,o),
(161,683,cs),
(132,683,o),
(96,668,o),
(61,639,c),
(57,640,l),
(52,656,l),
(89,687,o),
(128,703,o),
(163,703,cs)
);
},
{
closed = 1;
nodes = (
(229,536,l),
(112,510,l),
(84,505,o),
(67,485,o),
(67,460,cs),
(67,421,o),
(89,399,o),
(130,399,cs),
(162,399,o),
(199,419,o),
(229,458,c)
);
},
{
closed = 1;
nodes = (
(31,311,l),
(306,311,l),
(309,308,l),
(307,289,l),
(32,289,l),
(29,293,l)
);
}
);
width = 323;
}
);
unicode = 170;
},
{
glyphname = logicalnot;
layers = (
{
layerId = "C8F50A54-17AA-4C4A-B1FA-B4132557993D";
shapes = (
{
closed = 1;
nodes = (
(474,349,l),
(480,340,l),
(480,41,l),
(353,32,l),
(339,45,l),
(339,207,l),
(29,207,l),
(16,222,l),
(26,349,l)
);
}
);
width = 524;
},
{
layerId = "2113D558-1B9A-4CE5-8522-23A5DC5AE0BB";
shapes = (
{
closed = 1;
nodes = (
(458,321,l),
(464,313,l),
(464,64,l),
(406,60,l),
(399,67,l),
(399,257,l),
(37,257,l),
(31,263,l),
(36,321,l)
);
}
);
width = 524;
},
{
layerId = "C039661A-009C-447A-BEE4-4577736CA1DB";
shapes = (
{
closed = 1;
nodes = (
(448,306,l),
(454,299,l),
(454,78,l),
(436,75,l),
(432,79,l),
(432,284,l),
(41,284,l),
(38,287,l),
(40,306,l)
);
}
);
width = 524;
}
);
unicode = 172;
},
{
glyphname = softhyphen;
layers = (
{
anchors = (
{
name = top;
position = "{177, 291}";
}
);
layerId = "C8F50A54-17AA-4C4A-B1FA-B4132557993D";
shapes = (
{
closed = 1;
nodes = (
(29,364,l),
(20,248,l),
(33,234,l),
(331,234,l),
(341,350,l),
(328,364,l)
);
}
);
width = 361;
},
{
anchors = (
{
name = top;
position = "{185, 681}";
}
);
background = {
shapes = (
{
closed = 1;
nodes = (
(298,299,l),
(298,299,o),
(279,295,o),
(233,290,cs),
(59,270,l),
(53,218,l),
(60,210,l),
(300,236,l),
(305,290,l)
);
}
);
};
layerId = "2113D558-1B9A-4CE5-8522-23A5DC5AE0BB";
shapes = (
{
closed = 1;
nodes = (
(29,321,l),
(24,267,l),
(31,260,l),
(340,260,l),
(345,314,l),
(338,321,l)
);
}
);
width = 369;
},
{
anchors = (
{
name = top;
position = "{189, 656}";
}
);
layerId = "C039661A-009C-447A-BEE4-4577736CA1DB";
shapes = (
{
closed = 1;
nodes = (
(31,311,l),
(29,293,l),
(32,289,l),
(347,289,l),
(349,308,l),
(346,311,l)
);
}
);
width = 378;
}
);
leftKerningGroup = bullet2;
rightKerningGroup = bullet;
unicode = 173;
},
{
glyphname = registered;
layers = (
{
layerId = "C8F50A54-17AA-4C4A-B1FA-B4132557993D";
shapes = (
{
closed = 1;
nodes = (
(290,768,o),
(327,759,o),
(358,742,cs),
(421,706,o),
(458,642,o),
(458,558,cs),
(458,517,o),
(449,480,o),
(432,449,cs),
(396,385,o),
(332,348,o),
(248,348,cs),
(207,348,o),
(170,357,o),
(139,375,cs),
(75,410,o),
(38,475,o),
(38,558,cs),
(38,600,o),
(47,637,o),
(65,668,cs),
(100,731,o),
(165,768,o),
(248,768,cs)
);
},
{
closed = 1;
nodes = (
(230,672,l),
(230,458,l),
(159,458,l),
(159,672,l)
);
},
{
closed = 1;
nodes = (
(301,554,l),
(321,526,o),
(340,498,o),
(363,473,c),
(361,465,l),
(341,458,o),
(318,456,o),
(294,453,c),
(285,459,l),
(268,490,o),
(252,521,o),
(239,553,c)
);
},
{
closed = 1;
nodes = (
(199,722,o),
(160,707,o),
(130,677,cs),
(99,647,o),
(84,607,o),
(84,558,cs),
(84,509,o),
(99,470,o),
(130,440,c),
(160,409,o),
(199,394,o),
(248,394,cs),
(297,394,o),
(337,409,o),
(367,440,cs),
(397,470,o),
(412,509,o),
(412,558,cs),
(412,607,o),
(397,647,o),
(367,677,cs),
(337,707,o),
(297,722,o),
(248,722,cs)
);
},
{
closed = 1;
nodes = (
(269,673,ls),
(320,673,o),
(349,648,o),
(349,604,cs),
(349,564,o),
(314,532,o),
(259,520,c),
(185,520,l),
(185,572,l),
(257,567,l),
(269,574,o),
(276,582,o),
(276,598,cs),
(276,613,o),
(265,621,o),
(244,622,c),
(200,619,l),
(159,672,l)
);
}
);
width = 496;
},
{
layerId = "2113D558-1B9A-4CE5-8522-23A5DC5AE0BB";
shapes = (
{
closed = 1;
nodes = (
(280,767,o),
(315,759,o),
(345,742,cs),
(405,709,o),
(439,649,o),
(439,569,cs),
(439,529,o),
(431,494,o),
(415,464,cs),
(382,404,o),
(320,369,o),
(240,369,cs),
(201,369,o),
(166,377,o),
(137,394,c),
(77,427,o),
(41,489,o),
(41,569,cs),
(41,609,o),
(50,644,o),
(67,673,cs),
(101,732,o),
(161,767,o),
(240,767,cs)
);
},
{
closed = 1;
nodes = (
(210,681,l),
(209,470,l),
(168,470,l),
(168,681,l)
);
},
{
closed = 1;
nodes = (
(272,562,l),
(291,535,o),
(311,506,o),
(334,478,c),
(333,474,l),
(322,470,o),
(307,467,o),
(294,466,c),
(289,470,l),
(268,499,o),
(250,531,o),
(233,562,c)
);
},
{
closed = 1;
nodes = (
(190,737,o),
(150,722,o),
(119,691,cs),
(88,660,o),
(72,620,o),
(72,569,cs),
(72,518,o),
(88,477,o),
(119,446,cs),
(150,415,o),
(190,399,o),
(241,399,cs),
(292,399,o),
(334,415,o),
(365,446,cs),
(396,477,o),
(411,518,o),
(411,569,cs),
(411,620,o),
(396,660,o),
(365,691,cs),
(334,722,o),
(292,737,o),
(241,737,cs)
);
},
{
closed = 1;
nodes = (
(249,681,ls),
(296,681,o),
(320,661,o),
(320,618,cs),
(320,583,o),
(294,552,o),
(247,544,c),
(183,544,l),
(183,579,l),
(246,575,l),
(267,583,o),
(278,595,o),
(278,615,cs),
(278,638,o),
(264,650,o),
(236,651,c),
(191,649,l),
(168,681,l)
);
}
);
width = 480;
},
{
layerId = "C039661A-009C-447A-BEE4-4577736CA1DB";
shapes = (
{
closed = 1;
nodes = (
(276,767,o),
(309,759,o),
(338,743,cs),
(395,711,o),
(429,651,o),
(429,574,cs),
(429,536,o),
(421,502,o),
(405,473,cs),
(373,414,o),
(314,381,o),
(237,381,cs),
(198,381,o),
(165,389,o),
(136,405,cs),
(78,437,o),
(44,498,o),
(44,574,cs),
(44,613,o),
(52,647,o),
(68,676,cs),
(100,734,o),
(160,767,o),
(237,767,cs)
);
},
{
closed = 1;
nodes = (
(198,687,l),
(198,477,l),
(174,477,l),
(174,687,l)
);
},
{
closed = 1;
nodes = (
(254,568,l),
(274,539,o),
(293,510,o),
(317,482,c),
(317,478,l),
(310,477,o),
(299,475,o),
(294,474,c),
(290,476,l),
(267,507,o),
(249,537,o),
(228,568,c)
);
},
{
closed = 1;
nodes = (
(185,746,o),
(143,731,o),
(112,700,cs),
(80,669,o),
(64,627,o),
(64,574,cs),
(64,523,o),
(80,481,o),
(112,450,c),
(143,418,o),
(185,402,o),
(237,402,cs),
(288,402,o),
(330,418,o),
(361,450,cs),
(392,481,o),
(408,523,o),
(408,574,cs),
(408,626,o),
(392,668,o),
(361,699,cs),
(330,730,o),
(288,746,o),
(237,746,cs)
);
},
{
closed = 1;
nodes = (
(238,687,ls),
(281,687,o),
(304,667,o),
(304,627,cs),
(304,594,o),
(282,564,o),
(241,557,c),
(183,557,l),
(183,579,l),
(240,577,l),
(267,585,o),
(280,601,o),
(280,625,cs),
(280,652,o),
(264,666,o),
(233,667,c),
(187,666,l),
(174,687,l)
);
}
);
width = 472;
}
);
leftKerningGroup = tilde2;
rightKerningGroup = tilde;
unicode = 174;
},
{
glyphname = degree;
layers = (
{
layerId = "C8F50A54-17AA-4C4A-B1FA-B4132557993D";
shapes = (
{
closed = 1;
nodes = (
(187,720,o),
(212,713,o),
(235,700,c),
(279,673,o),
(307,628,o),
(307,572,cs),
(307,545,o),
(301,521,o),
(288,498,cs),
(262,453,o),
(215,425,o),
(159,425,cs),
(132,425,o),
(108,432,o),
(85,445,cs),
(40,471,o),
(12,519,o),
(12,572,cs),
(12,600,o),
(19,625,o),
(32,647,cs),
(58,691,o),
(106,720,o),
(159,720,cs)
);
},
{
closed = 1;
nodes = (
(147,633,o),
(137,631,o),
(128,626,cs),
(110,616,o),
(98,597,o),
(98,572,cs),
(98,560,o),
(101,549,o),
(106,540,cs),
(117,521,o),
(135,511,o),
(159,511,cs),
(172,511,o),
(183,514,o),
(192,519,cs),
(210,529,o),
(221,548,o),
(221,572,cs),
(221,585,o),
(218,596,o),
(213,605,cs),
(202,623,o),
(184,633,o),
(159,633,cs)
);
}
);
width = 319;
},
{
layerId = "2113D558-1B9A-4CE5-8522-23A5DC5AE0BB";
shapes = (
{
closed = 1;
nodes = (
(186,708,o),
(209,702,o),
(230,690,cs),
(271,666,o),
(298,622,o),
(298,571,cs),
(298,546,o),
(292,523,o),
(280,502,cs),
(255,461,o),
(212,435,o),
(161,435,cs),
(135,435,o),
(112,441,o),
(91,453,cs),
(49,477,o),
(22,520,o),
(22,571,cs),
(22,596,o),
(28,620,o),
(41,641,cs),
(65,683,o),
(109,708,o),
(161,708,cs)
);
},
{
closed = 1;
nodes = (
(142,663,o),
(127,659,o),
(113,651,cs),
(85,634,o),
(67,604,o),
(67,571,cs),
(67,554,o),
(71,539,o),
(80,526,c),
(96,498,o),
(126,479,o),
(159,479,cs),
(177,479,o),
(193,483,o),
(207,492,cs),
(234,509,o),
(252,538,o),
(252,571,cs),
(252,588,o),
(248,603,o),
(240,617,cs),
(223,645,o),
(195,663,o),
(159,663,cs)
);
}
);
width = 320;
},
{
layerId = "C039661A-009C-447A-BEE4-4577736CA1DB";
shapes = (
{
closed = 1;
nodes = (
(186,701,o),
(208,695,o),
(228,684,c),
(267,660,o),
(293,619,o),
(293,570,cs),
(293,546,o),
(287,524,o),
(275,505,cs),
(251,465,o),
(210,440,o),
(161,440,cs),
(136,440,o),
(113,446,o),
(93,458,cs),
(53,481,o),
(27,522,o),
(27,570,cs),
(27,595,o),
(33,617,o),
(45,637,cs),
(69,676,o),
(110,701,o),
(161,701,cs)
);
},
{
closed = 1;
nodes = (
(141,679,o),
(123,674,o),
(106,665,c),
(73,645,o),
(49,610,o),
(49,571,cs),
(49,552,o),
(54,534,o),
(65,517,cs),
(86,483,o),
(121,462,o),
(161,462,cs),
(180,462,o),
(198,467,o),
(215,477,cs),
(248,496,o),
(271,533,o),
(271,570,cs),
(271,590,o),
(266,608,o),
(256,625,cs),
(235,658,o),
(200,679,o),
(161,679,cs)
);
}
);
width = 321;
}
);
leftKerningGroup = tilde2;
rightKerningGroup = tilde;
unicode = 176;
},
{
glyphname = micro;
layers = (
{
layerId = "C8F50A54-17AA-4C4A-B1FA-B4132557993D";
shapes = (
{
closed = 1;
nodes = (
(54,-202,l),
(54,503,l),
(254,518,l),
(254,229,l),
(233,92,l),
(254,-202,l)
);
},
{
closed = 1;
nodes = (
(178,-7,o),
(117,44,o),
(118,135,c),
(254,222,l),
(254,178,o),
(268,162,o),
(299,162,cs),
(324,162,o),
(337,170,o),
(365,193,c),
(381,81,l),
(351,81,l),
(331,49,o),
(311,20,o),
(282,-7,c)
);
},
{
closed = 1;
nodes = (
(396,2,o),
(358,59,o),
(346,156,c),
(346,503,l),
(536,518,l),
(536,162,l),
(536,146,o),
(542,139,o),
(551,139,cs),
(558,139,o),
(563,141,o),
(570,142,c),
(583,131,l),
(565,22,l),
(533,2,o),
(498,-12,o),
(455,-11,c)
);
}
);
width = 603;
},
{
layerId = "2113D558-1B9A-4CE5-8522-23A5DC5AE0BB";
shapes = (
{
closed = 1;
nodes = (
(88,-202,l),
(88,495,l),
(176,503,l),
(176,163,l),
(157,86,l),
(176,-202,l)
);
},
{
closed = 1;
nodes = (
(162,-7,o),
(111,48,o),
(112,141,c),
(176,163,l),
(175,107,o),
(202,71,o),
(257,71,cs),
(305,71,o),
(356,98,o),
(403,149,c),
(415,68,l),
(390,68,l),
(346,29,o),
(300,5,o),
(259,-7,c)
);
},
{
closed = 1;
nodes = (
(420,1,o),
(396,37,o),
(389,124,c),
(389,495,l),
(471,503,l),
(471,109,ls),
(471,80,o),
(479,70,o),
(502,70,cs),
(513,70,o),
(522,71,o),
(539,75,c),
(548,68,l),
(539,15,l),
(520,6,o),
(497,-3,o),
(476,-7,c)
);
}
);
width = 582;
},
{
layerId = "C039661A-009C-447A-BEE4-4577736CA1DB";
shapes = (
{
closed = 1;
nodes = (
(115,-202,l),
(115,490,l),
(137,495,l),
(137,145,l),
(134,83,l),
(137,-202,l)
);
},
{
closed = 1;
nodes = (
(160,-4,o),
(115,49,o),
(115,144,c),
(137,145,l),
(137,64,o),
(175,17,o),
(247,17,cs),
(307,17,o),
(370,54,o),
(429,126,c),
(430,86,l),
(418,86,l),
(365,29,o),
(303,-4,o),
(244,-4,cs)
);
},
{
closed = 1;
nodes = (
(441,-3,o),
(423,24,o),
(423,87,cs),
(423,490,l),
(444,495,l),
(444,86,ls),
(444,39,o),
(456,19,o),
(484,19,cs),
(500,19,o),
(517,24,o),
(529,35,c),
(535,32,l),
(531,12,l),
(516,1,o),
(499,-3,o),
(482,-3,cs)
);
}
);
width = 575;
}
);
unicode = 181;
},
{
glyphname = paragraph;
layers = (
{
layerId = "C8F50A54-17AA-4C4A-B1FA-B4132557993D";
shapes = (
{
closed = 1;
nodes = (
(595,707,l),
(607,692,l),
(594,545,l),
(529,545,l),
(521,233,l),
(523,157,l),
(523,116,o),
(515,79,o),
(500,48,cs),
(469,-16,o),
(400,-61,o),
(271,-104,c),
(216,-7,l),
(216,11,l),
(293,48,o),
(321,83,o),
(321,150,cs),
(321,211,l),
(313,546,l),
(280,546,l),
(255,534,o),
(240,501,o),
(240,450,cs),
(240,405,o),
(260,356,o),
(292,313,c),
(216,207,l),
(84,244,o),
(11,333,o),
(11,456,cs),
(11,617,o),
(118,707,o),
(310,707,cs)
);
}
);
width = 616;
},
{
layerId = "2113D558-1B9A-4CE5-8522-23A5DC5AE0BB";
shapes = (
{
closed = 1;
nodes = (
(499,700,l),
(507,691,l),
(499,627,l),
(419,627,l),
(416,201,l),
(417,142,ls),
(417,110,o),
(411,81,o),
(400,54,c),
(376,1,o),
(327,-44,o),
(239,-85,c),
(213,-43,l),
(213,-32,l),
(294,17,o),
(330,68,o),
(330,137,cs),
(330,187,l),
(328,628,l),
(265,628,l),
(184,620,o),
(138,567,o),
(138,479,cs),
(138,392,o),
(188,330,o),
(280,301,c),
(249,249,l),
(117,276,o),
(40,355,o),
(40,483,cs),
(40,620,o),
(127,700,o),
(282,700,cs)
);
}
);
width = 534;
},
{
layerId = "C039661A-009C-447A-BEE4-4577736CA1DB";
shapes = (
{
closed = 1;
nodes = (
(444,696,l),
(449,691,l),
(446,674,l),
(357,674,l),
(357,183,l),
(357,133,ls),
(357,106,o),
(352,81,o),
(343,57,c),
(323,9,o),
(285,-34,o),
(222,-74,c),
(211,-62,l),
(211,-56,l),
(296,0,o),
(335,58,o),
(335,129,cs),
(335,173,l),
(335,674,l),
(258,674,l),
(142,667,o),
(79,605,o),
(79,497,cs),
(79,386,o),
(148,315,o),
(272,294,c),
(268,272,l),
(135,293,o),
(57,368,o),
(57,497,cs),
(57,622,o),
(132,696,o),
(265,696,cs)
);
}
);
width = 488;
}
);
unicode = 182;
},
{
glyphname = ordmasculine;
layers = (
{
layerId = "C8F50A54-17AA-4C4A-B1FA-B4132557993D";
shapes = (
{
closed = 1;
nodes = (
(315,715,o),
(373,656,o),
(373,537,cs),
(373,408,o),
(312,343,o),
(187,343,cs),
(74,343,o),
(15,402,o),
(15,521,cs),
(15,650,o),
(78,715,o),
(202,715,cs)
);
},
{
closed = 1;
nodes = (
(163,614,o),
(157,599,o),
(157,539,cs),
(157,459,o),
(165,440,o),
(197,440,cs),
(225,440,o),
(233,456,o),
(233,519,cs),
(233,558,o),
(230,583,o),
(225,596,cs),
(220,608,o),
(209,614,o),
(192,614,cs)
);
},
{
closed = 1;
nodes = (
(17,300,l),
(368,300,l),
(381,286,l),
(371,188,l),
(21,188,l),
(8,202,l)
);
}
);
width = 389;
},
{
layerId = "2113D558-1B9A-4CE5-8522-23A5DC5AE0BB";
shapes = (
{
closed = 1;
nodes = (
(287,709,o),
(339,648,o),
(339,539,cs),
(339,424,o),
(284,360,o),
(181,360,cs),
(85,360,o),
(33,421,o),
(33,530,cs),
(33,646,o),
(89,709,o),
(190,709,cs)
);
},
{
closed = 1;
nodes = (
(138,650,o),
(112,615,o),
(112,538,cs),
(112,454,o),
(138,418,o),
(187,418,cs),
(238,418,o),
(262,452,o),
(262,531,cs),
(262,572,o),
(256,603,o),
(244,622,cs),
(231,641,o),
(212,650,o),
(187,650,cs)
);
},
{
closed = 1;
nodes = (
(29,312,l),
(340,312,l),
(347,305,l),
(342,258,l),
(31,258,l),
(24,265,l)
);
}
);
width = 371;
},
{
layerId = "C039661A-009C-447A-BEE4-4577736CA1DB";
shapes = (
{
closed = 1;
nodes = (
(267,703,o),
(317,643,o),
(317,544,cs),
(317,440,o),
(264,378,o),
(177,378,cs),
(93,378,o),
(43,438,o),
(43,537,cs),
(43,641,o),
(95,703,o),
(182,703,cs)
);
},
{
closed = 1;
nodes = (
(110,683,o),
(66,630,o),
(66,538,cs),
(66,450,o),
(106,399,o),
(177,399,cs),
(250,399,o),
(294,451,o),
(294,543,cs),
(294,587,o),
(284,621,o),
(264,646,cs),
(244,671,o),
(216,683,o),
(181,683,cs)
);
},
{
closed = 1;
nodes = (
(31,311,l),
(327,311,l),
(330,308,l),
(328,289,l),
(32,289,l),
(29,293,l)
);
}
);
width = 359;
}
);
leftKerningGroup = phi.sups;
rightKerningGroup = rho.sups;
unicode = 186;
},
{
glyphname = AE;
layers = (
{
anchors = (
{
name = m.tilde;
position = "{554, 707}";
}
);
layerId = "C8F50A54-17AA-4C4A-B1FA-B4132557993D";
shapes = (
{
closed = 1;
nodes = (
(847,707,l),
(859,691,l),
(845,538,l),
(600,538,l),
(626,168,l),
(905,168,l),
(917,152,l),
(904,0,l),
(428,0,l),
(390,511,l),
(377,511,l),
(192,0,l),
(-22,0,l),
(280,707,l)
);
},
{
closed = 1;
nodes = (
(793,473,l),
(808,461,l),
(828,310,l),
(126,100,l),
(176,282,l)
);
}
);
width = 917;
},
{
anchors = (
{
name = m.tilde;
position = "{554, 707}";
}
);
layerId = "2113D558-1B9A-4CE5-8522-23A5DC5AE0BB";
shapes = (
{
closed = 1;
nodes = (
(763,700,l),
(770,691,l),
(761,624,l),
(480,624,l),
(559,75,l),
(860,75,l),
(867,66,l),
(859,0,l),
(475,0,l),
(391,605,l),
(384,605,l),
(79,0,l),
(-17,0,l),
(348,700,l)
);
},
{
closed = 1;
nodes = (
(749,422,l),
(757,415,l),
(762,347,l),
(134,209,l),
(162,293,l)
);
}
);
width = 883;
},
{
anchors = (
{
name = m.tilde;
position = "{548, 702}";
}
);
layerId = "C039661A-009C-447A-BEE4-4577736CA1DB";
shapes = (
{
closed = 1;
nodes = (
(714,696,l),
(717,691,l),
(712,674,l),
(412,674,l),
(521,22,l),
(834,22,l),
(836,17,l),
(832,0,l),
(500,0,l),
(391,657,l),
(388,657,l),
(13,0,l),
(-16,0,l),
(385,696,l)
);
},
{
closed = 1;
nodes = (
(725,384,l),
(728,381,l),
(725,363,l),
(140,265,l),
(154,290,l)
);
}
);
width = 864;
}
);
leftKerningGroup = A2;
rightKerningGroup = E;
unicode = 198;
},
{
glyphname = Eth;
layers = (
{
anchors = (
{
name = m.tilde;
position = "{364, 707}";
},
{
name = b.uni049C_2;
position = "{364, 354}";
},
{
name = b.uni0324_4;
position = "{364, 0}";
}
);
layerId = "C8F50A54-17AA-4C4A-B1FA-B4132557993D";
shapes = (
{
closed = 1;
nodes = (
(402,415,l),
(412,401,l),
(404,273,l),
(27,273,l),
(17,287,l),
(25,415,l)
);
},
{
closed = 1;
nodes = (
(384,711,ls),
(593,711,o),
(708,595,o),
(708,382,cs),
(708,130,o),
(573,-10,o),
(332,-10,cs),
(297,-10,o),
(252,-10,o),
(204,-7,cs),
(156,-4,o),
(107,-3,o),
(66,0,c),
(254,166,l),
(273,163,o),
(295,159,o),
(317,157,cs),
(339,155,o),
(360,153,o),
(373,153,cs),
(406,153,o),
(431,166,o),
(450,192,cs),
(469,217,o),
(478,263,o),
(478,329,cs),
(478,408,o),
(470,464,o),
(453,495,cs),
(436,526,o),
(407,541,o),
(366,541,cs),
(353,541,o),
(337,539,o),
(319,539,c),
(301,538,o),
(281,537,o),
(262,534,c),
(66,707,l)
);
},
{
closed = 1;
nodes = (
(288,707,l),
(288,0,l),
(66,0,l),
(66,707,l)
);
}
);
width = 759;
},
{
anchors = (
{
name = m.tilde;
position = "{364, 707}";
},
{
name = b.uni049C_2;
position = "{364, 354}";
},
{
name = b.uni0324_4;
position = "{364, 0}";
}
);
layerId = "2113D558-1B9A-4CE5-8522-23A5DC5AE0BB";
shapes = (
{
closed = 1;
nodes = (
(370,387,l),
(375,379,l),
(371,321,l),
(16,321,l),
(13,329,l),
(16,387,l)
);
},
{
closed = 1;
nodes = (
(356,704,ls),
(556,704,o),
(666,587,o),
(666,375,cs),
(666,128,o),
(546,-7,o),
(330,-7,cs),
(307,-7,o),
(269,-5,o),
(223,-4,cs),
(177,-3,o),
(131,-1,o),
(100,0,c),
(166,81,l),
(189,78,o),
(227,76,o),
(263,74,cs),
(299,72,o),
(332,71,o),
(345,71,cs),
(416,71,o),
(472,94,o),
(511,141,cs),
(550,188,o),
(570,259,o),
(570,355,cs),
(570,448,o),
(552,516,o),
(515,561,cs),
(478,605,o),
(422,627,o),
(349,627,cs),
(337,627,o),
(303,626,o),
(267,625,cs),
(230,624,o),
(195,622,o),
(179,621,c),
(100,700,l)
);
},
{
closed = 1;
nodes = (
(195,700,l),
(194,0,l),
(99,0,l),
(99,700,l)
);
}
);
width = 731;
},
{
anchors = (
{
name = m.tilde;
position = "{378, 702}";
},
{
name = b.uni049C_2;
position = "{378, 352}";
},
{
name = b.uni0324_4;
position = "{378, 0}";
}
);
layerId = "C039661A-009C-447A-BEE4-4577736CA1DB";
shapes = (
{
closed = 1;
nodes = (
(348,370,l),
(351,367,l),
(349,348,l),
(11,348,l),
(9,352,l),
(10,370,l)
);
},
{
closed = 1;
nodes = (
(360,701,l),
(555,701,o),
(663,583,o),
(663,370,cs),
(663,129,o),
(550,-5,o),
(349,-5,cs),
(336,-5,o),
(296,-4,o),
(252,-3,cs),
(208,-2,o),
(165,-1,o),
(140,0,c),
(152,22,l),
(171,21,o),
(211,21,o),
(254,19,cs),
(297,17,o),
(336,16,o),
(349,16,cs),
(443,16,o),
(515,47,o),
(566,108,cs),
(616,169,o),
(641,257,o),
(641,370,cs),
(641,470,o),
(617,547,o),
(569,600,cs),
(520,653,o),
(451,679,o),
(360,679,cs),
(347,679,o),
(305,678,o),
(258,677,cs),
(210,676,o),
(167,674,o),
(152,674,c),
(140,696,l)
);
},
{
closed = 1;
nodes = (
(162,696,l),
(162,0,l),
(140,0,l),
(140,696,l)
);
}
);
width = 714;
}
);
leftKerningGroup = B2;
rightKerningGroup = D;
unicode = 208;
},
{
glyphname = multiply;
layers = (
{
layerId = "C8F50A54-17AA-4C4A-B1FA-B4132557993D";
shapes = (
{
closed = 1;
nodes = (
(380,496,l),
(477,413,l),
(478,393,l),
(364,278,l),
(477,164,l),
(477,144,l),
(380,61,l),
(263,178,l),
(145,60,l),
(48,144,l),
(48,163,l),
(163,278,l),
(48,393,l),
(48,413,l),
(145,496,l),
(263,379,l)
);
}
);
width = 524;
},
{
layerId = "2113D558-1B9A-4CE5-8522-23A5DC5AE0BB";
shapes = (
{
closed = 1;
nodes = (
(397,471,l),
(442,434,l),
(442,423,l),
(308,289,l),
(442,155,l),
(442,145,l),
(397,107,l),
(262,242,l),
(126,107,l),
(82,145,l),
(82,154,l),
(216,289,l),
(82,423,l),
(82,434,l),
(126,471,l),
(262,335,l)
);
}
);
width = 524;
},
{
layerId = "C039661A-009C-447A-BEE4-4577736CA1DB";
shapes = (
{
closed = 1;
nodes = (
(408,456,l),
(423,444,l),
(423,440,l),
(277,295,l),
(423,150,l),
(423,145,l),
(408,133,l),
(262,280,l),
(116,133,l),
(102,145,l),
(102,150,l),
(247,295,l),
(102,440,l),
(102,444,l),
(116,456,l),
(262,310,l)
);
}
);
width = 524;
}
);
unicode = 215;
},
{
glyphname = Oslash;
layers = (
{
anchors = (
{
name = m.tilde;
position = "{357, 710}";
},
{
name = b.uni049C_2;
position = "{357, 354}";
},
{
name = m.uni031B_3;
position = "{691, 707}";
},
{
name = b.uni0324_4;
position = "{357, 0}";
},
{
name = m.uni0328_5;
position = "{545, 50}";
},
{
name = t.uni1FDF.case_6;
position = "{22, 707}";
}
);
layerId = "C8F50A54-17AA-4C4A-B1FA-B4132557993D";
shapes = (
{
closed = 1;
nodes = (
(617,771,l),
(630,750,l),
(199,-147,l),
(85,-96,l),
(76,-78,l),
(508,821,l)
);
},
{
closed = 1;
nodes = (
(475,720,o),
(554,690,o),
(611,629,cs),
(667,568,o),
(695,482,o),
(695,371,cs),
(695,249,o),
(664,155,o),
(603,88,cs),
(541,21,o),
(454,-13,o),
(341,-13,cs),
(238,-13,o),
(159,18,o),
(103,80,cs),
(47,142,o),
(19,229,o),
(19,341,cs),
(19,462,o),
(50,555,o),
(112,621,cs),
(173,687,o),
(260,720,o),
(372,720,cs)
);
},
{
closed = 1;
nodes = (
(326,545,o),
(304,540,o),
(289,530,cs),
(258,510,o),
(248,463,o),
(248,370,cs),
(248,311,o),
(251,266,o),
(258,234,cs),
(271,170,o),
(303,149,o),
(360,149,cs),
(388,149,o),
(410,154,o),
(425,164,cs),
(455,183,o),
(465,231,o),
(465,324,cs),
(465,383,o),
(462,429,o),
(456,461,cs),
(443,524,o),
(412,545,o),
(353,545,cs)
);
}
);
width = 713;
},
{
anchors = (
{
name = m.tilde;
position = "{357, 710}";
},
{
name = b.uni049C_2;
position = "{357, 354}";
},
{
name = m.uni031B_3;
position = "{691, 707}";
},
{
name = b.uni0324_4;
position = "{357, 0}";
},
{
name = m.uni0328_5;
position = "{545, 50}";
},
{
name = t.uni1FDF.case_6;
position = "{22, 707}";
}
);
layerId = "2113D558-1B9A-4CE5-8522-23A5DC5AE0BB";
shapes = (
{
closed = 1;
nodes = (
(569,771,l),
(574,760,l),
(165,-114,l),
(108,-93,l),
(104,-84,l),
(513,792,l)
);
},
{
closed = 1;
nodes = (
(452,708,o),
(526,678,o),
(578,619,cs),
(629,560,o),
(655,475,o),
(655,364,cs),
(655,245,o),
(628,154,o),
(573,89,cs),
(518,24,o),
(439,-9,o),
(337,-9,cs),
(242,-9,o),
(169,22,o),
(118,84,cs),
(66,145,o),
(40,232,o),
(40,344,cs),
(40,461,o),
(67,551,o),
(122,614,cs),
(177,677,o),
(255,708,o),
(356,708,cs)
);
},
{
closed = 1;
nodes = (
(302,631,o),
(262,621,o),
(231,601,cs),
(167,561,o),
(137,480,o),
(137,355,cs),
(137,289,o),
(145,235,o),
(160,192,cs),
(190,106,o),
(252,64,o),
(345,64,cs),
(392,64,o),
(432,74,o),
(464,95,cs),
(527,136,o),
(558,219,o),
(558,346,cs),
(558,411,o),
(550,465,o),
(535,507,cs),
(504,591,o),
(442,631,o),
(349,631,cs)
);
}
);
width = 695;
},
{
anchors = (
{
name = m.tilde;
position = "{352, 704}";
},
{
name = b.uni049C_2;
position = "{353, 352}";
},
{
name = m.uni031B_3;
position = "{681, 702}";
},
{
name = b.uni0324_4;
position = "{353, 0}";
},
{
name = m.uni0328_5;
position = "{514, 41}";
},
{
name = t.uni1FDF.case_6;
position = "{22, 702}";
}
);
layerId = "C039661A-009C-447A-BEE4-4577736CA1DB";
shapes = (
{
closed = 1;
nodes = (
(538,771,l),
(541,765,l),
(143,-95,l),
(126,-92,l),
(123,-87,l),
(521,774,l)
);
},
{
closed = 1;
nodes = (
(439,701,o),
(510,672,o),
(559,613,cs),
(608,554,o),
(632,469,o),
(632,359,cs),
(632,242,o),
(607,152,o),
(556,89,cs),
(505,26,o),
(431,-5,o),
(336,-5,cs),
(245,-5,o),
(175,25,o),
(126,86,cs),
(77,147,o),
(52,233,o),
(52,346,cs),
(52,461,o),
(78,549,o),
(129,610,cs),
(180,671,o),
(252,701,o),
(347,701,cs)
);
},
{
closed = 1;
nodes = (
(288,679,o),
(239,666,o),
(199,641,cs),
(118,589,o),
(74,489,o),
(74,346,cs),
(74,275,o),
(84,216,o),
(105,167,cs),
(145,69,o),
(224,16,o),
(336,16,cs),
(395,16,o),
(445,29,o),
(486,56,cs),
(567,109,o),
(610,212,o),
(610,359,cs),
(610,428,o),
(600,486,o),
(580,534,cs),
(539,629,o),
(460,679,o),
(347,679,cs)
);
}
);
width = 685;
}
);
leftKerningGroup = C2;
rightKerningGroup = D;
unicode = 216;
},
{
glyphname = Thorn;
layers = (
{
layerId = "C8F50A54-17AA-4C4A-B1FA-B4132557993D";
shapes = (
{
closed = 1;
nodes = (
(407,609,ls),
(567,609,o),
(657,535,o),
(657,382,cs),
(657,210,o),
(543,109,o),
(336,109,c),
(144,109,l),
(144,262,l),
(367,262,l),
(403,282,o),
(425,306,o),
(425,365,cs),
(425,430,o),
(397,453,o),
(329,456,c),
(197,456,l),
(66,609,l)
);
},
{
closed = 1;
nodes = (
(290,707,l),
(290,0,l),
(66,0,l),
(66,707,l)
);
}
);
width = 657;
},
{
layerId = "2113D558-1B9A-4CE5-8522-23A5DC5AE0BB";
shapes = (
{
closed = 1;
nodes = (
(322,581,ls),
(461,581,o),
(538,509,o),
(538,373,cs),
(538,217,o),
(445,126,o),
(274,126,c),
(135,126,l),
(135,200,l),
(306,200,l),
(391,216,o),
(441,270,o),
(441,367,cs),
(441,459,o),
(392,501,o),
(299,506,c),
(152,506,l),
(102,581,l)
);
},
{
closed = 1;
nodes = (
(195,700,l),
(194,0,l),
(100,0,l),
(100,700,l)
);
}
);
width = 578;
},
{
layerId = "C039661A-009C-447A-BEE4-4577736CA1DB";
shapes = (
{
closed = 1;
nodes = (
(274,563,ls),
(401,563,o),
(472,493,o),
(472,368,cs),
(472,220,o),
(390,138,o),
(239,138,cs),
(131,138,l),
(131,159,l),
(272,159,l),
(387,174,o),
(450,248,o),
(450,368,cs),
(450,476,o),
(390,537,o),
(282,542,c),
(127,541,l),
(120,561,l)
);
},
{
closed = 1;
nodes = (
(142,696,l),
(142,0,l),
(120,0,l),
(120,696,l)
);
}
);
width = 532;
}
);
leftKerningGroup = B2;
unicode = 222;
},
{
glyphname = germandbls;
layers = (
{
layerId = "C8F50A54-17AA-4C4A-B1FA-B4132557993D";
shapes = (
{
closed = 1;
nodes = (
(445,769,o),
(489,761,o),
(523,746,c),
(590,714,o),
(621,659,o),
(621,600,cs),
(621,559,o),
(608,529,o),
(591,506,cs),
(582,494,o),
(573,483,o),
(564,474,cs),
(545,454,o),
(533,435,o),
(533,414,cs),
(533,381,o),
(562,360,o),
(601,340,c),
(620,329,o),
(640,317,o),
(659,304,cs),
(697,276,o),
(726,238,o),
(726,171,cs),
(726,140,o),
(719,110,o),
(704,82,cs),
(674,26,o),
(609,-13,o),
(501,-13,cs),
(454,-13,o),
(395,-5,o),
(331,15,c),
(356,171,l),
(373,185,l),
(425,141,o),
(487,116,o),
(523,116,cs),
(532,116,o),
(538,117,o),
(543,120,cs),
(547,123,o),
(549,127,o),
(549,133,cs),
(549,157,o),
(520,173,o),
(482,194,cs),
(463,205,o),
(443,217,o),
(424,232,cs),
(385,261,o),
(356,306,o),
(356,373,cs),
(356,420,o),
(368,448,o),
(387,469,cs),
(396,480,o),
(405,489,o),
(414,498,cs),
(431,515,o),
(444,534,o),
(444,565,cs),
(444,602,o),
(422,621,o),
(377,621,cs),
(333,621,o),
(298,606,o),
(298,543,cs),
(298,0,l),
(93,0,l),
(93,515,ls),
(93,570,o),
(106,616,o),
(131,654,cs),
(182,729,o),
(275,769,o),
(390,769,cs)
);
},
{
closed = 1;
nodes = (
(195,510,l),
(201,499,l),
(192,387,l),
(22,387,l),
(16,397,l),
(25,510,l)
);
}
);
width = 720;
},
{
layerId = "2113D558-1B9A-4CE5-8522-23A5DC5AE0BB";
shapes = (
{
closed = 1;
nodes = (
(377,769,o),
(409,763,o),
(436,751,cs),
(488,727,o),
(515,683,o),
(515,627,cs),
(515,580,o),
(497,549,o),
(473,522,cs),
(461,509,o),
(449,496,o),
(437,485,cs),
(412,462,o),
(394,437,o),
(394,404,cs),
(394,359,o),
(427,330,o),
(471,306,c),
(492,293,o),
(514,280,o),
(536,267,cs),
(580,240,o),
(613,204,o),
(613,144,cs),
(613,117,o),
(606,92,o),
(592,69,cs),
(563,22,o),
(509,-9,o),
(430,-9,cs),
(383,-9,o),
(332,3,o),
(285,26,c),
(297,107,l),
(307,114,l),
(347,77,o),
(395,57,o),
(438,57,cs),
(465,57,o),
(487,64,o),
(503,78,cs),
(519,92,o),
(527,109,o),
(527,129,cs),
(527,168,o),
(495,195,o),
(451,219,cs),
(429,231,o),
(407,244,o),
(386,259,c),
(342,288,o),
(309,328,o),
(309,389,cs),
(309,436,o),
(329,466,o),
(354,490,cs),
(367,502,o),
(380,514,o),
(393,525,cs),
(419,548,o),
(438,574,o),
(438,615,cs),
(438,671,o),
(398,701,o),
(334,701,cs),
(254,701,o),
(204,654,o),
(204,559,cs),
(204,0,l),
(117,0,l),
(117,549,ls),
(117,596,o),
(126,636,o),
(144,669,cs),
(180,733,o),
(248,769,o),
(339,769,cs)
);
},
{
closed = 1;
nodes = (
(164,499,l),
(168,492,l),
(163,438,l),
(43,438,l),
(38,444,l),
(44,499,l)
);
}
);
width = 621;
},
{
layerId = "C039661A-009C-447A-BEE4-4577736CA1DB";
shapes = (
{
closed = 1;
nodes = (
(337,769,o),
(363,764,o),
(385,754,cs),
(429,734,o),
(454,697,o),
(454,644,cs),
(454,592,o),
(433,558,o),
(405,531,c),
(390,518,o),
(376,505,o),
(362,493,cs),
(333,468,o),
(311,440,o),
(311,399,cs),
(311,346,o),
(347,314,o),
(393,287,cs),
(416,273,o),
(439,259,o),
(462,246,cs),
(508,219,o),
(543,184,o),
(543,129,cs),
(543,105,o),
(536,83,o),
(523,63,cs),
(496,22,o),
(451,-5,o),
(388,-5,cs),
(343,-5,o),
(295,9,o),
(262,33,c),
(265,51,l),
(271,55,l),
(304,30,o),
(346,16,o),
(387,16,cs),
(430,16,o),
(463,28,o),
(486,51,cs),
(509,74,o),
(521,99,o),
(521,127,cs),
(521,176,o),
(486,207,o),
(440,233,cs),
(417,246,o),
(394,259,o),
(371,274,cs),
(325,302,o),
(289,340,o),
(289,397,cs),
(289,444,o),
(311,476,o),
(339,501,cs),
(353,514,o),
(367,527,o),
(382,540,cs),
(411,566,o),
(432,595,o),
(432,642,cs),
(432,710,o),
(385,747,o),
(308,747,cs),
(208,747,o),
(150,683,o),
(150,568,cs),
(150,0,l),
(128,0,l),
(128,568,ls),
(128,611,o),
(135,647,o),
(149,677,cs),
(177,737,o),
(231,769,o),
(306,769,cs)
);
},
{
closed = 1;
nodes = (
(144,494,l),
(147,489,l),
(144,472,l),
(55,472,l),
(50,476,l),
(54,494,l)
);
}
);
width = 565;
}
);
leftKerningGroup = f;
rightKerningGroup = s;
unicode = 223;
},
